<svg xmlns="http://www.w3.org/2000/svg" viewBox="0 0 128.46922 65">
  <defs>
    <style>
      .a {
        opacity: 0.65;
      }

      .b {
        fill: #fff;
      }
    </style>
  </defs>
  <title>Companies_Adobe</title>
  <g class="a">
    <path class="b" d="M80.82491,12.39973h.27173c.33241,0,.60684-.11112.60684-.40443,0-.22262-.16139-.42521-.58661-.42521a2.417,2.417,0,0,0-.292.00943Zm0,1.42416h-.45623V11.297a4.5173,4.5173,0,0,1,.75762-.07144,1.32977,1.32977,0,0,1,.8181.20317.62485.62485,0,0,1,.2234.52479.61474.61474,0,0,1-.48319.60761v.01944c.22069.041.362.24227.41174.617a2.22346,2.22346,0,0,0,.15214.62628h-.46568a1.95923,1.95923,0,0,1-.16137-.64593.46165.46165,0,0,0-.53423-.425h-.2623Zm.41309-3.20517a1.807,1.807,0,1,0,.00944,0Zm.00944-.38266a2.27436,2.27436,0,0,1-.00944,4.54861,2.27433,2.27433,0,1,1,0-4.54861Z"/>
    <path class="b" d="M48.79432,50.77786l-.378-2.2509c-.109-.64863-.249-1.66045-.35262-2.36222h-.04179c-.1117.70716-.26634,1.74923-.38074,2.3676l-.409,2.24552Zm-1.76407,1.46537-.49513,2.49529H44.71194l2.27384-10.38483h2.2351l2.0668,10.38483H49.45352l-.483-2.49529Z"/>
    <path class="b" d="M55.43573,50.10055a2.67115,2.67115,0,0,0-.02561-.44814c-.07261-.51459-.347-.97621-.78419-.97621-.75224,0-1.02937,1.086-1.02937,2.35394,0,1.45594.39421,2.28673,1.00239,2.28673.27867,0,.59876-.14384.77226-.75415a1.482,1.482,0,0,0,.06452-.47568Zm1.87172-6.02266v8.5064c0,.67616.0364,1.50562.06182,2.15423H55.75465l-.10631-.86662h-.03909a1.80117,1.80117,0,0,1-1.56724.98834c-1.54875,0-2.31582-1.70821-2.31582-3.86437,0-2.62837,1.14511-3.90733,2.39247-3.90733a1.32724,1.32724,0,0,1,1.28741.783h.02966v-3.7937Z"/>
    <path class="b" d="M61.20552,53.42318c.71313,0,.8907-1.34616.8907-2.46025,0-1.05958-.17757-2.43867-.92171-2.43867-.79113,0-.95656,1.37909-.95656,2.43867,0,1.279.20992,2.46025.97274,2.46025Zm-.035,1.43706c-1.72363,0-2.80535-1.38582-2.80535-3.863,0-2.70522,1.38717-3.90869,2.84714-3.90869,1.7007,0,2.7705,1.45325,2.7705,3.86284,0,3.09886-1.67258,3.90886-2.79611,3.90886Z"/>
    <path class="b" d="M66.89981,52.05143a1.55255,1.55255,0,0,0,.07415.47972c.187.63032.50457.78572.76147.78572.72258,0,1.01452-.91765,1.01452-2.38437,0-1.33517-.30947-2.2563-1.02261-2.2563-.35512,0-.65381.38613-.75742.80058a2.03055,2.03055,0,0,0-.07011.473ZM65.0283,44.07789h1.87151V47.9987h.02966a1.761,1.761,0,0,1,1.57167-.91016c1.41145,0,2.11918,1.60519,2.11918,3.70146,0,2.65129-1.05631,4.07024-2.42461,4.07024a1.56484,1.56484,0,0,1-1.47884-1.02261h-.04025l-.105.90089H64.96628c.02561-.62569.062-1.47807.062-2.15423Z"/>
    <path class="b" d="M75.105,50.25654c.00945-1.0569-.3-1.79565-.892-1.79565-.67809,0-.966.991-.98756,1.79565ZM73.22,51.58113c.02157,1.35963.7374,1.80374,1.6254,1.80374a3.96211,3.96211,0,0,0,1.40317-.26037l.25035,1.34614a5.422,5.422,0,0,1-1.99536.34858c-2.01017,0-3.10538-1.37119-3.10538-3.71513,0-2.5159,1.27142-4.02631,2.93456-4.02631,1.60383,0,2.49319,1.33478,2.49319,3.51443a6.7856,6.7856,0,0,1-.05258.99835Z"/>
    <polygon class="b" points="64.857 10.14 76.827 10.14 76.827 38.8 64.857 10.14"/>
    <polygon class="b" points="56.423 10.14 44.444 10.14 44.444 38.8 56.423 10.14"/>
    <polygon class="b" points="60.64 20.702 68.268 38.799 63.27 38.799 60.988 33.035 55.406 33.035 60.64 20.702"/>
  </g>
</svg>
