<svg xmlns="http://www.w3.org/2000/svg" viewBox="0 0 124.74682 65">
  <defs>
    <style>
      .a {
        opacity: 0.65;
      }

      .b {
        fill: #fff;
      }
    </style>
  </defs>
  <g class="a">
    <g>
      <g>
        <g>
          <path class="b" d="M9.5442,37.57544l-3.41171.0004c-1.29452,0-1.581-.82305-1.36661-1.49481l-.02151.06684a1.42126,1.42126,0,0,0,.22139,1.22061c.59025,1.13277,2.44429,4.53136,2.44429,4.53136a1.13742,1.13742,0,0,0,1.08048.63127A7.01685,7.01685,0,0,0,11.202,41.45549l6.23749-3.88Z"/>
          <path class="b" d="M17.0612,23.71582a.88174.88174,0,0,0-.83319-.52535c.00655-.00027-.02517-.00073-.02517-.00073l-5.40848.00046a.87275.87275,0,0,0-.82482.45878.86483.86483,0,0,1,.8239-.41231h.01277a.94894.94894,0,0,1,.86736.62767c.00655.01376.77532,1.83765,1.83162,4.33967,2.32774,5.51511,6.04768,14.3271,6.04768,14.3271h5.45292S17.11017,23.83163,17.0612,23.71582Z"/>
        </g>
        <path class="b" d="M9.82765,23.98834l-4.87473,11.625c-.26634.72027-.09483,1.61225,1.20881,1.61225L9.691,37.22507l3.62293-8.5697c-1.05643-2.50215-1.8227-4.32124-1.82913-4.33645-.113-.2676-.29414-.827-.90051-.827A.77083.77083,0,0,0,9.82765,23.98834Z"/>
      </g>
      <g>
        <g>
          <g>
            <path class="b" d="M40.39568,37.541H38.31684l-1.13619-2.70192H31.88641L30.73364,37.541H28.72035L33.6464,26.26464h1.82251Zm-5.87007-8.92538-1.91913,4.48012h3.85476Z"/>
            <path class="b" d="M58.54764,37.541H56.564V28.1677h-3.5513V26.3444H62.258l-.76294,1.8233H58.54764Z"/>
            <path class="b" d="M96.21283,28.1677H90.218V31.016h3.83967v1.76025H90.218v2.97528h5.99748V37.541H88.23567V26.3444h7.97716Z"/>
            <path class="b" d="M110.272,37.541h-1.8773V26.3444h1.8773Z"/>
          </g>
          <path class="b" d="M102.29393,27.95981c-1.14391,0-2.11559.34532-2.12071,1.10538-.00576.88891.552,1.19721,2.65775,1.8817,2.3269.76608,3.56348,1.544,3.5513,3.43693-.01337,2.13343-1.66194,3.35-4.07063,3.35a6.554,6.554,0,0,1-4.39741-1.57752l.72485-1.75592a5.9223,5.9223,0,0,0,3.7242,1.5205c1.21.00537,2.07287-.58356,2.07287-1.45759,0-.72984-.42168-1.21548-2.464-1.86268-2.343-.76792-3.75814-1.56967-3.747-3.47764.01428-1.89742,1.79459-2.97685,4.033-2.96557a6.97617,6.97617,0,0,1,3.6892.93957l-.70245,1.59673A6.0707,6.0707,0,0,0,102.29393,27.95981Z"/>
          <polygon class="b" points="112.69 31.764 117.702 26.344 115.301 26.344 110.272 31.764 115.798 37.542 118.231 37.542 112.69 31.764"/>
          <path class="b" d="M68.32163,26.15224a5.7911,5.7911,0,1,0,5.79194,5.791A5.79094,5.79094,0,0,0,68.32163,26.15224Zm0,9.7749a3.98771,3.98771,0,1,1,3.8082-3.98393A3.83607,3.83607,0,0,1,68.32163,35.92714Z"/>
          <path class="b" d="M80.43272,26.3444H76.18579V37.541l4.24693-.00092a5.601,5.601,0,1,0,0-11.19565Zm0,9.40486-2.26175.00223V28.1694h2.27054A3.64207,3.64207,0,0,1,84.23909,31.928,3.70105,3.70105,0,0,1,80.43272,35.74926Z"/>
          <path class="b" d="M50.85008,32.57972c0,3.33771-1.959,5.13781-4.79937,5.13781-2.83973,0-4.79824-1.8001-4.79824-5.13781V26.3444h1.9834v6.47205c0,1.95772,1.1493,3.10767,2.8157,3.10767,1.666,0,2.81555-1.15,2.81555-3.10767V26.3444h1.983Z"/>
        </g>
        <g>
          <path class="b" d="M120.656,36.79212a.74662.74662,0,1,0-.7478.74636A.74827.74827,0,0,0,120.656,36.79212Zm-.11155,0a.63564.63564,0,1,1-.63625-.6432A.619.619,0,0,1,120.54448,36.79212Z"/>
          <path class="b" d="M120.2316,37.17342l-.1801-.25429a.42126.42126,0,0,0-.0898-.102c.12913-.01664.20515-.0869.20515-.19936a.216.216,0,0,0-.23686-.218h-.25338v.77361h.11221v-.34695c.05964,0,.08337.01834.1219.0755l.18627.27145Zm-.18508-.55563c0,.11036-.09137.12163-.17932.12163h-.07838V36.495h.11468C120.00864,36.495,120.04652,36.5457,120.04652,36.61779Z"/>
        </g>
      </g>
    </g>
  </g>
</svg>
