<svg xmlns="http://www.w3.org/2000/svg" viewBox="0 0 129.07011 65">
  <defs>
    <style>
      .a {
        opacity: 0.65;
      }

      .b {
        fill: #fff;
      }
    </style>
  </defs>
  <title>Companies_Blue bottle</title>
  <g class="a">
    <path class="b" d="M71.49157,29.8973c.00879,1.25958-.04154,3.3125-.22036,5.35883A26.73511,26.73511,0,0,1,70.6578,39.657c-.39787,1.53419-.452,1.49538-1.84694,2.11972a5.01853,5.01853,0,0,1-2.81072.36814,8.22828,8.22828,0,0,0-1.72855-.00332,13.87821,13.87821,0,0,1-4.2827-.44747.77192.77192,0,0,1-.58992-.6089c-.39673-2.0456-.83521-4.08336-1.15052-6.14432-.28345-1.85276-.50881-3.71254-.64411-5.58172a44.17851,44.17851,0,0,1-.05777-6.91532c.05124-.60693.12841-1.21242.22258-1.81613a2.73323,2.73323,0,0,1,1.86477-2.24551,8.81506,8.81506,0,0,0,1.55813-.74A3.49621,3.49621,0,0,0,62.83192,14.938a16.95158,16.95158,0,0,0,.06048-2.13521c-.01188-.99262-.02858-1.985.0189-2.97755.00727-.152.05634-.2029.19456-.22962.69023-.13347,1.38-.26994,2.06763-.416.22082-.04689.18749.08967.18748.21605q-.00025,2.63478-.00007,5.26956a1.98676,1.98676,0,0,0,1.55474,2.10667,7.19679,7.19679,0,0,1,1.18615.36787,4.80058,4.80058,0,0,1,2.114,2.29938,11.03083,11.03083,0,0,1,1.132,4.44826C71.4058,25.6257,71.48241,27.36314,71.49157,29.8973Z"/>
    <path class="b" d="M64.66025,48.767a1.14568,1.14568,0,0,1-.089,1.95333,1.59578,1.59578,0,0,1-.7502.21319c-.5683.00841-1.13679.0042-1.70506.01345-.14361.00234-.19-.0438-.1895-.1888q.00681-1.98528.0005-3.97059c-.00035-.13276.02205-.19968.17833-.1969.57674.01027,1.15427-.00736,1.73046.01389a1.30219,1.30219,0,0,1,1.28947.96054A1.02483,1.02483,0,0,1,64.66025,48.767Zm-1.27584-.38849c.12665,0,.2543.01021.37973-.00218a.41457.41457,0,0,0,.40137-.41134.37794.37794,0,0,0-.35341-.418,2.86678,2.86678,0,0,0-.4538-.02315c-.42653-.00273-.42654-.00095-.42654.41826C62.93176,48.38248,62.93176,48.38248,63.38441,48.3785Zm-.00116,1.67835a1.68468,1.68468,0,0,0,.45168-.03413.38909.38909,0,0,0,.32768-.41974.37173.37173,0,0,0-.39286-.35412c-.15175-.01171-.30489-.00647-.45742-.00675-.38057-.00069-.38057-.00022-.38057.38955C62.93176,50.05686,62.93176,50.05686,63.38325,50.05685Z"/>
    <path class="b" d="M45.85258,48.76561a1.14458,1.14458,0,0,1-.09179,1.95854,1.55208,1.55208,0,0,1-.72566.208c-.57676.0093-1.15376.00437-1.73047.01517-.15436.00288-.17956-.06242-.17918-.19663.00375-1.32353.00182-2.64708.0034-3.97062.00009-.07661-.03473-.18877.104-.184a11.587,11.587,0,0,1,2.15641.06955,1.21776,1.21776,0,0,1,.943,1.48161A1.00682,1.00682,0,0,1,45.85258,48.76561Zm-1.25772-.38838a2.78439,2.78439,0,0,0,.381-.00312.40985.40985,0,0,0,.38888-.39973.37864.37864,0,0,0-.34769-.425,2.83494,2.83494,0,0,0-.48069-.02547c-.40268-.00313-.4027-.001-.40271.39641C44.13365,48.38249,44.13365,48.38249,44.59486,48.37723Zm.01117.873V49.242c-.10131,0-.20262-.00017-.30393.00006-.0839.00018-.18782-.01509-.16611.119.03721.22974-.13546.57849.08422.666a1.23235,1.23235,0,0,0,.89129-.03679.37966.37966,0,0,0-.10084-.737A3.47621,3.47621,0,0,0,44.606,49.25018Z"/>
    <path class="b" d="M60.64624,55.62856a2.1661,2.1661,0,1,1-4.30548.02,2.03147,2.03147,0,0,1,.99588-1.81315A2.22439,2.22439,0,0,1,59.61941,53.82,2.05245,2.05245,0,0,1,60.64624,55.62856Zm-3.26993.19943a1.46883,1.46883,0,0,0,.10282.534,1.09319,1.09319,0,0,0,2.06367.00283,1.68911,1.68911,0,0,0,.068-.95095,1.07015,1.07015,0,0,0-1.07253-.93347,1.05434,1.05434,0,0,0-1.116.90613A1.74878,1.74878,0,0,0,57.37631,55.828Z"/>
    <path class="b" d="M68.2379,46.53384a2.25021,2.25021,0,1,1-2.14809,2.2547A2.09043,2.09043,0,0,1,68.2379,46.53384Zm.02192.93259a1.031,1.031,0,0,0-1.02765.68168,1.62468,1.62468,0,0,0,.03522,1.33,1.00087,1.00087,0,0,0,.96968.6139,1.01115,1.01115,0,0,0,.983-.59358,1.68448,1.68448,0,0,0,.16965-.70981A1.17125,1.17125,0,0,0,68.25982,47.46643Z"/>
    <path class="b" d="M70.1187,55.758c0-.64466.00507-1.28937-.00343-1.93391-.00223-.16917.03437-.23742.22111-.23542.86509.00928,1.73035.00728,2.5955.00114.15349-.00109.2187.04238.2022.20068-.02515.24131.10323.54874-.05514.70788-.13533.136-.43582.03484-.66308.03833-.37313.00574-.74651.0065-1.11958-.001-.1314-.00265-.17062.036-.17521.17082-.022.6468-.02657.64664.6155.64664.25447,0,.50939.00915.76325-.00328.16176-.00792.209.05342.19569.20483-.0199.22637.09215.51671-.0448.66423-.13932.15006-.43235.03962-.65765.0487-.23712.00955-.47511.00775-.71235,0-.12332-.004-.15315.04192-.15906.16051-.02971.59624-.03345.596.56585.59606.42412,0,.8483.00427,1.27231-.00229.13223-.002.18386.03961.17449.174-.017.24373.0974.55523-.04265.71362-.13285.15024-.44853.04272-.68334.04488-.67852.00624-1.35737-.00776-2.03559.00791-.22057.00509-.26324-.06588-.259-.27042C70.12718,57.04749,70.1187,56.40267,70.1187,55.758Z"/>
    <path class="b" d="M74.28223,55.77848c0-.66183.00416-1.32371-.00311-1.98546-.00168-.15264.039-.20488.19833-.2036q1.31085.01061,2.62182-.00024c.16075-.0014.21128.0497.19527.20321-.02521.24158.10395.5567-.05432.70545-.12382.11638-.43414.03783-.66165.03962-.37332.00295-.74681.00634-1.12-.002-.1425-.00317-.18684.03939-.19064.18581-.01642.632-.02154.63188.61017.63189.263,0,.52625.00572.789-.00236.12862-.004.184.02975.17633.16885a5.43961,5.43961,0,0,0-.00014.58519c.00749.14163-.05426.16911-.18013.16715-.3987-.00621-.79774.00474-1.19626-.00568-.15981-.00418-.19739.05153-.19892.20362-.00556.55429-.01122.55423.53747.55423.41577,0,.83179.00842,1.24719-.0039.17968-.00534.26784.02748.24359.23169-.02673.225.09136.52238-.0445.66112-.13655.13946-.43366.03986-.66.04156-.69574.00526-1.39162-.00413-2.08724.00613-.17593.00259-.23-.0403-.22681-.22233C74.28919,57.0853,74.28223,56.43183,74.28223,55.77848Z"/>
    <path class="b" d="M55.75747,48.80617c0-.65318.00506-1.30643-.00352-1.9595-.00218-.16583.04431-.21684.21363-.21524q1.29775.01231,2.59567.00013c.16966-.00155.22287.053.211.21658a3.55116,3.55116,0,0,0,0,.50858c.01161.162-.05639.19991-.20642.19787-.53432-.00726-1.06887.00184-1.60318-.00579-.14908-.00213-.20356.03157-.20569.19474-.00811.62324-.0148.62315.61654.62316.25449,0,.50913.00537.76339-.00213.13535-.004.20484.02823.19625.18175a5.51037,5.51037,0,0,0-.00013.585c.00695.13771-.04814.17217-.17705.1701-.40707-.00654-.81439.00206-1.22145-.00494-.12861-.00222-.17255.02979-.17692.16777-.01878.59269-.02408.59251.56813.59252.42414,0,.84836.0045,1.27238-.00251.13283-.0022.16933.04086.1748.173.03137.7587.035.75856-.7067.75856-.6956,0-1.39127-.00561-2.08673.00392-.17524.0024-.23127-.04283-.22826-.22415C55.76405,50.11263,55.75746,49.45934,55.75747,48.80617Z"/>
    <path class="b" d="M82.98112,48.79484c0-.653.00408-1.306-.003-1.95882-.00165-.15164.03669-.20567.19774-.2043q1.31.01116,2.62023.00054c.15315-.00107.20048.04222.20316.19967.01225.71991.01739.71982-.69976.71983-.3816,0-.76332.00561-1.14473-.00279-.14554-.0032-.18427.0461-.1877.18913-.01509.62872-.01987.62859.61251.6286.26287,0,.52589.0052.78857-.00214.12614-.00352.18518.02707.17744.16746-.01348.24432.07689.55375-.04112.716-.11463.15756-.44223.03854-.67592.04908-.21157.00953-.4239.00174-.6359.00221-.05078.00011-.12548-.01852-.14852.00748-.16495.18624-.03764.41281-.07079.61972-.02359.14727.09234.13021.18467.13024.54272.00019,1.08555.00655,1.62807-.00371.16794-.00318.22931.04628.21078.21342-.02583.233.10258.54512-.054.67948-.1341.115-.43622.03843-.66406.03915-.69534.00219-1.39075-.00381-2.086.00419-.16249.00187-.21792-.03978-.21546-.21017C82.98677,50.11778,82.98112,49.45627,82.98112,48.79484Z"/>
    <path class="b" d="M54.39168,48.11768c-.00023.37322.00506.74652-.00124,1.11964a1.72751,1.72751,0,1,1-3.45436.04969c-.02659-.83042-.00391-1.66236-.00939-2.49358-.00093-.14147.04065-.1977.18792-.18954.261.01445.5937-.08057.76383.047.16394.123.04769.47473.05078.72546.00763.61911-.00157,1.23842.00438,1.85757a.84832.84832,0,0,0,.52663.82467.74721.74721,0,0,0,.94961-.78744c-.00546-.8057.00136-1.61153-.01211-2.41706-.00334-.19986.04965-.27219.25221-.25082.23425.02471.54207-.09525.68819.04393.16025.15265.04176.4649.0515.70716C54.39984,47.60842,54.39191,47.86321,54.39168,48.11768Z"/>
    <path class="b" d="M53.70848,58.01267a2.09616,2.09616,0,0,1-2.10721-2.47825,2.0139,2.0139,0,0,1,1.5364-1.92648,2.20084,2.20084,0,0,1,2.25955.69557c.08625.092.08454.14973-.0132.21683a.349.349,0,0,0-.03752.0343c-.15512.14451-.28817.35255-.47137.4162-.19461.06761-.30917-.20187-.48116-.29448a1.15322,1.15322,0,0,0-1.31662.00359,1.32,1.32,0,0,0-.46429,1.37175,1.11431,1.11431,0,0,0,1.63321.89205,2.2378,2.2378,0,0,0,.27319-.13395c.39279-.22753.39212-.2287.6841.12638.26764.32548.26861.32672-.05952.58121A2.20452,2.20452,0,0,1,53.70848,58.01267Z"/>
    <path class="b" d="M61.81146,55.76537c0-.65292.00491-1.30591-.00349-1.95872-.00207-.16115.03465-.21957.20808-.21784.86482.00867,1.7298.00716,2.59467.001.15447-.00109.21711.0444.20046.20189-.0255.24139.1048.55643-.0557.70492-.12578.11636-.43437.03879-.6618.04076-.36459.00316-.72943.00786-1.09376-.00237-.1592-.00448-.21922.03171-.2194.20712-.00063.611-.00811.611.60217.611.27134,0,.54282.00508.814-.00215.126-.00336.187.026.17931.16746a5.82953,5.82953,0,0,0-.00037.58484c.00647.1394-.05441.17053-.18088.16862-.39845-.006-.79716.00334-1.19552-.005-.1429-.003-.19088.03935-.188.18533.00845.43229-.00453.865.00669,1.29721.00439.16936-.0488.22146-.2153.2103-.25234-.01692-.58295.08209-.73813-.04364-.16252-.13168-.04632-.47553-.05062-.72621C61.80566,56.71518,61.81145,56.24022,61.81146,55.76537Z"/>
    <path class="b" d="M65.97167,55.77285c0-.65284.00621-1.30577-.004-1.95844-.00286-.18219.0583-.22678.23171-.22518q1.27164.01176,2.54345.00038c.16293-.00131.2333.0399.21634.21306-.023.2344.09443.53388-.046.68844-.13259.14593-.433.04021-.65926.04506-.36441.00781-.72932.00951-1.09357-.00128-.16113-.00477-.216.03614-.21614.208-.00047.61032-.0076.61031.60119.61032.27131,0,.54276.00528.81385-.00229.1259-.0035.18541.02492.17722.16628a5.32188,5.32188,0,0,0-.00024.58471c.00715.13676-.04408.173-.175.1705-.38987-.0074-.78048.00925-1.16976-.00754-.19909-.00858-.24031.06062-.23442.24439.01331.415-.00126.83085.00711,1.24613.00294.14588-.02252.21773-.19114.20485a4.14712,4.14712,0,0,0-.60991-.0002c-.16462.01178-.196-.054-.19444-.20325C65.97569,57.09551,65.97168,56.43416,65.97167,55.77285Z"/>
    <path class="b" d="M77.04465,49.26665c0,.492-.01021.98431.005,1.47584.00611.19789-.0586.25-.24406.23436a3.336,3.336,0,0,0-.55928,0c-.184.01558-.22531-.05484-.22392-.22909.00786-.98393-.00252-1.968.00891-2.9519.0024-.20631-.06123-.261-.25612-.24789-.23644.016-.475-.00267-.7122.00616-.13635.00508-.16743-.04863-.17274-.17713-.03063-.742-.03392-.74184.69776-.74184.79738,0,1.59479.00429,2.3921-.00348.16563-.00161.22943.04365.21675.21391a4.4224,4.4224,0,0,0-.001.5341c.00638.13618-.05057.1772-.1797.174-.2628-.00658-.52615.00525-.78874-.00463-.14757-.00555-.18754.04879-.18553.19074C77.049,48.24866,77.04467,48.75768,77.04465,49.26665Z"/>
    <path class="b" d="M73.031,49.27755c0,.49214-.008.98448.00415,1.47632.00455.18382-.05846.23535-.232.22262a3.303,3.303,0,0,0-.55943.00075c-.203.01978-.23625-.06765-.2348-.2476.00776-.96725-.00359-1.93469.00913-2.90183.00291-.22167-.04835-.30276-.27842-.28077-.227.02169-.45793-.00089-.68677.00689-.1268.00431-.1866-.02733-.179-.16817a5.38583,5.38583,0,0,0-.00007-.58519c-.00776-.14054.05186-.168.17773-.16749q1.47639.00593,2.95283.00019c.1274-.00047.17321.03461.17961.171.0351.74773.03914.74754-.69806.74754-.45483,0-.45483,0-.45483.453Z"/>
    <path class="b" d="M79.2441,48.76647c0-.65271.00373-1.30546-.00279-1.9581-.0015-.15049.03677-.21574.19868-.20511a4.0423,4.0423,0,0,0,.58441-.00052c.17824-.01422.22823.04339.22661.22333-.00888.98322.00462,1.9667-.01054,2.94976-.00371.24023.069.29766.29476.28588.35505-.01852.712.00158,1.06772-.00791.15607-.00415.23716.0256.21908.20542-.02273.22589.08989.518-.04254.66382-.136.14971-.43193.04473-.65725.04789-.55088.00772-1.10206-.00426-1.65285.00642-.17755.00344-.23175-.0487-.22914-.22739C79.2499,50.08892,79.24409,49.42765,79.2441,48.76647Z"/>
    <path class="b" d="M47.53631,48.78858c0-.653.00589-1.306-.00387-1.95877-.00265-.17744.04827-.24223.22746-.22605.24317.022.55744-.09768.71354.04295.16067.14476.04751.46384.04961.70586q.01082,1.24643-.00079,2.493c-.00154.16527.0429.22.21231.215.3982-.01175.79709.00143,1.19548-.00655.13469-.0027.18267.03971.16957.173-.02377.24168.10368.55633-.05354.70537-.12284.11646-.43355.039-.66083.04017-.54269.00268-1.08556-.00659-1.628.005-.1822.0039-.227-.05643-.2246-.23022C47.54181,50.09454,47.53631,49.44152,47.53631,48.78858Z"/>
    <path class="b" d="M64.51144,8.89938c-.1354,0-.2708-.00077-.40619.00022-.13694.001-.252-.02452-.28-.1889-.01734-.10183-.09183-.11659-.18631-.12623q-.53009-.05413-1.05791-.12974a.90015.90015,0,0,1-.58624-1.35067.25213.25213,0,0,1,.39064-.08268.60685.60685,0,0,1,.18235.17361,1.75019,1.75019,0,0,0,1.47571.79847,8.50387,8.50387,0,0,0,1.99943.03111c.20569-.03158.24268.11264.21892.24776a.48609.48609,0,0,1-.39381.44014A9.49118,9.49118,0,0,1,64.51144,8.89938Z"/>
  </g>
</svg>
