<svg xmlns="http://www.w3.org/2000/svg" viewBox="0 0 150.45265 58">
  <defs>
    <style>
      .a {
        fill: #fff;
        opacity: 0.76;
      }
    </style>
  </defs>
  <title>logo-c</title>
  <path class="a" d="M94.16165,19.79826a3.75677,3.75677,0,0,0-.46191-1.89381,3.61812,3.61812,0,0,0-1.37031-1.33182L77.20207,7.858a3.71061,3.71061,0,0,0-4.02626.0385c-2.00929,1.18555-12.0557,6.92856-15.05038,8.6761a3.49507,3.49507,0,0,0-1.83222,3.22563V37.33521a3.77218,3.77218,0,0,0,.4619,1.85532,3.60283,3.60283,0,0,0,1.39341,1.37031c2.99468,1.73214,13.0411,7.49055,15.05038,8.6761a3.71059,3.71059,0,0,0,4.02626.03849l15.10427-8.71458a3.60289,3.60289,0,0,0,1.378-1.37032,3.77992,3.77992,0,0,0,.43881-1.85532S94.16165,25.649,94.16165,19.79826ZM75.23128,41.14592A12.57919,12.57919,0,1,1,86.11682,22.26944l-5.49666,3.15635a6.2588,6.2588,0,1,0,.06928,6.22031l5.46587,3.164A12.57148,12.57148,0,0,1,75.23128,41.14592Z"/>
</svg>
