<svg xmlns="http://www.w3.org/2000/svg" viewBox="0 0 124.24227 65">
  <defs>
    <style>
      .a {
        opacity: 0.65;
      }

      .b {
        fill: #fff;
      }
    </style>
  </defs>
  <title>Companies_Cancer research</title>
  <g class="a">
    <g>
      <path class="b" d="M27.19941,33.469a.11313.11313,0,0,1-.06641-.10224.15186.15186,0,0,1,.09868-.15365c0,.0045.05862.01763.05862.02214.02645.073.13747.07148-.09089.23375"/>
      <path class="b" d="M51.79605,45.45558c-.36716.64939-2.17586-.57895-1.63818-1.19318.17035-.26809.77144-.19848.7917-.19848a.9959.9959,0,0,1,.84648,1.39166"/>
      <path class="b" d="M50.62892,42.78726c-.09155,0-.12382-.18629-.20786-.20955-.2105-.68083.887-1.00614,1.21118-.6949.26716.31781.20337.84817-.25289.84817"/>
      <path class="b" d="M49.74289,41.89119c-.16172-.04277-.21594-.27221-.21594-.35851,0-.29867.27035-.70184.52737-.63655.36019.20578.14063,1.15445-.31143.99506"/>
      <path class="b" d="M48.16175,42.77326a.84749.84749,0,0,1,.80108-1.00126.87959.87959,0,0,1,.54068.41818c.23115.59116-1.099,1.14665-1.34176.58308"/>
      <path class="b" d="M46.795,39.86435c-.07729,0-.12344-.22007-.19548-.23658-.32381-.56976.75117-.97893,1.16391-.69939.27184.36564-.19624.9688-.6495.9688"/>
      <path class="b" d="M47.72882,42.735c-.50447.39041-1.57965-.42381-1.71247-1.21326-.18554-.1255-.42373-1.4466.3963-1.61245.8.15985,1.31617,1.91638,1.31617,2.81445V42.735"/>
      <path class="b" d="M43.96874,41.85758a.74462.74462,0,0,1-.19736-.027.732.732,0,0,1-.29642-.16734c-.17265.03243-.21382-.031-.21382-.07451,0-.19211-.10569-.3079-.02031-.51083a.74278.74278,0,0,1,.027-.15459.7321.7321,0,0,1,.70315-.529.75221.75221,0,0,1,.20187.02777.80661.80661,0,0,1,.11481.04352.48875.48875,0,0,1,.40673.7827.74257.74257,0,0,1-.018.07879.73457.73457,0,0,1-.70765.53056"/>
      <path class="b" d="M48.619,46.26734a.80853.80853,0,0,1-.27578-.51236c0-.5373.488-1.24833.89263-1.16785.23826.155.30129.7797.30129.97406,0,.50729-.50954.95416-.91814.70615"/>
      <path class="b" d="M46.45018,47.19777c-.20407-.02526-.24062-.226-.23874-.35227.00181-.12155.07345-.31673.23424-.33737a.31459.31459,0,0,1,.23406.32692.547.547,0,0,1-.22956.36272"/>
      <path class="b" d="M45.96735,47.95878c-.13808-.27735.10554-.785.46227-.68589.15292.20607-.203.77228-.46227.68589"/>
      <path class="b" d="M46.77915,49.36816c-.29218.13524-.6387-.12147-.5358-.33694.01051-.00075.17973-.11332.18948-.11332a.34647.34647,0,0,1,.34632.45026"/>
      <path class="b" d="M44.4809,48.46013c-.31668,0-.13095-.28329-.24464-.469-.05122-.32718.39566-.50935.6523-.50935a.86626.86626,0,0,1,.76075.67144c-.00994.20318-.50222.32569-.70409.32569"/>
      <path class="b" d="M44.55485,46.321c-.39473,0-.31368-.29848-.31162-.5934-.01369-.33751.52455-.44425.83823-.44425a1.03521,1.03521,0,0,1,.98381.56882c-.00113.34013-.423.46414-.76.46414"/>
      <path class="b" d="M43.67135,46.83744c-.27273-.26588-.07914-.69952.17034-.64762.264.24368.10675.66382-.17034.64762"/>
      <path class="b" d="M37.2717,47.69839c-.91973-.0167-.76243-.55757-.7977-1.04159.39678-.12063.90632.01013.90632.49715,0,.01576.15009.42081-.10862.54444"/>
      <path class="b" d="M35.54271,48.66908c-.48327,0-.17184-.33394-.27765-.782a.61775.61775,0,0,1,.43731-.27428c.50954,0,1.13014.38141,1.15509.85887-.16809.12382-.08986.48815-.31574.48815"/>
      <path class="b" d="M38.85218,50.07965c-.41787-.07484-.93484-.64127-.60259-.98155a.645.645,0,0,1,.838.52372c-.00075.08255-.015.46314-.23544.45783"/>
      <path class="b" d="M38.62269,47.799a1.052,1.052,0,0,1-.06454-.36246c0-.02551.0015-.05028.003-.07579-.2512-.41705.03677-.75005.29117-.65137a1.05317,1.05317,0,0,1,.9643-.30242c.27671.19642.62979.70783.49528.97105a1.55289,1.55289,0,0,0-1.68921.421"/>
      <path class="b" d="M34.18789,47.0605c-.0105,0-.91139-.51592-.9219-.51592a.65015.65015,0,0,1,.62942-.69527,1.22807,1.22807,0,0,1,.533.22625"/>
      <path class="b" d="M33.266,46.54431a1.58779,1.58779,0,0,1-1.03709-.41049c-.00676-.03227-.3801.2544-.3891.22288-2.96461.24685-.40254-1.18214-.33432-1.45395.10724-.42725-.06978-.24914.27766-.46939a1.59582,1.59582,0,0,1,1.48059-1.08812.87474.87474,0,0,1,1.23446.54181,1.59977,1.59977,0,0,1-.06979,2.189.97121.97121,0,0,0-1.16241.46827"/>
      <path class="b" d="M26.46151,45.19607h-.00075c-.90791.02948-1.48472-.20163-1.6682-.98381a1.90925,1.90925,0,0,1,1.302-2.80059.44413.44413,0,0,1,.43478-.185.57947.57947,0,0,1,.46573.2255,1.90985,1.90985,0,0,1-.53355,3.74388"/>
      <path class="b" d="M34.4982,43.88676a1.59733,1.59733,0,0,0-1.20143-.54181h-.033a1.21357,1.21357,0,0,1-.081-1.15115.91251.91251,0,0,1,.87443-.82866,1.9618,1.9618,0,0,1,.89173.45436,1.60509,1.60509,0,0,1,.23654.23716c-.033.12082-.51461.84254-.51461.97311a1.44019,1.44019,0,0,0,.19511.72641,1.18663,1.18663,0,0,1-.36771.13058m.56958-1.84755c.006-.04578-.24117-.14624-.24117-.19352,0-.042.058-.11378.24342-.06988a1.22864,1.22864,0,0,1,.13583.13658,1.38134,1.38134,0,0,0-.13808.12682"/>
      <path class="b" d="M32.62026,42.14105a1.0755,1.0755,0,0,1-.80371-.36021,1.0224,1.0224,0,0,0-.25214-.93953c.00375-.01951.00825-.03827.01276-.05628a1.70529,1.70529,0,0,0,.59584-.70691,1.08027,1.08027,0,0,1,1.52636.94029c.16247.25408-.013.11892-.013.50914,0,.036-.39164.50616-.54376.47842a1.0693,1.0693,0,0,1-.5223.13508"/>
      <path class="b" d="M29.99377,40.95431a1.7072,1.7072,0,0,1-.72867-.56207c-.31828-.00056-.40552-.3713-.40552-.50187,0-.32569-.092-.5121.07609-.65454a1.69678,1.69678,0,0,1,3.38742.14483,1.67722,1.67722,0,0,1-.15008.69715c.17313.36573-.25386.657-.33716.97222-.01351.00975-.33213.05855-.34639.06756-.18385-.1786-.52072.20267-.79613.20267-.34444,0-.58867-.01688-.69956-.36595"/>
      <path class="b" d="M28.82782,36.44144c.06079-.50428.07945-.99664.57539-.98362l.536.01407c.13283.00075.16585.10206.28216.14934.20525.47445-1.12376,1.13689-1.39354.82021"/>
      <path class="b" d="M27.87168,34.26686,27.757,34.247c-.18385-.00076-.21-.11511-.33986-.22617.006-.00976.05732-.03828.06332-.048.05479-.91665,1.94969-1.05264,2.09024-.546s-1.23495.71388-1.16869.75036a2.95754,2.95754,0,0,1-.41755.08308"/>
      <path class="b" d="M26.08554,35.8292c-.182-.03733-.26781-.39951-.26631-.54884a.53975.53975,0,0,1,.35186-.50776c.18066.06848.24745.33657.2467.49491-.0015.22212-.13029.5238-.33225.56169"/>
      <path class="b" d="M28.69163,32.48507c-.15158,0-.17522-.1317-.3088-.18348.00713-.44594.00721-.82246.42437-.7962l.59621.03752c.21388.00075.29248.13057.4345.28966a.5519.5519,0,0,1-.5767.64781"/>
      <path class="b" d="M27.61252,31.28492c-.07645-.0319-.13029-.224-.12954-.266a.3625.3625,0,0,1,.2301-.35007.57072.57072,0,0,1,.14061.24173c-.0015.1861-.09849.36161-.24117.37437"/>
      <path class="b" d="M26.18752,27.95737c-.25721-.06754-.36733-.49321-.36733-.75436,0-.18611.08592-.481.31255-.53862.28122-.00113.478.40635.478.663a.80859.80859,0,0,1-.42324.63"/>
      <path class="b" d="M30.03027,24.72571c-.11181-.00075-.27072-.1649-.36977-.20092a.90887.90887,0,0,1,1.28773-.80746c-.05328.48627-.18385.95679-.68439.95679"/>
      <path class="b" d="M31.31421,21.91731c-.17334,0-.0923-.20449-.18648-.29811,0,0,.057-.131.14127-.38534.02176-.06566.64786.038.65006.03752.30824-.06566.233.12195.37033.18873.03546.20843-.26246.46189-.52961.46189"/>
      <path class="b" d="M31.03659,20.20536c-.04278,0-.07148-.1195-.11275-.12325.02007-.24689.30317-.39567.56882-.39567.0818,0,.31068-.04108.3497.14652.01163.28723-.18648.38647-.48215.38647"/>
      <path class="b" d="M31.71712,23.46548c-.10309-.27653.32466-.33469.46545-.36771s.35167.03049.31331.08443c.00525.02851.03.10159.03677.1301a1.90668,1.90668,0,0,1-.66216.314"/>
      <path class="b" d="M32.46469,23.2575a.96971.96971,0,0,0-.13282-.00976c-.01351-.07279-.25242-.23738-.25242-.31392,0-.409.31451-.98851.72969-.91378.64976.17506.30481.61739.26226.75559-.00225.3422-.27015.47291-.60671.48187"/>
      <path class="b" d="M32.39205,25.18628c0-.00975-.17792.09156-.18761.09268-.99431.115-1.34776-1.16372-.75343-1.47346a.96834.96834,0,0,1,.26641-.33995c.03377.00376.06829.00526.1028.006h.006a1.05183,1.05183,0,0,0,.5238-.13883c.08787-.05956.20709-.13666.20709-.13666.2582.03972,1.17912.65459.73919,1.05818a.96775.96775,0,0,1-.90426.932"/>
      <path class="b" d="M34.82636,23.15563a.62548.62548,0,0,1-.58346-.70333.669.669,0,0,1,.21725-.32325c.35232-.03452.53711.44632.53711.796a.21936.21936,0,0,1-.1709.23057"/>
      <path class="b" d="M34.92887,21.676c-.18986,0-.18385-.12682-.24952-.24858a1.23128,1.23128,0,0,1,1.18042-.835.75851.75851,0,0,1,.63712.294c.02232.4936-.84874.78964-1.371.78964"/>
      <path class="b" d="M34.59276,21.39329a1.08685,1.08685,0,0,1-.96429-1.317c.045-.00676.22287-.13639.2694-.13639a.99831.99831,0,0,1,.89732,1.02864.54079.54079,0,0,1-.20243.42474"/>
      <path class="b" d="M35.35027,19.13667c-.43675,0-.51592-.47577-.40767-.793.07129-.24557.42155-.20693.51611-.20693.478,0,1.02377.35871.96.72248-.03414.191-.27409.30092-.47746.30092"/>
      <path class="b" d="M36.74392,20.411c-.25121-.05629-.33882-.36734-.33882-.594,0-.1906.09005-.50128.28479-.53242.22944.05365.31349.40429.31349.63017,0,.17109-.06454.48233-.25946.49622"/>
      <path class="b" d="M45.74,25.24367a.967.967,0,0,1-.79921-.42324.9991.9991,0,0,1-.11841-1.18616c.14323-.29784.6878-.346.66375-.43.08255.012.74961.06775.74961.06775l.3672.24421a2.628,2.628,0,0,1,.293.74053,2.33535,2.33535,0,0,1-.1988.95859c-.119.14328-.5744-.0505-.5744-.0505a.96938.96938,0,0,1-.38271.07879"/>
      <path class="b" d="M45.1195,23.53685a.55079.55079,0,0,1-.72941-.56958c.06829-.015.16462-.13817.23742-.13817.33469,0,.78832.1923.77791.5419a.95422.95422,0,0,0-.28592.16585"/>
      <path class="b" d="M68.69491,39.2904a.2364.2364,0,0,1,.25815-.27091h.22738a.24208.24208,0,0,1,.25965.27091v3.028h1.28773l1.93535-3.11427a.33038.33038,0,0,1,.31368-.18461h.2709c.21537,0,.29192.14108.1831.32494l-2.07718,3.2651v.02327l2.22877,3.67634c.11782.17184.03152.31367-.1741.31367h-.30167a.33192.33192,0,0,1-.31368-.1861L70.72782,42.99H69.44009v3.36191a.24275.24275,0,0,1-.25965.2709h-.22738a.237.237,0,0,1-.25815-.2709Zm-7.6596,0a.24444.24444,0,0,1,.2694-.27091h.21688a.24554.24554,0,0,1,.2709.27091v4.6714a2.15792,2.15792,0,0,0,4.3142-.02176V39.2904a.24522.24522,0,0,1,.27091-.27091H66.593a.23745.23745,0,0,1,.25965.27091v4.68266a2.91169,2.91169,0,0,1-5.81731,0Zm45.08937-10.34013a.31486.31486,0,0,1,.35645-.35645h.346a.31486.31486,0,0,1,.35645.35645V31.955h3.96826V28.95027a.32076.32076,0,0,1,.3587-.35645h.3557a.31119.31119,0,0,1,.3452.35645V35.8707a.31284.31284,0,0,1-.3452.35871h-.3557a.3224.3224,0,0,1-.3587-.35871v-2.995h-3.96826v2.995a.31646.31646,0,0,1-.35645.35871h-.346a.31646.31646,0,0,1-.35645-.35871Zm-4.0478-.48552a4.18706,4.18706,0,0,1,2.53044.78869.33673.33673,0,0,1,.06453.49754l-.14108.21537a.31607.31607,0,0,1-.49678.0863,3.44994,3.44994,0,0,0-1.91358-.60485A2.7362,2.7362,0,0,0,99.2973,32.358a2.83386,2.83386,0,0,0,2.83436,3.016,3.42235,3.42235,0,0,0,2.07718-.74667.31265.31265,0,0,1,.49529.04352l.16359.21688a.33264.33264,0,0,1-.05553.49753,4.221,4.221,0,0,1-2.7143.97255,3.94688,3.94688,0,0,1-.021-7.893m-7.36168,3.7934A1.304,1.304,0,0,0,96.078,30.8421a1.2068,1.2068,0,0,0-.71365-1.18868,2.11531,2.11531,0,0,0-.908-.13057h-1.278v2.7353Zm-2.59573-3.30788a.3154.3154,0,0,1,.35721-.35645h2.05391a3.34,3.34,0,0,1,1.42732.20562,2.0759,2.0759,0,0,1,1.20143,2.00063,2.12905,2.12905,0,0,1-1.362,2.09744v.021a2.05685,2.05685,0,0,1,.22662.34669l1.37178,2.5402c.14183.25139.03227.424-.23638.424h-.43375a.42415.42415,0,0,1-.42174-.24989L94.812,33.18868H93.17832v2.682a.3154.3154,0,0,1-.355.35871h-.34669a.317.317,0,0,1-.35721-.35871Zm-3.04973,4.19564L88.227,30.72278c-.13057-.388-.29191-1.07987-.29191-1.07987h-.021s-.17485.6919-.30243,1.07987l-.85548,2.42313ZM87.26422,28.885a.37519.37519,0,0,1,.4-.29116h.52a.38254.38254,0,0,1,.39922.29116l2.50943,6.93169a.28033.28033,0,0,1-.29267.41274h-.36845a.38759.38759,0,0,1-.39923-.29342l-.68064-1.90308H86.47552L85.80463,35.936a.37742.37742,0,0,1-.391.29342h-.36545c-.27091,0-.379-.16284-.29192-.41274Zm-7.88474.06529a.3154.3154,0,0,1,.35721-.35645H83.4573a.31493.31493,0,0,1,.3557.35645v.21687a.319.319,0,0,1-.3557.35571H80.43909V31.913H82.8292a.32109.32109,0,0,1,.358.35721v.21612a.32131.32131,0,0,1-.358.358h-2.3901v2.45465h3.20207a.3141.3141,0,0,1,.35645.355v.21687a.31646.31646,0,0,1-.35645.35871H79.73669a.317.317,0,0,1-.35721-.35871Zm-6.128,6.12048.18386-.25965a.31644.31644,0,0,1,.48627-.06453,2.82266,2.82266,0,0,0,1.666.61685c.812,0,1.34026-.43225,1.34026-1.09112,0-1.68846-3.67634-1.3095-3.67634-3.68985a2.229,2.229,0,0,1,2.47641-2.1177,3.31186,3.31186,0,0,1,1.91434.58233.3437.3437,0,0,1,.10881.48777l-.15309.26941c-.12832.22813-.30092.20636-.48552.0983a2.6592,2.6592,0,0,0-1.407-.44275c-.7887,0-1.37178.409-1.37178,1.07011,0,1.64268,3.67709,1.19993,3.67709,3.65457a2.1982,2.1982,0,0,1-2.42313,2.17324A3.78216,3.78216,0,0,1,73.295,35.569a.32649.32649,0,0,1-.04353-.49828m-5.59368-6.12048a.31587.31587,0,0,1,.35871-.35645h3.71911a.3144.3144,0,0,1,.355.35645v.21687a.31846.31846,0,0,1-.355.35571H68.71743V31.913H71.109a.31979.31979,0,0,1,.35571.35721v.21612a.32.32,0,0,1-.35571.358h-2.3916v2.45465h3.20131a.31517.31517,0,0,1,.358.355v.21687a.31753.31753,0,0,1-.358.35871H68.01653a.31746.31746,0,0,1-.35871-.35871Zm-4.00577,3.30788a1.30318,1.30318,0,0,0,1.36277-1.41605,1.2068,1.2068,0,0,0-.71365-1.18868,2.11472,2.11472,0,0,0-.90877-.13057H62.11592v2.7353Zm-2.59573-3.30788a.31533.31533,0,0,1,.358-.35645h2.05391a3.34855,3.34855,0,0,1,1.42806.20562,2.0731,2.0731,0,0,1,1.19919,2.00063,2.12609,2.12609,0,0,1-1.362,2.09744v.021a2.14278,2.14278,0,0,1,.22738.34669l1.37328,2.5402c.14108.25139.03152.424-.23863.424h-.43225a.41952.41952,0,0,1-.42024-.24989l-1.4941-2.79084H62.11592v2.682a.31646.31646,0,0,1-.35645.35871h-.34519a.31693.31693,0,0,1-.358-.35871Zm37.95957-7.23186a1.303,1.303,0,0,0,1.36127-1.4168,1.20124,1.20124,0,0,0-.71215-1.18868,2.11416,2.11416,0,0,0-.90952-.13057H97.47977v2.736ZM96.42017,18.409a.31493.31493,0,0,1,.35645-.3557H98.832a3.36023,3.36023,0,0,1,1.42731.20411A2.07464,2.07464,0,0,1,101.46,20.25808a2.12692,2.12692,0,0,1-1.36353,2.09819V22.378a2.09584,2.09584,0,0,1,.22813.3467l1.37253,2.54095c.14033.24764.03227.42174-.23714.42174h-.433a.4217.4217,0,0,1-.42174-.2484l-1.4926-2.79083H97.47977v2.68127a.3154.3154,0,0,1-.35571.358h-.34744a.31563.31563,0,0,1-.35646-.358Zm-9.78856-.48477a4.20357,4.20357,0,0,1,2.53118.78719.33953.33953,0,0,1,.06529.499l-.14108.21537a.31817.31817,0,0,1-.49753.0863,3.435,3.435,0,0,0-1.91509-.6056,2.7344,2.7344,0,0,0-2.8216,2.90941,2.83181,2.83181,0,0,0,2.83361,3.01521,3.42693,3.42693,0,0,0,2.07568-.74442.31651.31651,0,0,1,.49753.042l.16284.21763a.33226.33226,0,0,1-.05478.49678,4.22241,4.22241,0,0,1-2.71429.9733,3.80485,3.80485,0,0,1-3.90372-3.99,3.77139,3.77139,0,0,1,3.882-3.90222M75.3617,18.409a.31493.31493,0,0,1,.35645-.3557h.41124a.44769.44769,0,0,1,.433.23788l3.2531,4.72544c.27091.41048.62811,1.10238.62811,1.10238h.02176s-.063-.68139-.063-1.10238V18.409a.31868.31868,0,0,1,.3557-.3557h.3467a.31553.31553,0,0,1,.35645.3557v6.92043a.31623.31623,0,0,1-.35645.358h-.41124a.43243.43243,0,0,1-.42249-.23789l-3.26435-4.71568c-.27241-.421-.62961-1.11363-.62961-1.11363h-.02026s.06528.68139.06528,1.11363v4.59561a.31593.31593,0,0,1-.35645.358h-.34745a.31563.31563,0,0,1-.35645-.358Zm-3.049,4.19564L71.46849,20.183c-.12982-.38872-.29267-1.08061-.29267-1.08061h-.02026s-.17335.69189-.30242,1.08061l-.854,2.42163Zm-1.807-4.26018a.37631.37631,0,0,1,.40073-.29116H71.425a.38292.38292,0,0,1,.40073.29116l2.50793,6.93169a.27845.27845,0,0,1-.29117.41124h-.367a.38557.38557,0,0,1-.40072-.29117l-.68139-1.90458H69.71774l-.67238,1.90458a.37087.37087,0,0,1-.38872.29117h-.36771c-.2694,0-.37746-.1621-.29041-.41124Zm-6.04318-.42023a4.20364,4.20364,0,0,1,2.53119.78719.34059.34059,0,0,1,.06453.499l-.14033.21537a.318.318,0,0,1-.49753.0863,3.43591,3.43591,0,0,0-1.91359-.60559,2.73516,2.73516,0,0,0-2.8231,2.9094,2.83137,2.83137,0,0,0,2.83361,3.01521,3.42283,3.42283,0,0,0,2.07568-.74442.31714.31714,0,0,1,.49828.042l.16209.21763a.33226.33226,0,0,1-.05478.49678,4.22241,4.22241,0,0,1-2.71429.9733,3.80443,3.80443,0,0,1-3.90372-3.99,3.771,3.771,0,0,1,3.882-3.90222m26.21614.48477a.31464.31464,0,0,1,.35646-.3557h3.72136a.31416.31416,0,0,1,.355.3557v.21688a.31868.31868,0,0,1-.355.35645H91.73826v2.39011h2.39161a.32018.32018,0,0,1,.35645.3557V21.945a.32009.32009,0,0,1-.35645.35646H91.73826v2.45464h3.20132a.31593.31593,0,0,1,.35645.358v.21538a.31533.31533,0,0,1-.35645.35795H91.03511a.31533.31533,0,0,1-.35646-.35795Z"/>
      <path class="b" d="M39.77633,22.9902a1.83034,1.83034,0,0,1-.92452-.24915.81147.81147,0,0,0-.89751-1.32525,1.84217,1.84217,0,0,1-.01951-.26715,1.87256,1.87256,0,0,1,.04652-.41349,1.01419,1.01419,0,0,0,.5996-.92752c0-.02026,0-.03978-.00151-.06a1.84267,1.84267,0,0,1,3.04,1.40105,1.854,1.854,0,0,1-.03.33169.978.978,0,0,0-.475.84123c0,.03.00076.06.00376.09a1.841,1.841,0,0,1-1.34177.57858"/>
      <path class="b" d="M28.57914,29.71321a2.50809,2.50809,0,0,1-2.39161-1.756,1.21268,1.21268,0,0,0-.05478-1.293,2.50771,2.50771,0,0,1,3.40618-1.76951,1.18447,1.18447,0,0,1,.97756.40857,1.46936,1.46936,0,0,1,.53549,1.01217c.00047.018-.04446.27522-.04446.27522a2.53452,2.53452,0,0,1,.07654.61685,2.50607,2.50607,0,0,1-2.50492,2.50568"/>
      <path class="b" d="M35.48719,16.44613a1.55226,1.55226,0,1,1,1.55263-1.54963,1.55056,1.55056,0,0,1-1.55263,1.54963"/>
      <path class="b" d="M23.61748,21.115a.905.905,0,1,1,.905-.90426.90524.90524,0,0,1-.905.90426"/>
      <path class="b" d="M34.05816,21.86052c-.0469.17148-.25815.13227-.4315.13227-.0878,0-.31874-.03321-.31218-.20356a.92054.92054,0,0,1,.31443-1.71247,1.60141,1.60141,0,0,0,.96355,1.31625.92131.92131,0,0,1-.5343.46751"/>
      <path class="b" d="M33.57059,24.28416a1.27307,1.27307,0,0,1-.27466-.03l.00076-.03452a.97029.97029,0,0,0-.83223-.962,1.057,1.057,0,0,0,.421-.83673,1.07585,1.07585,0,0,0-.07654-.40073,1.26287,1.26287,0,0,1,.505-.23113.92353.92353,0,0,0,.74442.07129,1.2743,1.2743,0,0,1,.40148.26865c-.00075.02177-.0015.04353-.0015.06529a1.43828,1.43828,0,0,0,.3677.9613,1.26163,1.26163,0,0,1-1.25546,1.12864"/>
      <path class="b" d="M25.13828,28.5659a1.21119,1.21119,0,1,1,.99431-1.90158,2.52018,2.52018,0,0,0,.05478,1.293,1.20931,1.20931,0,0,1-1.04909.60859"/>
      <path class="b" d="M43.13958,22.086c-.03,0-.06-.0015-.09005-.00375a.98375.98375,0,0,0-.85173-.73617.96945.96945,0,1,1,.94178.73992"/>
      <path class="b" d="M44.81222,16.93855a1.72727,1.72727,0,0,0-.6146-1.5849.87308.87308,0,1,1,.6146,1.5849"/>
      <path class="b" d="M43.11176,19.40529a.54131.54131,0,0,0,.02476-.16435.54667.54667,0,0,0-1.02508-.2649.8733.8733,0,0,1,.02251-.86449,1.72822,1.72822,0,0,0,1.5789.19061.88352.88352,0,0,1,.039.26115.87451.87451,0,0,1-.64011.842"/>
      <path class="b" d="M45.67461,18.63457a1.19332,1.19332,0,0,0-.66113-.19886,1.23937,1.23937,0,0,0-.22588.021.83415.83415,0,0,1-.25739-.60484.84487.84487,0,0,1,.03677-.24764,1.71452,1.71452,0,0,0,.13432-.26115.84077.84077,0,0,1,1.30875-.03377.80948.80948,0,0,0,.05178,1.01758.83724.83724,0,0,1-.38722.30767"/>
      <path class="b" d="M44.69056,16.94694c-.481,0-1.21906-.36209-1.21906-.84461,0-.30017.49715-.59171.72679-.74855a1.11133,1.11133,0,0,1,.99769,1.04741c0,.08555-.37184.45569-.38385.53749a.92772.92772,0,0,1-.12157.00826"/>
      <path class="b" d="M42.45456,18.55709c-.361,0-.04372-.25646-.32062-.44556.15233-.25365.448-.70465.76543-.70465.391,0,.7024.5403.81346.89525a2.90168,2.90168,0,0,1-.75174.2831"/>
      <path class="b" d="M44.567,17.60461a.82954.82954,0,0,1,.13432-.26115,1.71359,1.71359,0,0,1-.13432.26115"/>
      <path class="b" d="M42.09522,23.30422a.98176.98176,0,0,1-.97706-.893,1.83213,1.83213,0,0,0,.47127-.93053.98009.98009,0,0,1,.50579-.13958.93438.93438,0,0,1,.10281.00525.97212.97212,0,0,0,.85173.73542,1.00549,1.00549,0,0,1,.02927.23939.97821.97821,0,0,1-.1726.55606.55937.55937,0,0,0-.12382-.0135.54718.54718,0,0,0-.53355.42849.94639.94639,0,0,1-.15384.012"/>
      <path class="b" d="M41.11809,22.41125a.38636.38636,0,0,1-.26243-.23266c0-.35795.50492-.78877.7337-.69787.30359.1641-.13977,1.00522-.47127.93053"/>
      <path class="b" d="M43.0496,22.08184c-.342.21378-1.18275-.33662-.85173-.73542.37369-.2159,1.018.42361.85173.73542"/>
      <path class="b" d="M43.91905,15.16738c-.15384-.006-.33713.07766-.406-.15534a.33416.33416,0,0,1,.406.15534"/>
      <path class="b" d="M38.63973,19.15012a.75562.75562,0,0,1-.40073-1.39579c.02776.00225.05553.00375.08405.00375a1.00945,1.00945,0,0,0,.4525-.10656.75521.75521,0,0,1-.13582,1.4986"/>
      <path class="b" d="M32.307,18.21337c-1.09707.75807-1.23689-.65643-1.0551-.82547a.75592.75592,0,1,1,1.0551.82547"/>
      <path class="b" d="M42.24921,23.29212c-.11511-.27117.16959-.53462.43074-.53462.04277,0,.18686.11063.22588.11964.106.30717-.41813.63421-.65662.415"/>
      <path class="b" d="M16.55017,17.48259a.54631.54631,0,1,1,.54706-.5448.54718.54718,0,0,1-.54706.5448"/>
      <path class="b" d="M42.58961,19.787a.54664.54664,0,0,1-.478-.81121.8721.8721,0,0,0,.76843.46076.84414.84414,0,0,0,.23189-.03152.54624.54624,0,0,1-.5223.382"/>
      <path class="b" d="M42.33157,19.43643c-.33319,0-.07261-.18685-.21969-.46a.75589.75589,0,0,1,.614-.44162c.30242,0,.43253.36614.4556.6948a.33858.33858,0,0,1-.07007.17532,3.19034,3.19034,0,0,1-.43281.15346"/>
      <path class="b" d="M26.13567,15.19564a.54594.54594,0,1,1,.54706-.54707.54542.54542,0,0,1-.54706.54707"/>
      <path class="b" d="M34.67958,21.42746c-.02927-.0105-.05853-.02176-.08705-.03452a.90689.90689,0,0,0,.09456-.40523.91949.91949,0,0,0-1.05811-.911,1.56188,1.56188,0,0,1-.0075-.15759A1.5991,1.5991,0,0,1,34.94223,18.344a.97053.97053,0,0,0,1.47684.51479,1.60706,1.60706,0,0,1,.2709.42625,1.01946,1.01946,0,0,0,.054,1.12639,1.60194,1.60194,0,0,1-.24764.475,1.4424,1.4424,0,0,0-1.81678.541"/>
      <path class="b" d="M28.11042,22.55544a1.59989,1.59989,0,0,1-1.03034-2.82386,1.43323,1.43323,0,0,0,.65738-.33168,1.6,1.6,0,1,1,.373,3.15554"/>
      <path class="b" d="M31.128,21.61942a.96925.96925,0,0,1-.20411-1.53687c.04127.00375.084.00525.12682.00525a1.35362,1.35362,0,0,0,.7917-.25439.97134.97134,0,0,1,.4465,1.62692,1.03458,1.03458,0,0,0-.454-.10431h-.0075a1.052,1.052,0,0,0-.6994.2634"/>
      <path class="b" d="M34.12524,47.96757A.97114.97114,0,0,1,33.266,46.544l.03076.00075a1.59536,1.59536,0,0,0,1.13165-.469.97062.97062,0,0,1-.30317,1.89183"/>
      <path class="b" d="M36.4187,18.85891a1.60455,1.60455,0,0,0-1.47609-.51479.96944.96944,0,1,1,1.47609.51479"/>
      <path class="b" d="M23.06831,24.96135a.96918.96918,0,1,1,.96955-.9673.96912.96912,0,0,1-.96955.9673"/>
      <path class="b" d="M44.784,18.76241c-.22513,0-.04775-.15966.00309-.30524.02195-.0893.21266-.15778.28995-.15778.24464,0,.57211.16031.59781.33488.01726.10787-.37475.21021-.48281.21021"/>
      <path class="b" d="M17.85863,22.01131a.93579.93579,0,1,1,.938-.93579.93486.93486,0,0,1-.938.93579"/>
      <path class="b" d="M31.00721,26.59086a2.50942,2.50942,0,0,0-1.46858-1.696,1.43687,1.43687,0,0,1,.12157-.37.97416.97416,0,0,0,.31818.05554h.00375a.97035.97035,0,0,0,.9658-.863h.006a1.4394,1.4394,0,0,1,.49754.0878.96873.96873,0,0,0,.87649,1.383c.021,0,.04278-.00075.06379-.00225a1.43389,1.43389,0,0,1-1.38454,1.4048"/>
      <path class="b" d="M26.782,19.76227a1.43782,1.43782,0,1,1,.69265-2.69853.78433.78433,0,0,0,.19661.12982,1.43915,1.43915,0,0,1,.06679,2.20626,1.59848,1.59848,0,0,0-.65813.33168,1.44268,1.44268,0,0,1-.29792.03077"/>
      <path class="b" d="M27.08016,19.7314a1.59571,1.59571,0,0,1,.65738-.33169,1.4333,1.4333,0,0,1-.65738.33169"/>
      <path class="b" d="M21.96083,19.96861a1.26522,1.26522,0,1,1,1.26672-1.263,1.2644,1.2644,0,0,1-1.26672,1.263"/>
      <path class="b" d="M19.18951,26.10755a1.07874,1.07874,0,1,1,1.07761-1.07986,1.07961,1.07961,0,0,1-1.07761,1.07986"/>
      <path class="b" d="M35.89751,23.63454a1.43534,1.43534,0,0,1-1.07086-.47877,1.28793,1.28793,0,0,0,.00676-.13282,1.25468,1.25468,0,0,0-.373-.89376,1.427,1.427,0,0,1,.21912-.70165,1.6013,1.6013,0,0,0,1.81678-.54106,1.43948,1.43948,0,0,1-.59884,2.74806"/>
      <path class="b" d="M37.56451,20.82365a1.01572,1.01572,0,0,1-.82021-.41273,1.61172,1.61172,0,0,0,.07654-.49153,1.58317,1.58317,0,0,0-.13132-.63486,1.01687,1.01687,0,0,1,1.88957.463,1.84283,1.84283,0,0,0-.59734.98756,1.01923,1.01923,0,0,1-.41724.08855"/>
      <path class="b" d="M37.88537,20.6998c.0893-.391.22813-.86834.69424-.95163.00075.01951.17269.20158.17269.22109,0,.41424-.37981.89817-.73091.77979"/>
      <path class="b" d="M38.2387,17.75466a1.02,1.02,0,0,1-.64987-1.723,1.79335,1.79335,0,0,0,1.46183.75418,1.76348,1.76348,0,0,0,.29042-.024,1.02522,1.02522,0,0,1-.56582.89.738.738,0,0,0-.13583-.012.75286.75286,0,0,0-.40073.11481"/>
      <path class="b" d="M38.34861,17.88c-.02851,0-.08207-.12345-.10984-.1257.11632-.07279.0848-.19924.23188-.19924.04653,0,.2604.08893.30468.09643a.47993.47993,0,0,1-.35871.25665"/>
      <path class="b" d="M26.2688,34.18829h-.01126a.96881.96881,0,1,1,.00675-1.93761h.00376a.96886.96886,0,0,1,.96354.9628.74532.74532,0,0,0-.033.21387c0,.01426,0,.02777.00075.04128a.965.965,0,0,1-.93052.71966"/>
      <path class="b" d="M25.04342,36.42472h-.01125a1.21345,1.21345,0,0,1,.01275-2.42687h.00225a1.21531,1.21531,0,0,1,1.12414.77444,1.43333,1.43333,0,0,0-.14858.6281,1.41668,1.41668,0,0,0,.063.4285,1.20932,1.20932,0,0,1-1.04234.59583"/>
      <path class="b" d="M31.717,23.4653a1.05844,1.05844,0,0,1-.58909-1.846.96982.96982,0,0,0,1.16091-.15909,1.06242,1.06242,0,0,1,.52.55982,1.261,1.261,0,0,0-.49754,1.00332,1.2291,1.2291,0,0,0,.02027.22438h-.00376a.96312.96312,0,0,0-.61084.21762"/>
      <path class="b" d="M15.89888,30.70639h-.00525a.96994.96994,0,0,1,.0075-1.93986h.00451a.96995.96995,0,0,1-.00676,1.93986"/>
      <path class="b" d="M13.00607,26.66845h-.00225a.7268.7268,0,1,1,.006-1.45358h.0015a.7268.7268,0,0,1-.00525,1.45358"/>
      <path class="b" d="M13.35067,40.42515h-.006a.72795.72795,0,1,1,.006,0"/>
      <path class="b" d="M22.394,36.56859h-.00975a.97.97,0,1,1,.00975,0"/>
      <path class="b" d="M38.146,50.58692H38.14a.74819.74819,0,1,1,.10956-1.48885,1.55726,1.55726,0,0,0,.60259.98156.74679.74679,0,0,1-.70615.50729"/>
      <path class="b" d="M29.57053,33.42687a1.604,1.604,0,0,0-.73767-.18611h-.0045a1.59183,1.59183,0,0,0-.15909.0075.75021.75021,0,0,0-.27991-.41573.934.934,0,0,1-.00675-.5313,1.19155,1.19155,0,0,0,.43149.08029l.006.00075a1.21387,1.21387,0,0,0,1.01758-.54931.92067.92067,0,0,1-.26715,1.59391"/>
      <path class="b" d="M23.63465,31.8132H23.6204a.96805.96805,0,0,1,.00375-1.9361h.00675a.96807.96807,0,0,1,.00375,1.9361"/>
      <path class="b" d="M29.66028,24.52508a.96971.96971,0,0,1,.32043-1.88357h.009a.96851.96851,0,0,1,.96355.9748.91672.91672,0,0,1-.00526.10131,1.43823,1.43823,0,0,0-1.28773.80746"/>
      <path class="b" d="M25.3334,24.60986h-.01126a1.33465,1.33465,0,0,1,.0045-2.66927h.01051a1.33465,1.33465,0,0,1-.00375,2.66927"/>
      <path class="b" d="M27.429,33.97265a.74886.74886,0,0,1-.22963-.50354.99978.99978,0,0,0,.03227-.24314v-.01275a.74468.74468,0,0,1,1.15791-.38047.92975.92975,0,0,0,.27165.41649,1.60365,1.60365,0,0,0-1.18042.72341H27.429"/>
      <path class="b" d="M28.66138,33.24906a.91543.91543,0,0,1-.27166-.41649.749.749,0,0,1,.27916.41574l-.0075.00075"/>
      <path class="b" d="M28.82093,36.44153h-.006A1.6022,1.6022,0,0,1,28.496,36.407c-.50747.03415-1.35808-.25852-1.35508-.64349a1.66925,1.66925,0,0,1,.30961-1.76873.96371.96371,0,0,0,.70628.15569.7485.7485,0,0,0,.53581-.71365.78715.78715,0,0,0-.021-.17936.91588.91588,0,0,0,.59209.21913h.0075a.91784.91784,0,0,0,.29942-.04953,1.59979,1.59979,0,0,1,.85249,1.42281,1.58358,1.58358,0,0,1-.20187.77144,1.01112,1.01112,0,0,0-.376-.07429h-.006a1.01963,1.01963,0,0,0-1.01158.8945h-.00675"/>
      <path class="b" d="M28.38253,32.30159a1.215,1.215,0,0,1-.76994-1.01682,1.42536,1.42536,0,0,0,.10206-.5268c.00075-.02927,0-.05929-.0015-.08855A1.20878,1.20878,0,0,1,28.817,29.955h.0105a1.214,1.214,0,0,1,1.01008,1.87757.921.921,0,0,0-.56582-.19586h-.00526a.92023.92023,0,0,0-.884.66487"/>
      <path class="b" d="M26.27915,32.18842h-.009A1.4382,1.4382,0,0,1,26.2769,29.312h.0075a1.43849,1.43849,0,0,1,1.42806,1.35677,1.217,1.217,0,0,0-.10581.49078c0,.042.00225.08405.006.12532a1.43665,1.43665,0,0,1-1.33351.90352"/>
      <path class="b" d="M27.461,36.84675h-.00826a1.43939,1.43939,0,0,1-1.36727-1.01758,1.20573,1.20573,0,0,0,.16809-.6086,1.23053,1.23053,0,0,0-.08179-.448,1.437,1.437,0,0,1,1.257-.8c.01051.01051.02176.02027.033.03a1.58233,1.58233,0,0,0-.23713.82922,1.60053,1.60053,0,0,0,1.272,1.57515,1.43306,1.43306,0,0,1-1.03559.43975"/>
      <path class="b" d="M27.46177,34.00233c-.01126-.00976-.02252-.01951-.033-.03h.05178l-.01876.03"/>
      <path class="b" d="M29.84225,37.58114h-.009a1.01719,1.01719,0,0,1-1.01308-1.02283c.00075-.03977.003-.07879.00751-.11706a1.60187,1.60187,0,0,0,1.39354-.82022,1.01683,1.01683,0,0,1-.379,1.96011"/>
      <path class="b" d="M41.66012,15.75076a1.19591,1.19591,0,1,1,1.65394-1.50686.67728.67728,0,0,0,.069.62511,1.12276,1.12276,0,0,1-.02327.11331,1.76308,1.76308,0,0,0-.25364-.01876,1.72272,1.72272,0,0,0-1.44607.7872"/>
      <path class="b" d="M42.09161,16.20964c-.19436,0-.26916-.37592-.43126-.45847.30693-.47352-.05883-1.0434.54676-1.0434.0863,0,1.07041.26221,1.153.275-.13208.51555-.067,1.29488-.62535,1.29488"/>
      <path class="b" d="M43.38318,14.86916c-.07279-.10807-.194-.22034-.194-.36142,0-.0863.09494-.18715.1242-.26369.054.13658.17555.27471.17555.43079,0,.06229-.09675.13428-.10576.19432"/>
      <path class="b" d="M47.52928,22.07772c-.11012-.01979-.19473-.26256-.19473-.41039,0-.0803.13095-.235.13095-.235a.8185.8185,0,0,1,.21359.40082c0,.05178.01885.21069-.14981.24455"/>
      <path class="b" d="M46.33925,23.51963a.9674.9674,0,0,0-.93354-.14934.97005.97005,0,0,0-.8037-.42624.99.99,0,0,0-.21237.02326,1.745,1.745,0,0,1,.13657-2.24753,1.19693,1.19693,0,0,0,1.53688-.51854,1.74588,1.74588,0,0,1,1.40255,1.23145.9852.9852,0,0,0-.02777.23188.96959.96959,0,0,0,.09155.41274,1.74281,1.74281,0,0,1-.55606,1.13014.968.968,0,0,0-.63411.31218"/>
      <path class="b" d="M44.87293,21.00657c-.1741,0-.34708-.28648-.34708-.28648s.25027-.95773.7463-.95773a1.71947,1.71947,0,0,1,.79058.43919c.05065.42624-.4512.73-.9037.73"/>
      <path class="b" d="M39.07441,16.92623c-.60334,0-1.423-.27447-1.486-.89413.18536-.19286.352-.42.64087-.42.56206,0,1.36071.34763,1.11213,1.124a.08409.08409,0,0,0,0,.02626c-.09456.015-.35083.37034-.44988.37034"/>
      <path class="b" d="M48.05562,20.76031a.22173.22173,0,0,1,.21753-.13639c.01876,0,.17119.0711.1892.07185-.05093.15543-.32662.22644-.40673.06454"/>
      <path class="b" d="M49.9449,21.29784a1.43877,1.43877,0,0,1-.89376-.95829,1.43454,1.43454,0,0,0,.42174-.9733,1.19751,1.19751,0,0,0,1.67946-.66713,1.44511,1.44511,0,0,1,.49.46226,1.54862,1.54862,0,0,0-1.19393,1.50836c0,.03977.0015.07954.00375.11856a1.20839,1.20839,0,0,0-.50729.50954"/>
      <path class="b" d="M49.7562,19.63092c-.19811,0-.28347-.2649-.28347-.2649.00075-.015.00075-.03077.00075-.04578a1.441,1.441,0,0,0-.054-.39247c.02514-.37146.451-.58758.848-.58758.2604,0,.74424.06435.88551.3587.04746.55119-.636.9461-1.15754.9461"/>
      <path class="b" d="M49.05123,20.33943c-.03527-.12532-.25571-.3512-.25571-.48853,0-.27916.14521-.624.41855-.66638.07729.07129.39885.025.49341.07373-.012.37972-.31106,1.04628-.65625,1.08118"/>
      <path class="b" d="M49.47288,19.36594a2.50231,2.50231,0,0,1-.39022-.21837.44383.44383,0,0,1,.33694-.21988c.19.07373.2135.36452.2135.50035,0,.01576-.30486.04953-.30561.06454"/>
      <path class="b" d="M48.832,18.20687c-.12044.22344-.73767-.10769-.65888-.31893.1-.18236.60954-.04991.66788.24088-.00375.02552-.00675.05178-.009.078"/>
      <path class="b" d="M48.83086,18.32365c-.02026,0-.10384-.02185-.12335-.02335.00225-.02552.10609-.30271.10985-.32822.036.024.24482.22851.27784.25627-.01726.00075-.16659.06013-.1846.06013"/>
      <path class="b" d="M48.9454,18.20728a1.18853,1.18853,0,0,0-.10506-.078c-.20017-.72792.52211-1.27517,1.01083-1.00783.00525.03978.13882.21631.13882.25684,0,.51554-.50766,1.08267-1.04459.829"/>
      <path class="b" d="M46.6627,18.59536a.80447.80447,0,0,1-.60109-.26865.83894.83894,0,0,0-.05178-1.01683.77548.77548,0,0,1,.063-.07654,1.17243,1.17243,0,0,0,.84723.35945,1.18546,1.18546,0,0,0,.49228-.10656.81329.81329,0,0,1,.02626.5253,1.44534,1.44534,0,0,0-.63786.57183.76258.76258,0,0,1-.13808.012"/>
      <path class="b" d="M46.06168,18.327c-.12907-.14333-.39941-.34182-.39941-.54894a.54156.54156,0,0,1,.34763-.46864.55781.55781,0,0,1,.38178.54725c0,.17635-.23694.33525-.33.47033"/>
      <path class="b" d="M46.8007,18.58355c-.10862-.278.273-.68008.63787-.57258.13564.23714-.39735.83823-.63787.57258"/>
      <path class="b" d="M40.60053,19.08055a1.051,1.051,0,1,1,1.05134-1.05135,1.05112,1.05112,0,0,1-1.05134,1.05135"/>
      <path class="b" d="M31.71479,15.99383a1.04985,1.04985,0,1,1,1.0491-1.04984,1.05142,1.05142,0,0,1-1.0491,1.04984"/>
      <path class="b" d="M28.00123,17.2665a.77851.77851,0,0,1-.32944-.07279,1.563,1.563,0,0,0-.19661-.12983.788.788,0,1,1,.526.20262"/>
      <path class="b" d="M27.67149,17.19386a.80557.80557,0,0,1-.19661-.12983,1.36969,1.36969,0,0,1,.19661.12983"/>
      <path class="b" d="M47.96992,16.95184a.95592.95592,0,0,1,.069-.1636,1.16026,1.16026,0,0,1-.069.1636"/>
      <path class="b" d="M46.34766,17.63951c-.13545-.05159-.27428-.4056-.27428-.4056-.02176-.22325.31424-.43337.54687-.43337.33994,0,.91646.31255.79189.68551-.07429.345-.4011.266-.5767.266"/>
      <path class="b" d="M51.84964,45.45632c-.018,0-.036,0-.05328-.00076a1.64005,1.64005,0,0,0-1.57815-1.19467c-.02026,0-.04052.00075-.06.0015a1.79576,1.79576,0,0,1,.26265-1.68471.989.989,0,0,0,.26415.036.976.976,0,0,0,.947-.73092,1.73925,1.73925,0,0,1,.21762-.01275,1.78643,1.78643,0,0,1,1.16241.42624.9198.9198,0,0,0-.15834-.01351.9703.9703,0,1,0,.78269,1.54213,1.79292,1.79292,0,0,1-1.78676,1.63143"/>
      <path class="b" d="M39.88612,45.34112a1.84215,1.84215,0,0,1-1.5939-1.08211,1.19835,1.19835,0,0,0,.22437-1.88808,1.84064,1.84064,0,0,1,2.664-.26114c.25181-.02758.556.14684.556.21663,0,.42024.22435.59322.05855.90525a1.86818,1.86818,0,0,1-.03977.73617c.17643.64163-1.0634,1.70235-1.86932,1.37328"/>
      <path class="b" d="M21.39785,30.26719A1.293,1.293,0,1,1,22.68858,28.975a1.29451,1.29451,0,0,1-1.29073,1.29224"/>
      <path class="b" d="M39.77633,50.38635a1.53646,1.53646,0,0,1-.92377-.30693.73887.73887,0,0,0,.039-.23563.74981.74981,0,0,0-.64161-.74592,1.55326,1.55326,0,0,1,.373-1.299.73938.73938,0,0,1,.7992-.61723c.502,0,.95117-.55681,1.14459.08893.10956.078.29773.53955.4223.59434a1.55206,1.55206,0,0,1-1.21269,2.52143"/>
      <path class="b" d="M35.6134,50.94752a1.54987,1.54987,0,0,1-.349-3.06024,1.01846,1.01846,0,0,0,1.59316.58458,1.54833,1.54833,0,0,1-1.24421,2.47566"/>
      <path class="b" d="M48.11665,42.77381a1.94338,1.94338,0,0,1-.388-.039v-.0105a1.748,1.748,0,0,0-1.40254-1.71323,1.10419,1.10419,0,0,0,.14858-.31968,1.11575,1.11575,0,0,0-.06206-.78206,1.93209,1.93209,0,0,1,.18663-.282.97114.97114,0,0,0,1.16391-.6994,1.93947,1.93947,0,0,1,2.2918,1.90834c0,.02026,0,.03977-.00075.06a.975.975,0,0,0-.34444.74442.98924.98924,0,0,0,.033.25065,1.91621,1.91621,0,0,1-.23939.29866.96911.96911,0,0,0-1.34176.58309c-.015.00075-.03.00075-.045.00075"/>
      <path class="b" d="M49.08508,44.03658a.97077.97077,0,0,1-.923-1.263,1.93373,1.93373,0,0,0,1.341-.58308.97036.97036,0,0,1-.418,1.846"/>
      <path class="b" d="M53.63632,43.825a1.101,1.101,0,0,1-.67726-.62642c-.03181-.0833-.0885-.15789.05291-.9022a.96944.96944,0,0,1,.62435,1.52862"/>
      <path class="b" d="M52.85372,44.22354a.9703.9703,0,0,1,0-1.9406.9198.9198,0,0,1,.15834.01351,1.78781,1.78781,0,0,1,.63186,1.36653c0,.054-.003.10881-.00751.16209a.96739.96739,0,0,1-.78269.39847"/>
      <path class="b" d="M33.18248,42.19418a.9655.9655,0,0,1-.03977-.18836,1.07959,1.07959,0,0,0,.55757-.94479c0-.01425,0-.02776-.00075-.042a.96839.96839,0,0,1,1.37028.75718c-.34295.17166-.48628-.28966-.7857-.28966a1.20853,1.20853,0,0,0-1.10163.70765"/>
      <path class="b" d="M21.99662,44.07308a1.21156,1.21156,0,0,1,0-2.42312,1.04688,1.04688,0,0,1,.10882.00525.79548.79548,0,0,1,1.09412,1.05285,1.30578,1.30578,0,0,1,.00975.15459,1.2098,1.2098,0,0,1-1.21269,1.21043"/>
      <path class="b" d="M25.64588,45.64085a.97134.97134,0,0,1-.854-1.42806,1.90942,1.90942,0,0,0,1.669.98306.97017.97017,0,0,1-.815.445"/>
      <path class="b" d="M28.36984,40.99219a.96881.96881,0,1,1,.56583-1.756c-.00451.04727-.006.0953-.006.14408a1.68829,1.68829,0,0,0,.33544,1.01232.96564.96564,0,0,1-.89526.5996"/>
      <path class="b" d="M17.96549,46.55534a.96955.96955,0,1,1,.9703-.9673.96863.96863,0,0,1-.9703.9673"/>
      <path class="b" d="M19.49013,41.54607a.97068.97068,0,1,1,.97106-.971.9712.9712,0,0,1-.97106.971"/>
      <path class="b" d="M46.59949,39.62741a.96819.96819,0,1,1,1.16317-.6994,1.94024,1.94024,0,0,0-1.16317.6994"/>
      <path class="b" d="M43.33371,44.50413a1.04723,1.04723,0,0,1-.15458-.012c-.31576.20228-.73119-.14943-.63036-.38947a.96673.96673,0,0,1-.18536-.57032.99261.99261,0,0,1,.039-.27316c-.09626-.32552.4257-.79655.67838-.66337a.97085.97085,0,1,1,.25289,1.90833"/>
      <path class="b" d="M31.73859,45.29417c-.27841-.24538.06514,1.26145-.31987,1.22789a1.06986,1.06986,0,0,1,.09174-2.12765.95977.95977,0,0,1,.2724.039,1.62066,1.62066,0,0,0-.04427.86073"/>
      <path class="b" d="M28.4767,50.19453a.97031.97031,0,1,1,.971-.9703.97169.97169,0,0,1-.971.9703"/>
      <path class="b" d="M44.884,49.44575a.87079.87079,0,0,1-.64761-1.45508,1.40851,1.40851,0,0,0,1.413.16285.87075.87075,0,0,1-.76544,1.29223"/>
      <path class="b" d="M45.64909,48.15334a.87365.87365,0,0,0-1.413-.16284,1.40845,1.40845,0,0,1-.56507-1.12864V46.8371a2.01356,2.01356,0,0,0,.17035-.64762,1.41549,1.41549,0,0,1,.40223-.46151,1.20141,1.20141,0,0,0,1.822.12457,1.40451,1.40451,0,0,1,.38047.65587.81142.81142,0,0,0,.00375.68964q-.009.03714-.02026.07429a1.18832,1.18832,0,0,0-.46226.68664,1.41733,1.41733,0,0,1-.31819.19436"/>
      <path class="b" d="M50.42083,42.57745a.97746.97746,0,0,1-.67763-.68589,1.92715,1.92715,0,0,0,.31143-.99581.97643.97643,0,0,1,1.60816.74442.95371.95371,0,0,1-.03077.24239,1.79568,1.79568,0,0,0-1.21119.69489"/>
      <path class="b" d="M28.36984,38.63322a.67764.67764,0,1,1,.67764-.67688.67816.67816,0,0,1-.67764.67688"/>
      <path class="b" d="M42.14084,43.29426a.97921.97921,0,0,1-.34595-.063,1.84084,1.84084,0,0,0-.61385-1.12113.98242.98242,0,0,1,.9598-.7797.96544.96544,0,0,1,.28066.04128.53682.53682,0,0,0-.02552.16359.546.546,0,0,0,.6934.5268.95815.95815,0,0,1,.03226.25139.97557.97557,0,0,1-.04127.28216.97142.97142,0,0,0-.67763.66338.97217.97217,0,0,1-.2619.03527"/>
      <path class="b" d="M44.88005,41.37093a1.08981,1.08981,0,0,1-.18536-.12307.73252.73252,0,0,0-.40673-.7827,1.11508,1.11508,0,0,1,1.11138-1.19768,1.13487,1.13487,0,0,1,.30918.04352,1.1086,1.1086,0,0,1,.7039.59809,1.93161,1.93161,0,0,0-.23563.92678c0,.05178.00217.10179.00592.15282a1.73571,1.73571,0,0,0-1.30266.38224"/>
      <path class="b" d="M43.08961,42.06222c-.54258.31437-1.11691-.23492-.66788-.69114a.54794.54794,0,0,1,.81947-.29342.73461.73461,0,0,0,.23413.58608.54868.54868,0,0,1-.38572.39848"/>
      <path class="b" d="M46.27368,50.1233a.54631.54631,0,0,1-.03-1.09187,1.18082,1.18082,0,0,0,.53581.337.554.554,0,0,1,.04127.20936.54493.54493,0,0,1-.54706.54556"/>
      <path class="b" d="M30.548,44.50894a1.15636,1.15636,0,0,1-.427-2.231,1.02077,1.02077,0,0,0,1.15641.17785,1.1556,1.1556,0,0,1-.72942,2.05317"/>
      <path class="b" d="M21.94514,47.16671a.711.711,0,1,1,.70991-.7099.70843.70843,0,0,1-.70991.7099"/>
      <path class="b" d="M26.99492,41.452a1.92537,1.92537,0,0,0-.53355-.075,1.96128,1.96128,0,0,0-.36621.03452.53414.53414,0,0,1-.08329-.28966.54669.54669,0,1,1,.98305.33019"/>
      <path class="b" d="M27.98181,24.41158a.54781.54781,0,1,1,.54631-.54706.54894.54894,0,0,1-.54631.54706"/>
      <path class="b" d="M38.85188,22.74121c-.6767-.0166-.93925-.69846-.89751-1.32525a.54606.54606,0,0,1,.3557-.147,1.01051,1.01051,0,0,1,.89329.94554c0,.22963-.10778.50081-.35148.5267"/>
      <path class="b" d="M39.00946,51.80315a.70127.70127,0,1,1,.7009-.70165.70137.70137,0,0,1-.7009.70165"/>
      <path class="b" d="M50.21814,47.53991A1.64043,1.64043,0,0,1,48.619,46.26719a1.247,1.247,0,0,0,.61685-1.67946,1.62974,1.62974,0,0,1,.92227-.32568,1.79437,1.79437,0,0,0,1.63818,1.19318,1.642,1.642,0,0,1-1.57814,2.08468"/>
      <path class="b" d="M46.06551,45.85228a1.409,1.409,0,0,0-1.822-.12457,1.18211,1.18211,0,0,1-.23263-.70615,1.19841,1.19841,0,0,1,.70765-1.09488,1.09406,1.09406,0,0,1,.94085-.43768c.0938,0,.688.6585.599.95848a1.19487,1.19487,0,0,1-.19286,1.4048"/>
      <path class="b" d="M37.684,44.42562h-.01351c-.83335.21181-.63054-.38534-.82866-.4919.20337-.24764.70559-.55644.70559-.90389a1.43432,1.43432,0,0,0-.32193-.90651,1.20014,1.20014,0,0,1,1.29073.24764,1.12878,1.12878,0,0,1,.68289.99956c0,.26941-.49566.89189-.90727.88851a1.185,1.185,0,0,1-.60784.16659"/>
      <path class="b" d="M35.80552,44.43671a1.43982,1.43982,0,0,1-.93954-.68064,1.21292,1.21292,0,0,0,.62736-1.0626,1.19811,1.19811,0,0,0-.28741-.7812,1.43713,1.43713,0,0,1,2.0194.21162.77242.77242,0,0,1,.58889.8099,3.1043,3.1043,0,0,1-.97518,1.61042,1.45712,1.45712,0,0,1-1.03352-.1075"/>
      <path class="b" d="M34.8662,43.75618a1.43327,1.43327,0,0,1-.19586-.72642,1.45867,1.45867,0,0,1,.05028-.37746.96738.96738,0,0,0,.3467-.6131,1.47026,1.47026,0,0,1,.13808-.12682.93057.93057,0,0,1,.58364.7992c0,.45851-.46,1.14309-.92284,1.0446"/>
      <path class="b" d="M34.72078,42.65257a1.43569,1.43569,0,0,1,.3467-.6131.96927.96927,0,0,1-.3467.6131"/>
      <path class="b" d="M24.82964,40.20168a1.69634,1.69634,0,1,1,1.69671-1.699,1.69757,1.69757,0,0,1-1.69671,1.699"/>
      <path class="b" d="M19.167,37.72221a1.1793,1.1793,0,1,1,1.17817-1.17967A1.17985,1.17985,0,0,1,19.167,37.72221"/>
      <path class="b" d="M36.703,45.85956a1.01986,1.01986,0,0,1-.89751-1.42281,1.46643,1.46643,0,0,0,.30617.03227,1.43266,1.43266,0,0,0,.85474-.28216,1.19373,1.19373,0,0,0,.7039.23863,1.00877,1.00877,0,0,1,.08855.415,1.02147,1.02147,0,0,1-.14934.5328,1.193,1.193,0,0,0-.90651.48628"/>
      <path class="b" d="M21.20236,33.38436a1.33667,1.33667,0,0,1-.027-2.673h.02927a1.33669,1.33669,0,0,1,.03076,2.673h-.033"/>
      <path class="b" d="M36.85776,48.47172a1.54946,1.54946,0,0,0-1.24421-.62361,1.57419,1.57419,0,0,0-.34895.039,1.02069,1.02069,0,0,1,.99132-1.254,1.04717,1.04717,0,0,1,.21837.02326,1.19791,1.19791,0,0,0,.79771,1.04235,1.01906,1.01906,0,0,1-.41424.77294"/>
      <path class="b" d="M31.27722,42.45553c-.19886.32286-.39281.28168-.66972.28168a.56045.56045,0,0,1-.48594-.45878,1.02066,1.02066,0,0,1-.12757-1.32376,1.70142,1.70142,0,0,0,1.54213-.14258l.02776.02852c-.01426.07129.36295.052.36295.12776a1.32919,1.32919,0,0,1-.1108.81252,1.02135,1.02135,0,0,1-.53881.67464"/>
      <path class="b" d="M31.69162,50.70637A1.01871,1.01871,0,1,1,32.71,49.688a1.01748,1.01748,0,0,1-1.01833,1.01833"/>
      <path class="b" d="M42.39486,51.159a1.1958,1.1958,0,1,1,1.19768-1.19317A1.19635,1.19635,0,0,1,42.39486,51.159"/>
      <path class="b" d="M37.6659,47.76508a1.18026,1.18026,0,0,1-.394-.06679c.00075-.01576.00075-.03152.00075-.04728a1.0181,1.0181,0,0,0-.79845-.99431c-.00225-.02927-.00375-.05854-.00375-.08855a1.18888,1.18888,0,0,1,.23263-.70841c.012,0,.25383-.49171.26659-.49171.36846,0,.4465-.167.63993.00469.01876-.00075.03752-.00075.05628-.00075a1.19475,1.19475,0,0,1,1.19468,1.19618,1.26081,1.26081,0,0,1-.00826.14108,1.04308,1.04308,0,0,0-.29116.65212,1.19063,1.19063,0,0,1-.89526.40373"/>
      <path class="b" d="M46.25859,44.44747a1.19654,1.19654,0,0,0-1.53988-.52079,1.74707,1.74707,0,0,1,.16134-2.556c.01051-.218.1529-.43262.2287-.41085.28749-.10614.76063-.38492,1.074.02884l.02109.17189a1.94038,1.94038,0,0,0,1.52486,1.5744,1.74394,1.74394,0,0,1-1.47008,1.71247"/>
      <path class="b" d="M41.81463,48.03907a2.03353,2.03353,0,0,1-.82547-.1741A1.96791,1.96791,0,0,1,39.817,46.40689a2.00033,2.00033,0,0,1-.04053-.40523,2.025,2.025,0,0,1,.10957-.66038c.02851.00075.057.0015.08555.0015a1.84448,1.84448,0,0,0,1.78376-1.37553l.05928-.00075a2.03414,2.03414,0,0,1,.73392.13658.9698.9698,0,0,0,.63111.38872,2.02876,2.02876,0,0,1,.67013,1.50986c0,.063-.003.12607-.00826.18761a1.41012,1.41012,0,0,0-.17034.64836,2.02932,2.02932,0,0,1-.19586.3422c-.2423.939-.83385,1.12064-1.44157.84723a1.93117,1.93117,0,0,1-.21913.012"/>
      <path class="b" d="M23.43805,42.72787c-.01651,0-.03377,0-.051-.00075a1.39409,1.39409,0,0,1-.18761-.01951A1.21048,1.21048,0,0,0,22.106,41.65476a1.33971,1.33971,0,0,1-.03-.33094,1.3597,1.3597,0,0,1,1.356-1.31025c.01576,0,.033.00075.04878.00151a1.35678,1.35678,0,0,1-.04277,2.71279"/>
      <path class="b" d="M30.92356,20.08216a1.35772,1.35772,0,1,1,.32793-2.69479.81862.81862,0,0,0-.012.13658.757.757,0,0,0,1.06785.68964,1.344,1.344,0,0,1,.10056.51405,1.3597,1.3597,0,0,1-.56582,1.10537.98675.98675,0,0,0-.23714-.02926.96774.96774,0,0,0-.68138.27841"/>
      <path class="b" d="M48.472,48.54711a.82212.82212,0,0,1-.21162-.027c-.28848.01126-.59485-.02842-.59485-.12672,0-.376-.45493-.95019.17912-1.08672a.81061.81061,0,0,0,.12307-.28141.8448.8448,0,1,1,.50428,1.52187"/>
      <path class="b" d="M47.36,47.85677a.79461.79461,0,0,0-.53561-.13059c-.23563,0-.32948-.22538-.35083-.48338-.00826-.015-.01576-.03-.02327-.045a1.43653,1.43653,0,0,0-.0045-.68964.81119.81119,0,0,1,.73392-.46827.82585.82585,0,0,1,.0968.006.31819.31819,0,0,1,.5238.28591.80988.80988,0,0,1,.16735.69414.43147.43147,0,0,1,.00588.39308"/>
      <path class="b" d="M30.71126,48.0092a1.55292,1.55292,0,0,1-.28141-3.07975,1.5295,1.5295,0,0,1,.22513-.024.95492.95492,0,0,0-.11482.45626.97087.97087,0,0,0,1.62768.71365c.01951.02027.04052.03978.06153.05854l.00826.04127a1.553,1.553,0,0,1-1.24421,1.80853,1.57186,1.57186,0,0,1-.28216.02551"/>
      <path class="b" d="M16.17317,35.06435a.66113.66113,0,1,1,.12157-.01126.67822.67822,0,0,1-.12157.01126"/>
      <path class="b" d="M19.085,30.03236a.53909.53909,0,0,1-.096-1.06936.51252.51252,0,0,1,.0953-.009.54143.54143,0,0,1,.5298.442.5342.5342,0,0,1-.43074.62735.55015.55015,0,0,1-.09831.009"/>
      <path class="b" d="M47.1128,49.41612a1.19725,1.19725,0,0,1-.33394-.048.54612.54612,0,0,0-.505-.33769l-.03.00075a1.17674,1.17674,0,0,1-.30843-.797,1.15282,1.15282,0,0,1,.03227-.2754,1.41916,1.41916,0,0,0,.46226-.68589c.01426-.01051.02852-.02026.04353-.03a.80937.80937,0,0,0,1.17817.2604.82894.82894,0,0,0-.02327.19886.84506.84506,0,0,0,.63186.818,1.18132,1.18132,0,0,1-1.1474.896"/>
      <path class="b" d="M51.9281,22.29658c-.60409,0-1.48828-.31161-1.41587-.91908-.0197-.41536.58177-.64574,1.08193-.79714a1.39765,1.39765,0,0,1,.73035,1.24008.46456.46456,0,0,1-.17973.39435c-.048.0045-.411.08648-.46057.08648"/>
      <path class="b" d="M51.58946,20.80533a3.49758,3.49758,0,0,1-.67445.01182c-.19886,0-.288.05347-.46245-.02908a.4378.4378,0,0,1-.20149-.30617c0-.73317,1.07236-1.42206,1.39092-1.32.49415.18685.33112.70952.33112.99844,0,.32343-.087.63542-.38365.645"/>
      <path class="b" d="M50.43636,21.38349a1.43962,1.43962,0,0,1-.49153-.08555c-.11884-.3996.01914-.95027.4799-.69245a.5471.5471,0,0,1,.191.76675,1.42152,1.42152,0,0,1-.17935.01125"/>
      <path class="b" d="M50.6154,21.3725a1.54883,1.54883,0,0,1-.16284-.58383,1.1786,1.1786,0,0,1,.55156-.13583,1.1971,1.1971,0,0,1,.58534.15234,1.43649,1.43649,0,0,1-.97406.56732"/>
      <path class="b" d="M47.96157,22.82748c-.26941,0-.24258-.479-.24258-.479a.7857.7857,0,0,1,.81271-.76037c.15459,0,.75418.07335.82022.29285.212.39942-.52624.95586-.987.95586"/>
      <path class="b" d="M50.41662,22.89c-.30073.07167-.76712-.59912-.57558-.77219.27119-.06576.75052.45851.57558.77219"/>
      <path class="b" d="M46.39073,23.56355c-.01651-.015-.03377-.03-.05178-.04353-.02588-.27177.35693-.47763.63411-.31292.05154.201-.29506.48177-.58233.35645"/>
      <path class="b" d="M47.89632,24.6509a1.31153,1.31153,0,0,1-.74121-1.15636.3061.3061,0,0,1,.16563-.25369.86222.86222,0,0,1,.98837.71089c0,.1741-.15266.65682-.41279.69916"/>
      <path class="b" d="M44.602,24.881a.96864.96864,0,0,1-.21237-1.91359,1.75519,1.75519,0,0,0,.73016.56958.964.964,0,0,0-.17935,1.28323.97044.97044,0,0,1-.33844.06078"/>
      <path class="b" d="M47.07978,26.26612a.9664.9664,0,0,1-.9658-.9673,1.002,1.002,0,0,1,.009-.13433.97281.97281,0,0,0,.32944-.23488.96691.96691,0,0,0,1.4003-.20937.96655.96655,0,0,1-.77294,1.54588"/>
      <path class="b" d="M46.8,25.22007c-.22813,0-.2982-.12522-.34722-.29046a.96914.96914,0,0,0,.24389-.517.54662.54662,0,0,1,.42658-.23874c.31593,0,.67618.41434.72907.54641-.005.28018-.39637.52637-.7273.52637"/>
      <path class="b" d="M43.94705,15.16792l-.02776-.00075a1.73223,1.73223,0,0,0-.406-.15458.65531.65531,0,0,1-.12983-.14333,1.23972,1.23972,0,0,0,.01351-.18386,1.19534,1.19534,0,0,0-.0833-.44125.67876.67876,0,1,1,.63336.92377"/>
      <path class="b" d="M43.71255,18.30232a.87054.87054,0,0,0-1.5789-.19136,1.72427,1.72427,0,0,1-.47352-2.36009,1.19711,1.19711,0,0,0,1.69972-.76844c.05178.00751.1028.018.15308.03a.67868.67868,0,0,0,.406.15459,1.75833,1.75833,0,0,1,.27916.18685.87293.87293,0,0,0,.49228,1.59316.92772.92772,0,0,0,.12157-.00825,1.69562,1.69562,0,0,1-.11031.40448.83752.83752,0,0,0-.13433.26114,1.72842,1.72842,0,0,1-.85473.6979"/>
      <path class="b" d="M39.341,16.76212v-.02551a1.01847,1.01847,0,0,0-1.75225-.70465,1.79326,1.79326,0,1,1,1.75225.73016"/>
      <path class="b" d="M38.29094,22.967a.81222.81222,0,0,1-.33694-1.55113,1.84546,1.84546,0,0,0,.89751,1.32526.80765.80765,0,0,1-.56057.22587"/>
      <path class="b" d="M42.78292,23.95832a.54622.54622,0,0,1-.54631-.54781.563.563,0,0,1,.01275-.11857.98516.98516,0,0,0,.65663-.415.54767.54767,0,0,1-.12307,1.08136"/>
      <path class="b" d="M44.526,20.72009a1.19417,1.19417,0,0,1,.26115-2.26328.83459.83459,0,0,0,.58083.23563.85164.85164,0,0,0,.30692-.05778,1.195,1.195,0,0,1,.388,1.56689,1.74432,1.74432,0,0,0-1.53687.51854"/>
      <path class="b" d="M47.41207,17.48589a.80759.80759,0,0,0-1.33876-.25214,1.17877,1.17877,0,1,1,1.96537-.44575.95456.95456,0,0,0-.069.16359,1.17806,1.17806,0,0,1-.55757.5343"/>
      <path class="b" d="M48.84072,18.12887a1.42343,1.42343,0,0,0-.66713-.24089.96295.96295,0,0,1-.20336-.93653,1.17242,1.17242,0,0,0,.06828-.1636.96768.96768,0,0,1,1.813.33394,1.19477,1.19477,0,0,0-1.01082,1.00708"/>
      <path class="b" d="M48.03561,20.76053a1.44036,1.44036,0,0,1-1.23521-2.177.81113.81113,0,0,0,.63787-.57258,1.43209,1.43209,0,0,1,.59734-.12907c.04652,0,.0923.0015.13807.006a.96215.96215,0,0,0,.65813.31893c-.00225.03227-.00375.06454-.00375.09756a1.19336,1.19336,0,0,0,.38571.88025,1.43374,1.43374,0,0,0-.21687.76018,1.45336,1.45336,0,0,0,.054.39473,1.43412,1.43412,0,0,1-.58833.35645c-.01876-.0015-.03677-.0015-.05553-.0015a.95822.95822,0,0,0-.3512.066h-.02026"/>
      <path class="b" d="M49.21406,19.18475c-.34032.063-.52643-.49453-.52643-.84348,0-.03227.14146-.10206.14446-.13433.01951.0015.03977.0015.06.0015.018,0,.036,0,.05328-.0015.44951-.01707.72548.25158.47352.72116a1.47251,1.47251,0,0,0-.20486.25665"/>
      <path class="b" d="M49.4193,18.92784a1.44365,1.44365,0,0,0-.47352-.72041.967.967,0,0,0,.91327-.965.91678.91678,0,0,0-.00751-.12082,1.17961,1.17961,0,0,1,.17185-.012,1.19542,1.19542,0,0,1,1.12939,1.5894,1.44537,1.44537,0,0,0-1.73348.22888"/>
      <path class="b" d="M52.14509,22.21481a1.184,1.184,0,0,0,.05778-.36621,1.19717,1.19717,0,0,0-.6131-1.04309,1.44221,1.44221,0,0,0,.05253-1.64419,1.58735,1.58735,0,0,1,.35645-.04052,1.5504,1.5504,0,0,1,.14634,3.094"/>
      <path class="b" d="M51.0039,23.04516a1.1819,1.1819,0,0,1-.58759-.15534,1.5879,1.5879,0,0,0-.57557-.77144,1.19187,1.19187,0,0,1,.10431-.82021,1.45482,1.45482,0,0,0,.49153.08554,1.4099,1.4099,0,0,0,.1786-.01125,1.54809,1.54809,0,0,0,1.383.84948c.04953,0,.09831-.00225.14709-.00675a1.20024,1.20024,0,0,1-1.1414.83"/>
      <path class="b" d="M47.71861,22.34837a.96637.96637,0,0,1-.18911-.27091c.00375-.05028.00675-.10131.00675-.15308a1.73693,1.73693,0,0,0-.07054-.49153.97518.97518,0,0,1,.58984-.67239,1.45455,1.45455,0,0,0,.40673-.06453.97194.97194,0,0,1,.89,1.18492,1.61541,1.61541,0,0,0-.44576-.06228,1.59113,1.59113,0,0,0-1.18792.5298"/>
      <path class="b" d="M48.9067,25.01072a1.59326,1.59326,0,0,1-1.01008-.35945.9687.9687,0,0,0-.57632-1.4108,1.59484,1.59484,0,0,1,.39847-.89226.96963.96963,0,0,0,1.63368-.46752,1.58768,1.58768,0,0,1,.48853.23714,1.19945,1.19945,0,0,0,.57558.77219,1.59825,1.59825,0,0,1-1.50986,2.1207"/>
      <path class="b" d="M47.85256,24.72033a.96475.96475,0,0,0-1.15641-.30767.8979.8979,0,0,0,.00975-.13583.96208.96208,0,0,0-.31517-.7129,1.751,1.751,0,0,0,.58233-.35645c.027-.00226.05478-.00376.08254-.00376a.96525.96525,0,0,1,.2649.03677,1.68419,1.68419,0,0,0-.00975.17485,1.59284,1.59284,0,0,0,.58533,1.236c-.01351.02326-.02776.04652-.04352.069"/>
      <path class="b" d="M42.88032,48.68919a.87141.87141,0,0,1-.84723-.66188,2.03348,2.03348,0,0,0,1.44232-.848.87234.87234,0,0,1-.59509,1.50986"/>
      <path class="b" d="M48.11665,46.37282a1.24857,1.24857,0,0,1-.31593-.04052.80814.80814,0,0,0-.52379-.28666,1.24265,1.24265,0,1,1,1.95861-1.45808,1.64035,1.64035,0,0,0-.61685,1.67945,1.2279,1.2279,0,0,1-.502.10581"/>
    </g>
  </g>
</svg>
