<svg xmlns="http://www.w3.org/2000/svg" viewBox="0 0 150.45265 58">
  <defs>
    <style>
      .a {
        fill: #fff;
        opacity: 0.76;
      }
    </style>
  </defs>
  <title>logo-c++</title>
  <path class="a" d="M94.16165,19.789a3.75677,3.75677,0,0,0-.46191-1.89381,3.61812,3.61812,0,0,0-1.37031-1.33182L77.20207,7.84872a3.71061,3.71061,0,0,0-4.02626.0385c-2.00929,1.18555-12.0557,6.92856-15.05038,8.67609A3.4951,3.4951,0,0,0,56.29321,19.789V37.3259a3.77218,3.77218,0,0,0,.4619,1.85532,3.6029,3.6029,0,0,0,1.39341,1.37031c2.99468,1.73214,13.0411,7.49055,15.05038,8.6761a3.71059,3.71059,0,0,0,4.02626.03849l15.10427-8.71458a3.60289,3.60289,0,0,0,1.378-1.37032,3.77992,3.77992,0,0,0,.43881-1.85532S94.16165,25.63973,94.16165,19.789ZM75.23128,41.13661A12.57919,12.57919,0,1,1,86.11682,22.26013l-5.49666,3.15635a6.2588,6.2588,0,1,0,.06928,6.22031l5.46587,3.164A12.57148,12.57148,0,0,1,75.23128,41.13661ZM87.87205,29.26568h-1.4396v1.4396h-1.4473v-1.4396h-1.4396v-1.4781h1.4396v-1.4011h1.4396v1.4011h1.4396Zm5.2965,0H91.729v1.4396h-1.4473v-1.4396h-1.4396v-1.4781h1.4396v-1.4011h1.4396v1.4011h1.4473Z"/>
</svg>
