<svg xmlns="http://www.w3.org/2000/svg" viewBox="0 0 150.45265 58">
  <defs>
    <style>
      .a {
        opacity: 0.76;
      }

      .b {
        fill: #fff;
      }
    </style>
  </defs>
  <title>logo-css</title>
  <g class="a">
    <g>
      <path class="b" d="M66.28177,34.854a6.95223,6.95223,0,0,1-2.76265,2.47184,9.21216,9.21216,0,0,1-4.027.79023q-8.13054,0-8.12991-9.11611,0-4.66553,2.06093-6.89082a7.7011,7.7011,0,0,1,5.94254-2.22529,8.83752,8.83752,0,0,1,4.18507.86609,6.23622,6.23622,0,0,1,2.46552,2.26955l-2.769,2.14943A5.85615,5.85615,0,0,0,62.13463,23.854a3.52016,3.52016,0,0,0-1.15058-.6069,5.17447,5.17447,0,0,0-1.54253-.2023,3.99188,3.99188,0,0,0-3.27472,1.37185Q55.04214,25.78787,55.04151,29a7.7218,7.7218,0,0,0,1.05575,4.47587,3.8546,3.8546,0,0,0,3.36955,1.47932,4.24406,4.24406,0,0,0,2.42127-.59426,6.42061,6.42061,0,0,0,1.57414-1.58046Z"/>
      <path class="b" d="M82.515,32.67932a4.89794,4.89794,0,0,1-1.72587,4.03334,7.92063,7.92063,0,0,1-5.08909,1.40345,9.762,9.762,0,0,1-4.03967-.77126A6.314,6.314,0,0,1,68.87246,34.854l2.74369-2.09886a6.22029,6.22029,0,0,0,1.15058,1.28966,4.07559,4.07559,0,0,0,1.28965.67012,5.59885,5.59885,0,0,0,1.71955.24023,4.35011,4.35011,0,0,0,2.26954-.49943,1.66445,1.66445,0,0,0,.81552-1.52357,1.61353,1.61353,0,0,0-.28448-.97356,2.28956,2.28956,0,0,0-.85345-.67644,11.28373,11.28373,0,0,0-1.97242-.65115q-1.36553-.366-2.573-.73966a7.83944,7.83944,0,0,1-2.08621-.96724,4.385,4.385,0,0,1-1.38449-1.492A4.55918,4.55918,0,0,1,69.2012,25.169,4.77748,4.77748,0,0,1,70.88281,21.281a7.35014,7.35014,0,0,1,4.81726-1.39713q4.53846,0,6.423,3.11035l-2.7184,2.12414a4.53382,4.53382,0,0,0-1.61839-1.59311,4.473,4.473,0,0,0-2.13679-.48046,4,4,0,0,0-2.01667.44886,1.51172,1.51172,0,0,0-.77759,1.40977,1.41123,1.41123,0,0,0,.8092,1.296,11.73392,11.73392,0,0,0,2.81955.904q1.11327.29018,2.2.62587a6.98236,6.98236,0,0,1,1.94081.92931,4.40386,4.40386,0,0,1,1.37184,1.55518A5.175,5.175,0,0,1,82.515,32.67932Z"/>
      <path class="b" d="M99.08966,32.67932a4.898,4.898,0,0,1-1.72586,4.03334,7.92066,7.92066,0,0,1-5.0891,1.40345,9.762,9.762,0,0,1-4.03966-.77126A6.3139,6.3139,0,0,1,85.4471,34.854l2.74369-2.09886a6.22028,6.22028,0,0,0,1.15057,1.28966A4.07565,4.07565,0,0,0,90.631,34.715a5.59881,5.59881,0,0,0,1.71955.24023,4.35014,4.35014,0,0,0,2.26954-.49943,1.66445,1.66445,0,0,0,.81552-1.52357,1.61359,1.61359,0,0,0-.28448-.97356,2.28956,2.28956,0,0,0-.85345-.67644,11.284,11.284,0,0,0-1.97242-.65115q-1.36553-.366-2.573-.73966a7.83974,7.83974,0,0,1-2.08621-.96724,4.38493,4.38493,0,0,1-1.38448-1.492,4.55918,4.55918,0,0,1-.50575-2.26322A4.77745,4.77745,0,0,1,87.45745,21.281a7.35013,7.35013,0,0,1,4.81725-1.39713q4.53846,0,6.423,3.11035l-2.7184,2.12414a4.5339,4.5339,0,0,0-1.61839-1.59311,4.473,4.473,0,0,0-2.13679-.48046,4,4,0,0,0-2.01667.44886,1.51172,1.51172,0,0,0-.77759,1.40977,1.41123,1.41123,0,0,0,.8092,1.296,11.7338,11.7338,0,0,0,2.81954.904q1.11328.29018,2.2.62587a6.9825,6.9825,0,0,1,1.94081.92931,4.40386,4.40386,0,0,1,1.37184,1.55518A5.17514,5.17514,0,0,1,99.08966,32.67932Z"/>
    </g>
  </g>
</svg>
