<svg xmlns="http://www.w3.org/2000/svg" viewBox="0 0 123.60792 65">
  <defs>
    <style>
      .a {
        opacity: 0.65;
      }

      .b {
        fill: #fff;
      }
    </style>
  </defs>
  <title>Companies_Delivery Hero</title>
  <g class="a">
    <path class="b" d="M71.52741,10.81586A10.82054,10.82054,0,0,0,59.53076,13.651L48.09685,25.89879a.22353.22353,0,0,0,.10669.39962l3.04378.187c.24425.01393.27361.22493.15149.36946l-7.44558,8.03143a.18984.18984,0,0,0,.20562.30147l10.63-3.3591c.22494-.07733.398.12283.30227.2983v.00159l-1.4207,2.51428h0a.241.241,0,0,0,.24353.32546l15.32481-3.41641a10.80877,10.80877,0,0,0,2.28864-20.73606Zm1.69882,11.06057c-.00688.00388-.01233.00855-.01931.01163l-3.424,1.39743-.10518.04559-.834,3.81445a.20218.20218,0,0,1-.33464.051l-2.49426-2.94944-.01393-.00776L51.93369,30.27661a.07455.07455,0,0,1-.03791.00926.095.095,0,0,1-.09506-.09506.09023.09023,0,0,1,.03942-.07574l12.162-9.10278L62.46248,17.4994a.20738.20738,0,0,1,.25429-.28445h0l3.72706.91819,2.89388-2.57689v.0015a.20069.20069,0,0,1,.32538.12759l.28208,3.8685,3.33908,1.95162A.20606.20606,0,0,1,73.22623,21.87643Z"/>
    <g>
      <g>
        <path class="b" d="M39.00183,52.25093H36.42256L38.44067,42.798l2.81275-1.03335Z"/>
        <path class="b" d="M31.59568,49.59672a1.507,1.507,0,0,0-.02629.24884c0,.4213.28754.565,1.05116.565a7.97162,7.97162,0,0,0,2.22143-.36716v1.93231a9.092,9.092,0,0,1-2.76169.40658c-2.12939,0-3.15426-.57817-3.15426-2.50969,0-1.8952.88034-4.85168,4.27348-4.85168,2.15416,0,2.798.97391,2.798,1.99959C35.99746,48.34769,34.85512,49.47768,31.59568,49.59672Zm1.406-2.76012c-.61759,0-.97233.5109-1.11693,1.10371,1.22125,0,1.59072-.381,1.59072-.69792A.43688.43688,0,0,0,33.00164,46.8366Z"/>
        <path class="b" d="M43.46473,44.68244a1.32767,1.32767,0,0,1-1.4454-1.341,1.49924,1.49924,0,0,1,1.58913-1.57678,1.3185,1.3185,0,0,1,1.44769,1.32707A1.49686,1.49686,0,0,1,43.46473,44.68244Z"/>
        <path class="b" d="M41.87711,45.259H44.5314l-1.34187,6.88759h-2.682l.94606-4.837"/>
        <path class="b" d="M52.181,45.259a58.00227,58.00227,0,0,1-3.22076,6.88759H45.67374a32.55979,32.55979,0,0,1-.55182-6.88759h2.682a32.00709,32.00709,0,0,0,.02477,3.36377c.01393.28984.04092.565.06649.84324h.01464c.11754-.2782.24813-.5534.36717-.84324.45984-1.13157.87956-2.36437,1.19726-3.36377Z"/>
        <path class="b" d="M54.36376,49.59672a1.70608,1.70608,0,0,0-.02707.24884c0,.4213.28984.565,1.05124.565a7.96745,7.96745,0,0,0,2.22215-.36716v1.93231a9.08908,9.08908,0,0,1-2.76012.40658c-2.13018,0-3.15585-.57817-3.15585-2.50969,0-1.8952.88036-4.85168,4.27272-4.85168,2.15565,0,2.79873.97391,2.79873,1.99959C58.76556,48.34769,57.624,49.47768,54.36376,49.59672Zm1.406-2.76012c-.61681,0-.97392.5109-1.11924,1.10371,1.22434,0,1.59222-.381,1.59222-.69792A.43517.43517,0,0,0,55.76975,46.8366Z"/>
        <path class="b" d="M63.921,47.68989a2.989,2.989,0,0,0-.64537-.07962c-.5921,0-1.06509.59281-1.2761,1.68347l-.5496,2.85288H58.76556L60.10814,45.259h2.01193l.06491.91827c.61758-.76132,1.10529-1.15635,1.85427-1.15635a2.398,2.398,0,0,1,.616.05335Z"/>
        <path class="b" d="M72.30646,45.259a35.3764,35.3764,0,0,1-3.28724,6.87516c-1.52423,2.27478-2.866,2.80033-4.24642,2.80033a2.70676,2.70676,0,0,1-1.052-.211l.42122-1.98487h.92057c.45984,0,.65621-.18552.95919-.592a26.74051,26.74051,0,0,1-.73663-6.88759h2.696a30.26757,30.26757,0,0,0,.02627,3.32515c.01314.30139.03784.59131.06411.88186h.01393c.11825-.2782.24894-.5534.368-.85558A33.71815,33.71815,0,0,0,69.62288,45.259Z"/>
        <path class="b" d="M82.615,52.14662h-2.8289l.67173-3.47126H78.064l-.67086,3.47126h-2.825l1.787-9.17623h2.82733l-.6438,3.27411h2.393l.64385-3.27411h2.825Z"/>
        <path class="b" d="M86.77956,49.59672a1.59664,1.59664,0,0,0-.02477.24884c0,.4213.28905.565,1.04966.565a7.96837,7.96837,0,0,0,2.22294-.36716v1.93231a9.08834,9.08834,0,0,1-2.7617.40658c-2.12939,0-3.15507-.57817-3.15507-2.50969,0-1.8952.88115-4.85168,4.27273-4.85168,2.15644,0,2.80189.97391,2.80189,1.99959C91.18524,48.34769,90.03894,49.47768,86.77956,49.59672Zm1.40671-2.76012c-.61832,0-.97155.5109-1.11687,1.10371,1.22275,0,1.59221-.381,1.59221-.69792A.43789.43789,0,0,0,88.18627,46.8366Z"/>
        <path class="b" d="M96.336,47.68989a2.94146,2.94146,0,0,0-.64307-.07962c-.59052,0-1.06509.59281-1.27531,1.68347l-.55269,2.85288h-2.6797l1.3387-6.88759h2.01114l.06649.91827c.6183-.76132,1.10373-1.15635,1.85269-1.15635a2.42989,2.42989,0,0,1,.61909.05335Z"/>
        <path class="b" d="M99.74071,52.38232c-2.09,0-3.11407-.89429-3.11407-2.68129,0-1.98486.98547-4.68008,4.45665-4.68008,2.07693,0,3.11493.92057,3.11493,2.68287C104.19822,49.72889,103.212,52.38232,99.74071,52.38232ZM100.7409,47.138c-1.07822,0-1.36728,1.64327-1.36728,2.3799,0,.59123.24963.76132.73734.76132,1.06279,0,1.3395-1.64406,1.3395-2.39066C101.45046,47.30959,101.214,47.138,100.7409,47.138Z"/>
      </g>
      <path class="b" d="M25.67431,45.29765l1.787-1.71513a5.5365,5.5365,0,0,0-2.8475-.61213H21.196l-1.78629,9.17623h3.56323c4.13974,0,5.79464-2.8923,5.79464-5.90212a3.32946,3.32946,0,0,0-.49317-1.8929Zm-2.5051,4.66615h-.52634l.94606-4.83845h.73734a1.37834,1.37834,0,0,1,1.52422,1.56514C25.85049,48.51849,24.83716,49.9638,23.16921,49.9638Z"/>
    </g>
  </g>
</svg>
