<svg xmlns="http://www.w3.org/2000/svg" viewBox="0 0 123.60792 65">
  <defs>
    <style>
      .a {
        opacity: 0.65;
      }

      .b {
        fill: #fff;
      }
    </style>
  </defs>
  <title>Companies_deliveroo</title>
  <g class="a">
    <path class="b" d="M53.80416,47.95494a.95176.95176,0,1,1,.951.95227A.91344.91344,0,0,1,53.80416,47.95494Z"/>
    <path class="b" d="M76.68777,10.32636c-1.32328-.13191-2.64573-.27277-3.96826-.41167q-2.26868-.23828-4.53682-.48068c-.13507-.01467-.16155.02378-.17389.14929-.09722.98633-.20211,1.9719-.3061,2.95763q-.1947,1.8461-.39128,3.692-.17665,1.68073-.3499,3.36185-.17776,1.699-.35795,3.398-.08814.83478-.17788,1.66941l-.03423.00572c-.012-.04018-.02687-.07984-.0356-.12077q-.31682-1.48909-.63244-2.97832-1.01808-4.79232-2.03368-9.58531c-.02566-.1216-.0611-.14372-.18247-.11679-.66646.14809-1.33555.28428-2.00328.4265q-3.18563.67812-6.37162,1.35428c-.12108.02551-.1441.05659-.11739.17751.14989.67864.28842,1.35985.433,2.03969q1.133,5.32461,2.27026,10.64825c.02874.13423-.01325.16915-.13056.1939q-3.15976.66774-6.31834,1.34059-2.92412.62169-5.84859,1.24164c-.12032.02536-.15764.05026-.12732.18623.17149.76842.32906,1.53992.49287,2.31006q.82518,3.88079,1.64872,7.762a.2103.2103,0,0,0,.19391.19662c1.00039.20467,1.99876.41935,2.9975.63214q4.38576.93456,8.77145,1.86965,4.90994,1.0437,9.81963,2.08846c.17916.03837.24132-.00949.30972-.16359q2.42893-5.47191,4.8676-10.93959a.7503.7503,0,0,0,.06561-.22853q.21129-2.00206.42544-4.00377.297-2.81022.59129-5.62074.33307-3.16846.66578-6.33716.34211-3.26982.68489-6.53965C76.84142,10.37391,76.82186,10.33975,76.68777,10.32636Zm-15.159,20.76682a1.3254,1.3254,0,0,1-1.3302.99626,1.83582,1.83582,0,0,1-1.1229-.35035,1.41271,1.41271,0,0,1-.40136-1.33923,1.16894,1.16894,0,0,1,1.2153-1.13892,1.62874,1.62874,0,0,1,1.0694.24876A1.28008,1.28008,0,0,1,61.52874,31.09318Zm6.1574.88219a2.62032,2.62032,0,0,1-.25162.53191,1.16737,1.16737,0,0,1-1.11545.47082,2.09473,2.09473,0,0,1-.626-.14034,1.09077,1.09077,0,0,1-.8189-1.169,1.71486,1.71486,0,0,1,.67089-1.39243,1.404,1.404,0,0,1,1.63322.07509A1.31572,1.31572,0,0,1,67.68614,31.97537Z"/>
    <g>
      <path class="b" d="M43.22375,54.12085c.00549-2.27943.00121-4.55886.00572-6.8383.0003-.14447-.03537-.18924-.18337-.18518q-.58173.01591-1.16414.00015c-.14695-.00376-.18608.04086-.18518.18578.0061.96722.00361,1.93443.00218,2.90165a.31478.31478,0,0,1-.02182.18811.65926.65926,0,0,1-.05418-.04575,2.52389,2.52389,0,0,0-3.77562.23635,3.65134,3.65134,0,0,0-.2277,3.85675,2.534,2.534,0,0,0,3.87112.70167c.081-.06938.15636-.14523.24455-.22762.04657.21626.09022.408.12814.60084.01339.068.03175.11317.11422.11279.49791-.0021.99589-.001,1.50275-.001-.01754-.09052-.033-.16238-.04523-.23476A7.36522,7.36522,0,0,1,43.22375,54.12085Zm-3.057.01671a1.47786,1.47786,0,1,1,.04349-2.95312,1.47738,1.47738,0,1,1-.04349,2.95312Z"/>
      <path class="b" d="M67.08387,50.12957a3.00779,3.00779,0,0,0-2.12149-.52191,2.71475,2.71475,0,0,0-2.04594,1.143,3.3236,3.3236,0,0,0-.4952,2.68012,2.551,2.551,0,0,0,1.46828,1.94135,4.17006,4.17006,0,0,0,3.89723-.247c.09443-.05132.09518-.10361.0544-.1918-.16238-.35185-.32281-.70468-.47368-1.06157-.0465-.10994-.088-.11107-.18759-.06283a3.599,3.599,0,0,1-1.87611.38571,1.52865,1.52865,0,0,1-1.27617-.69829c-.07442-.12016-.0672-.1611.08961-.15952.65329.00647,1.30665.00271,1.96.00271.65953,0,1.31906-.00286,1.9786.00256.1234.001.16847-.03476.1857-.16073a3.8157,3.8157,0,0,0,.02657-.82966A2.88288,2.88288,0,0,0,67.08387,50.12957Zm-.35764,1.95083c-.04192.10617-.26555.03326-.40761.03634-.33816.0073-.67647.00234-1.01477.00234-.43673,0-.87339-.00241-1.31.00165-.11129.00106-.13943-.02272-.09744-.136a1.26784,1.26784,0,0,1,1.0931-.86631,1.55406,1.55406,0,0,1,1.53728.48971.35089.35089,0,0,1,.02227.02934C66.6409,51.77618,66.7801,51.94383,66.72623,52.0804Z"/>
      <path class="b" d="M46.81578,49.60939a2.70447,2.70447,0,0,0-2.21352,1.404,3.37236,3.37236,0,0,0-.33665,2.379,2.60766,2.60766,0,0,0,1.69154,2.0783,4.23714,4.23714,0,0,0,3.69534-.352c.08984-.05019.08412-.09586.04778-.17457-.13913-.30151-.27269-.60551-.408-.90875-.125-.28029-.12468-.28014-.41393-.15433-.06192.02694-.12393.05433-.18744.0772a3.128,3.128,0,0,1-2.0424.133,1.31931,1.31931,0,0,1-.84253-.75171h.224c1.2816,0,2.56311-.00391,3.84456.00482.16411.00112.221-.05358.22641-.20136.00768-.209.0289-.4183.02431-.627a2.88555,2.88555,0,0,0-3.30948-2.90661Zm1.668,2.51157c-.91567-.00354-1.83134-.00188-2.76936-.00188a1.19242,1.19242,0,0,1,.65178-.85187,1.77446,1.77446,0,0,1,1.72773.07427,1.16131,1.16131,0,0,1,.481.63343C48.60882,52.06761,48.61273,52.12141,48.48376,52.121Z"/>
      <path class="b" d="M86.03177,52.34933a3.036,3.036,0,0,0-5.27551-1.7573,3.11,3.11,0,0,0-.69107,2.45167,2.74756,2.74756,0,0,0,1.77326,2.45182,3.00384,3.00384,0,0,0,3.16485-.44779A2.96968,2.96968,0,0,0,86.03177,52.34933Zm-1.7424,1.20981a1.48218,1.48218,0,0,1-1.23984.57842,1.45966,1.45966,0,0,1-1.42343-.8937A1.55079,1.55079,0,0,1,81.98081,51.56a1.70784,1.70784,0,0,1,2.09892-.03153A1.55308,1.55308,0,0,1,84.28937,53.55914Z"/>
      <path class="b" d="M76.32945,49.59216a2.89394,2.89394,0,0,0-2.11292.81153,3.03464,3.03464,0,0,0-.88286,2.45566,2.78083,2.78083,0,0,0,1.63375,2.57011,3.02229,3.02229,0,0,0,3.21624-.3,2.93385,2.93385,0,0,0,1.14653-2.53993A2.903,2.903,0,0,0,76.32945,49.59216Zm-.00045,4.5457a1.47759,1.47759,0,1,1,.00805-2.95342,1.47725,1.47725,0,1,1-.00805,2.95342Z"/>
      <path class="b" d="M61.7611,49.7121c-.44357.0085-.88745.00715-1.3311.00045-.121-.0018-.1669.03559-.19534.15621-.18909.80205-.388,1.60177-.58376,2.40216-.17367.7104-.34749,1.42073-.53079,2.17033-.02776-.08879-.04289-.12912-.053-.17073q-.53783-2.20456-1.072-4.41018c-.02671-.11122-.06757-.14952-.18307-.14779-.44982.00662-.8998.0058-1.34962.00053-.11768-.00135-.14507.01874-.111.144q.75939,2.79475,1.50553,5.593a.18048.18048,0,0,0,.21378.1605q1.063-.01028,2.12615-.00045a.16879.16879,0,0,0,.199-.1532c.13537-.53019.28165-1.05766.42424-1.586.35878-1.32975.71567-2.66,1.07926-3.9885C61.93974,49.73513,61.90272,49.70939,61.7611,49.7121Z"/>
      <path class="b" d="M52.64232,51.37361c0-1.36188-.00166-2.72383.00256-4.08572.00045-.137-.02491-.19541-.18-.19082-.39407.01159-.78881.00835-1.183.0012-.12476-.00225-.169.02717-.16886.16163q.00588,4.09491,0,8.18987c-.00022.13567.04666.16224.16953.16013.39429-.00677.789-.01008,1.183.00128.1532.00444.17991-.051.17946-.18895C52.64051,54.07269,52.64232,52.72315,52.64232,51.37361Z"/>
      <path class="b" d="M73.35233,49.80872a2.037,2.037,0,0,0-2.37259.33379c-.07863.08036-.14981.1681-.24259.27292-.04831-.21581-.0921-.39948-.12942-.58451-.01317-.06524-.022-.11686-.10791-.11649-.49166.00219-.98339.00113-1.48438.00113.009.04839.01513.07781.01979.10745a8.092,8.092,0,0,1,.22867,1.26753c0,1.44149.00226,2.883-.00338,4.32447-.0006.14861.02889.20166.18887.19639.38149-.01256.76389-.01143,1.14554-.00037.15012.00436.19617-.03033.195-.18895-.0076-1.10258.005-2.20539-.01023-3.30789a.70211.70211,0,0,1,.31325-.6247,1.36069,1.36069,0,0,1,1.52923-.06471c.08548.04455.12235.0611.1693-.04831.19888-.46314.40791-.92191.61732-1.38039C73.44842,49.90925,73.44661,49.86169,73.35233,49.80872Z"/>
      <path class="b" d="M55.517,52.66266c0-.9305-.00173-1.861.00219-2.79149.00045-.11452-.0225-.16148-.15012-.15892-.41272.00805-.82575.00715-1.23855.0003-.11618-.002-.14387.035-.14372.14658q.00474,2.80074-.0006,5.60148c-.00031.12912.047.15049.16.14891.40046-.00557.80123-.00865,1.20154.00136.14093.00353.17329-.039.17238-.17525C55.51409,54.51138,55.517,53.587,55.517,52.66266Z"/>
    </g>
  </g>
</svg>
