<svg xmlns="http://www.w3.org/2000/svg" viewBox="0 0 150.45265 58">
  <defs>
    <style>
      .a {
        opacity: 0.76;
      }

      .b {
        fill: none;
      }

      .c {
        fill: #fff;
      }
    </style>
  </defs>
  <title>logo-go</title>
  <g class="a">
    <g>
      <path class="b" d="M69.67629,13.98388a4.82985,4.82985,0,0,1-2.09513,1.6926A4.82985,4.82985,0,0,0,69.67629,13.98388Z"/>
      <path class="b" d="M61.4693,13.6417a4.78789,4.78789,0,0,0,1.56143,1.64116A4.78789,4.78789,0,0,1,61.4693,13.6417Z"/>
      <path class="b" d="M68.90484,18.83747a1.83269,1.83269,0,0,0,.37946.04445c.08178.0016.16355.00167.2507.00137-.08715.0003-.16892.00015-.2507-.00137A1.83815,1.83815,0,0,1,68.90484,18.83747Z"/>
      <path class="b" d="M70.492,11.39886h0a4.532,4.532,0,0,1-.8157,2.585A4.532,4.532,0,0,0,70.492,11.39886Z"/>
      <path class="b" d="M69.54694,15.56612a2.19127,2.19127,0,0,1,.22045-.55374,2.19127,2.19127,0,0,0-.22045.55374,13.28375,13.28375,0,0,0-1.29338,1.0763,1.27209,1.27209,0,0,0-.13387.169,1.27209,1.27209,0,0,1,.13387-.169A13.28375,13.28375,0,0,1,69.54694,15.56612Z"/>
      <path class="b" d="M67.96314,17.76453a1.44894,1.44894,0,0,1-.03022-.39636A1.44894,1.44894,0,0,0,67.96314,17.76453Z"/>
      <path class="b" d="M68.09442,18.16584a2.045,2.045,0,0,1-.13128-.40131A2.045,2.045,0,0,0,68.09442,18.16584Z"/>
      <path class="b" d="M66.16794,6.767q-.24441-.02318-.49594-.02283a5.01394,5.01394,0,0,0-1.88679.36767A5.01394,5.01394,0,0,1,65.672,6.7442Q65.92333,6.74375,66.16794,6.767Z"/>
      <path class="b" d="M64.29771,15.86279a4.86262,4.86262,0,0,1-1.267-.57993A4.86262,4.86262,0,0,0,64.29771,15.86279Z"/>
      <path class="b" d="M61.26233,13.23393a4.51524,4.51524,0,0,1-.2884-.87545A4.51524,4.51524,0,0,0,61.26233,13.23393Z"/>
      <path class="b" d="M67.58116,15.67648a4.89706,4.89706,0,0,1-1.36592.35359A4.89706,4.89706,0,0,0,67.58116,15.67648Z"/>
      <path class="b" d="M62.96711,7.541a4.8169,4.8169,0,0,1,.8181-.42916A4.81188,4.81188,0,0,0,62.96711,7.541Z"/>
      <path class="b" d="M66.64894,6.83621a4.91145,4.91145,0,0,1,.9076.26836A4.91762,4.91762,0,0,0,66.64894,6.83621Z"/>
      <path class="b" d="M60.97393,12.35848a4.49715,4.49715,0,0,1-.10412-.93953A4.49715,4.49715,0,0,0,60.97393,12.35848Z"/>
      <path class="b" d="M61.674,8.79975a4.633,4.633,0,0,1,.5832-.69013A4.633,4.633,0,0,0,61.674,8.79975Z"/>
      <path class="b" d="M77.31727,6.21755a4.784,4.784,0,0,0-4.7074,4.78951A4.77128,4.77128,0,0,0,77.544,15.55615a4.5211,4.5211,0,0,0,4.69708-4.77223A4.78373,4.78373,0,0,0,77.31727,6.21755ZM74.9356,12.76732a1.61429,1.61429,0,0,1-1.57715-1.54564A1.588,1.588,0,0,1,75.00014,9.6765a1.55386,1.55386,0,0,1,1.56345,1.53559A1.58068,1.58068,0,0,1,74.9356,12.76732Z"/>
      <path class="b" d="M69.76685,19.34449c-.01541.14156-.02816.27391-.03455.40656-.005.104-.01275.20861-.02051.31341.00776-.1048.01553-.20945.02051-.31341C69.73869,19.61847,69.75144,19.48605,69.76685,19.34449Z"/>
      <path class="b" d="M75.46819,18.4797a1.18322,1.18322,0,0,0,.241-.68914A1.18343,1.18343,0,0,1,75.46819,18.4797Z"/>
      <path class="b" d="M70.38662,21.93347a.988.988,0,0,0,.55234.03288A.98875.98875,0,0,1,70.38662,21.93347Z"/>
      <path class="b" d="M70.939,21.96635a1.413,1.413,0,0,0,.58579-.2924,1.28982,1.28982,0,0,0,.15849-.15876,1.29543,1.29543,0,0,1-.15849.15876A1.413,1.413,0,0,1,70.939,21.96635Z"/>
      <path class="b" d="M72.96335,21.93164a1.40052,1.40052,0,0,0,.41189-.07778,1.50741,1.50741,0,0,0,.17706-.07123,1.50741,1.50741,0,0,1-.17706.07123A1.40279,1.40279,0,0,1,72.96335,21.93164Z"/>
      <path class="c" d="M57.02257,12.84563c.19042-.56623.38335-1.14007.57666-1.715-.41117-.45831-.88759-.87857-.54717-1.56086.36063-.72278.98744-.567,1.56334-.426.43917-.59.84778-1.139,1.258-1.69032a4.03477,4.03477,0,0,0-3.42379-.201,2.95182,2.95182,0,0,0,.57293,5.59311Z"/>
      <path class="c" d="M86.08466,8.60637c.49576.74348-.04205,1.22668-.49206,1.72989.23764.59721.46912,1.179.75185,1.88941a11.40847,11.40847,0,0,0,1.37436-1.08923,3.01854,3.01854,0,0,0-.40092-4.27092,3.78067,3.78067,0,0,0-4.08025-.04643c.421.506.8417,1.0116,1.29278,1.55378C85.40233,8.10041,85.7813,8.15141,86.08466,8.60637Z"/>
      <path class="c" d="M60.93043,49.97083a3.61646,3.61646,0,0,0-2.6566,2.11849.85587.85587,0,0,0,.32631,1.131c.33384-.59225.5687-1.2508,1.22025-1.56489-.30572.60314-.8358,1.07941-.90856,1.77571a1.27723,1.27723,0,0,0,1.88591-.11591,6.04307,6.04307,0,0,1,2.51135-1.61939c-.39183-.45922-.67377-.83214-1.00018-1.16092A1.51922,1.51922,0,0,0,60.93043,49.97083Z"/>
      <path class="c" d="M84.35028,49.84876a1.1598,1.1598,0,0,0-1.44716.0105,12.73533,12.73533,0,0,0-1.15723,1.10316c.61455.65443,1.14745,1.2196,1.67749,1.7875.151.1618.279.348.4429.49439.45474.4064.8259.39484,1.43023-.07877-.26219-.55733-.53377-1.13459-.80532-1.71186.64728.3475.77373,1.01237,1.06765,1.66383.45531-.5883.492-.69774.36311-1.20118A3.5929,3.5929,0,0,0,84.35028,49.84876Z"/>
      <path class="c" d="M54.05508,30.92983c.37855-.077.58114-.46159,1.06229-.3147-.32106.234-.56737.41348-.9194.67l.709.62338a3.56859,3.56859,0,0,0,2.0417-1.23033l.09285-1.89717a5.335,5.335,0,0,0-2.8095.984A.87648.87648,0,0,0,54.05508,30.92983Z"/>
      <path class="c" d="M90.25509,30.51566c.26112-.58434.25305-.96122-.14495-1.26991a5.63769,5.63769,0,0,0-2.57569-.94767v1.97267c1.116,1.20217,1.965,1.38437,2.50838.51455l-.83591-.61958.09768-.16477C89.60347,30.16283,89.90234,30.32463,90.25509,30.51566Z"/>
      <path class="c" d="M71.70326,20.4612a2.15937,2.15937,0,0,1-.14856.70915.86964.86964,0,0,1-.96152.52072.688.688,0,0,1-.61662-.71928c-.008-.72422.07162-1.44944.11557-2.17861.58895-.16926,1.07652-.3093,1.64732-.47338.01632.24209.04326.42178.03771.60032C71.76121,19.43414,71.7436,19.9487,71.70326,20.4612Zm.65208,1.0683a5.65083,5.65083,0,0,1-.19864-3.157c.52186.19209.97542.35907,1.51976.55946.0411.74249.08269,1.49487.12044,2.17694C73.40575,21.75021,72.924,21.7168,72.35534,21.5295Z"/>
      <path class="c" d="M73.44136,15.89165c-1.3061.85473-2.06756.87985-3.71184.07269a9.83437,9.83437,0,0,0-1.02748.793A1.07317,1.07317,0,0,0,68.55,18.04893a.865.865,0,0,0,.99537.46683,7.43639,7.43639,0,0,0,1.415-.3226,2.38214,2.38214,0,0,1,1.88.07886,4.1288,4.1288,0,0,0,1.12786.30761,1.00274,1.00274,0,0,0,1.14684-.45808,1.19943,1.19943,0,0,0-.23115-1.35687A2.86733,2.86733,0,0,0,73.44136,15.89165Z"/>
      <path class="c" d="M70.09213,18.79318c-.04395.72917-.12356,1.45439-.11557,2.17861a.688.688,0,0,0,.61662.71928.86964.86964,0,0,0,.96152-.52072,2.15937,2.15937,0,0,0,.14856-.70915c.04034-.5125.058-1.02706.0739-1.54108.00555-.17854-.02139-.35823-.03771-.60032C71.16865,18.48388,70.68108,18.62392,70.09213,18.79318Z"/>
      <path class="c" d="M72.1567,18.37254a5.65083,5.65083,0,0,0,.19864,3.157c.5687.1873,1.05041.22071,1.44156-.42056-.03775-.68207-.07934-1.43445-.12044-2.17694C73.13212,18.73161,72.67856,18.56463,72.1567,18.37254Z"/>
      <path class="c" d="M86.89846,22.908c-.04859-1.72312-.04242-3.4486-.12751-5.16966A20.81251,20.81251,0,0,0,85.25914,10.92a9.64895,9.64895,0,0,0-6.35947-5.92654,17.49365,17.49365,0,0,0-4.426-.76533,41.15289,41.15289,0,0,0-6.62725.42711,16.44566,16.44566,0,0,0-5.92985,1.92807A6.35042,6.35042,0,0,0,59.9527,8.23314a12.23828,12.23828,0,0,0-2.46112,5.071,29.43532,29.43532,0,0,0-.37407,10.79346,29.83909,29.83909,0,0,1,.38754,6.10782c-.236,4.4035-.38533,8.80959-.21238,13.22139a6.89656,6.89656,0,0,0,.76464,2.89942,10.46064,10.46064,0,0,0,2.6805,3.32462,2.10212,2.10212,0,0,1,1.82377.78024,4.368,4.368,0,0,0,2.49346,1.593,24.23134,24.23134,0,0,0,13.9761-.22481,6.61584,6.61584,0,0,0,3.47311-1.99094.78835.78835,0,0,1,.36181-.24818A2.967,2.967,0,0,0,84.23,48.47336a10.90474,10.90474,0,0,0,2.08288-3.87783,24.65232,24.65232,0,0,0,.97975-8.39413C87.13744,31.77111,87.02339,27.33937,86.89846,22.908ZM66.21524,16.03007q-.24.02625-.4865.0293a4.86436,4.86436,0,0,1-2.698-.77651A4.78789,4.78789,0,0,1,61.4693,13.6417q-.11335-.19828-.207-.40777a4.5538,4.5538,0,0,1,.4117-4.43418,4.633,4.633,0,0,1,.5832-.69013,4.72861,4.72861,0,0,1,.70988-.56859,4.81188,4.81188,0,0,1,.8181-.42916A5.01394,5.01394,0,0,1,65.672,6.7442q.25133-.00057.49594.02283.24442.02317.481.06918a4.91762,4.91762,0,0,1,.9076.26836,4.74665,4.74665,0,0,1,2.11872,1.6811,4.53191,4.53191,0,0,1,.79261,2.13372,4.62958,4.62958,0,0,1,.02412.47947h0a4.532,4.532,0,0,1-.8157,2.585,4.82985,4.82985,0,0,1-2.09513,1.6926A4.89706,4.89706,0,0,1,66.21524,16.03007Zm9.253,2.44963a1.30538,1.30538,0,0,1-.9001.443c-.1908.02352-.38335.03273-.59059.04977.02626.57324.06462,1.108.072,1.64321a2.87944,2.87944,0,0,1-.02854.49439.91182.91182,0,0,1-.20355.47931.83094.83094,0,0,1-.26511.19324,1.50741,1.50741,0,0,1-.17706.07123,1.40052,1.40052,0,0,1-.41189.07778,1.22431,1.22431,0,0,1-.92172-.42589q-.08843-.08949-.17661-.19848c-.07127.0777-.12846.14688-.18178.20792a1.28982,1.28982,0,0,1-.15849.15876,1.413,1.413,0,0,1-.58579.2924.988.988,0,0,1-.55234-.03288,1.11328,1.11328,0,0,1-.6754-.93519,4.16037,4.16037,0,0,1,.00057-.93382c.00776-.1048.01553-.20945.02051-.31341.00639-.13265.01914-.265.03455-.40656s.03353-.2924.05065-.46212c-.103,0-.1954.00069-.2825.00092s-.16892.00023-.2507-.00137a1.83269,1.83269,0,0,1-.37946-.04445,1.11528,1.11528,0,0,1-.81042-.67163,2.045,2.045,0,0,1-.13128-.40131,1.44894,1.44894,0,0,1-.03022-.39636,1.13841,1.13841,0,0,1,.18677-.55672,1.27209,1.27209,0,0,1,.13387-.169,13.28375,13.28375,0,0,1,1.29338-1.0763,2.19127,2.19127,0,0,1,.22045-.55374,1.81887,1.81887,0,0,1,1.40488-.91229,4.33386,4.33386,0,0,1,1.01982-.024,1.448,1.448,0,0,1,1.55919,1.45294c.29909.15975.63373.30945.93736.50687a1.95978,1.95978,0,0,1,1.01316,1.46314,1.92839,1.92839,0,0,1,.00742.29149A1.18322,1.18322,0,0,1,75.46819,18.4797Zm2.0758-2.92355a4.77128,4.77128,0,0,1-4.93412-4.54909,4.81892,4.81892,0,0,1,9.6312-.22314A4.5211,4.5211,0,0,1,77.544,15.55615Z"/>
    </g>
    <path class="c" d="M81.85248,10.44036a4.19039,4.19039,0,0,0-.7329-1.97308,4.38934,4.38934,0,0,0-1.95915-1.55447,4.54158,4.54158,0,0,0-.83927-.24811q-.21855-.04234-.44478-.064-.226-.02147-.45861-.02108a4.634,4.634,0,0,0-1.7447.33994,4.45163,4.45163,0,0,0-.7565.39677,4.382,4.382,0,0,0-.65642.52579,4.28478,4.28478,0,0,0-.53928.63821,4.20293,4.20293,0,0,0-.74362,2.42191,4.15891,4.15891,0,0,0,.363,1.67834q.0864.19353.19138.37713A4.42716,4.42716,0,0,0,74.9754,14.4752a4.49747,4.49747,0,0,0,2.49486.718q.22779-.00257.44984-.02708a4.53012,4.53012,0,0,0,1.26307-.32687,4.467,4.467,0,0,0,1.93737-1.56515,4.191,4.191,0,0,0,.75425-2.39036A4.26878,4.26878,0,0,0,81.85248,10.44036Zm-6.91689,2.327a1.6142,1.6142,0,0,1-1.57712-1.54561,1.588,1.588,0,0,1,1.64168-1.54522,1.55386,1.55386,0,0,1,1.56343,1.53559A1.58068,1.58068,0,0,1,74.93559,12.76731Z"/>
    <path class="c" d="M70.10736,10.97274a4.19038,4.19038,0,0,0-.73289-1.97308,4.38937,4.38937,0,0,0-1.95916-1.55448,4.54158,4.54158,0,0,0-.83927-.24811q-.21855-.04233-.44478-.064-.226-.02147-.45861-.02108A4.634,4.634,0,0,0,63.928,7.452a4.451,4.451,0,0,0-.7565.39678,4.3826,4.3826,0,0,0-.65642.52578,4.28529,4.28529,0,0,0-.53928.63821,4.20293,4.20293,0,0,0-.74362,2.42191,4.15881,4.15881,0,0,0,.363,1.67834q.0864.19353.19138.37713a4.42728,4.42728,0,0,0,1.44381,1.51748,4.49769,4.49769,0,0,0,2.49487.718q.22777-.00258.44983-.02708a4.53047,4.53047,0,0,0,1.26307-.32688,4.467,4.467,0,0,0,1.93737-1.56515,4.191,4.191,0,0,0,.75425-2.39035A4.2685,4.2685,0,0,0,70.10736,10.97274Zm-6.91689,2.32694a1.6142,1.6142,0,0,1-1.57712-1.54561A1.588,1.588,0,0,1,63.255,10.20885a1.55387,1.55387,0,0,1,1.56343,1.53559A1.58068,1.58068,0,0,1,63.19047,13.29968Z"/>
  </g>
</svg>
