<svg xmlns="http://www.w3.org/2000/svg" viewBox="0 0 150.45265 58">
  <defs>
    <style>
      .a, .b {
        opacity: 0.76;
      }

      .b {
        fill: #fff;
      }
    </style>
  </defs>
  <title>logo-java</title>
  <g class="a">
    <path class="b" d="M78.76436,6.04431a3.655,3.655,0,0,1,.7795,3.10932,6.97218,6.97218,0,0,1-1.73221,3.15262,15.45162,15.45162,0,0,1-2.10464,1.992A8.75629,8.75629,0,0,0,73.48112,16.758a3.21326,3.21326,0,0,0-.25983,2.67626c.51966,1.507,1.73221,2.59832,2.39045,4.036-.74485-.64091-1.46372-1.32514-2.13062-2.00936a9.64856,9.64856,0,0,1-1.79283-2.4684,2.95345,2.95345,0,0,1-.19921-2.10464A4.85016,4.85016,0,0,1,72.719,15.08645c1.40309-1.40309,3.1353-2.43376,4.50374-3.86283A5.73364,5.73364,0,0,0,78.825,8.4261a5.63851,5.63851,0,0,0-.06929-2.39045"/>
    <path class="b" d="M78.76436,6.04431a3.655,3.655,0,0,1,.7795,3.10932,6.97218,6.97218,0,0,1-1.73221,3.15262,15.45162,15.45162,0,0,1-2.10464,1.992A8.75629,8.75629,0,0,0,73.48112,16.758a3.21326,3.21326,0,0,0-.25983,2.67626c.51966,1.507,1.73221,2.59832,2.39045,4.036-.74485-.64091-1.46372-1.32514-2.13062-2.00936a9.64856,9.64856,0,0,1-1.79283-2.4684,2.95345,2.95345,0,0,1-.19921-2.10464A4.85016,4.85016,0,0,1,72.719,15.08645c1.40309-1.40309,3.1353-2.43376,4.50374-3.86283A5.73364,5.73364,0,0,0,78.825,8.4261,5.63828,5.63828,0,0,0,78.76436,6.04431Z"/>
    <path class="b" d="M77.6211,14.87858a15.763,15.763,0,0,1,5.0494-2.32982,26.15557,26.15557,0,0,0-4.10534,2.87547,3.81952,3.81952,0,0,0-1.05665,1.52434,1.92276,1.92276,0,0,0,.09527,1.35113A17.25289,17.25289,0,0,0,78.90294,20.335a2.14793,2.14793,0,0,1,.14724,1.9574,5.19667,5.19667,0,0,1-2.05267,2.13062c-.1126.06063-.1992.18188-.33778.19054a2.70224,2.70224,0,0,0,.9787-1.98338,2.3818,2.3818,0,0,0-.69289-1.507,4.58172,4.58172,0,0,1-1.29916-3.30852,4.47778,4.47778,0,0,1,1.96606-2.9361"/>
    <path class="b" d="M77.6211,14.87858a15.763,15.763,0,0,1,5.0494-2.32982,26.15557,26.15557,0,0,0-4.10534,2.87547,3.81952,3.81952,0,0,0-1.05665,1.52434,1.92276,1.92276,0,0,0,.09527,1.35113A17.25289,17.25289,0,0,0,78.90294,20.335a2.14793,2.14793,0,0,1,.14724,1.9574,5.19667,5.19667,0,0,1-2.05267,2.13062c-.1126.06063-.1992.18188-.33778.19054a2.70224,2.70224,0,0,0,.9787-1.98338,2.3818,2.3818,0,0,0-.69289-1.507,4.58172,4.58172,0,0,1-1.29916-3.30852A4.47779,4.47779,0,0,1,77.6211,14.87858Z"/>
    <path class="b" d="M82.94765,23.87741a1.94009,1.94009,0,0,1,1.31648-.55431,2.88413,2.88413,0,0,1,2.32116.66691,2.10462,2.10462,0,0,1,.69288,1.86212,3.29118,3.29118,0,0,1-1.25585,1.96606,9.87365,9.87365,0,0,1-3.79354,1.73221,1.22138,1.22138,0,0,1,.25983-.22519,9.26732,9.26732,0,0,0,2.78886-2.096,2.52035,2.52035,0,0,0,.6669-2.02669,1.97472,1.97472,0,0,0-1.82748-1.51568,4.04476,4.04476,0,0,0-1.16924.19054"/>
    <path class="b" d="M82.94765,23.87741a1.94009,1.94009,0,0,1,1.31648-.55431,2.88413,2.88413,0,0,1,2.32116.66691,2.10462,2.10462,0,0,1,.69288,1.86212,3.29118,3.29118,0,0,1-1.25585,1.96606,9.87365,9.87365,0,0,1-3.79354,1.73221,1.22138,1.22138,0,0,1,.25983-.22519,9.26732,9.26732,0,0,0,2.78886-2.096,2.52035,2.52035,0,0,0,.6669-2.02669,1.97472,1.97472,0,0,0-1.82748-1.51568A4.04476,4.04476,0,0,0,82.94765,23.87741Z"/>
    <path class="b" d="M67.36642,24.54431a11.16415,11.16415,0,0,1,4.53839-.98736,18.02456,18.02456,0,0,0-2.69359.86611,1.23855,1.23855,0,0,0-.5543.41573c-.06063.16456.11259.26849.23385.32046a5.79435,5.79435,0,0,0,1.67158.30314,46.20712,46.20712,0,0,0,5.9588-.06929c1.9574-.12126,3.88881-.38975,5.82023-.70155a10.774,10.774,0,0,0-1.25585.65824,1.94,1.94,0,0,1-.67557.25983,35.857,35.857,0,0,1-7.22331.72753c-.9354,0-1.87079,0-2.79752-.06929a16.11808,16.11808,0,0,1-3.10066-.41573,2.07847,2.07847,0,0,1-.8661-.38975.26848.26848,0,0,1-.01018-.37957l.01018-.01017a3.10918,3.10918,0,0,1,.92673-.54565"/>
    <path class="b" d="M67.36642,24.54431a11.16415,11.16415,0,0,1,4.53839-.98736,18.02456,18.02456,0,0,0-2.69359.86611,1.23855,1.23855,0,0,0-.5543.41573c-.06063.16456.11259.26849.23385.32046a5.79435,5.79435,0,0,0,1.67158.30314,46.20712,46.20712,0,0,0,5.9588-.06929c1.9574-.12126,3.88881-.38975,5.82023-.70155a10.774,10.774,0,0,0-1.25585.65824,1.94,1.94,0,0,1-.67557.25983,35.857,35.857,0,0,1-7.22331.72753c-.9354,0-1.87079,0-2.79752-.06929a16.11808,16.11808,0,0,1-3.10066-.41573,2.07847,2.07847,0,0,1-.8661-.38975.26848.26848,0,0,1-.01018-.37957l.01018-.01017A3.10926,3.10926,0,0,1,67.36642,24.54431Z"/>
    <path class="b" d="M69.1939,27.85283a4.625,4.625,0,0,1,1.36845-.6669c-.1559.18188-.37243.36377-.38975.6236a.433.433,0,0,0,.25983.36376,2.52036,2.52036,0,0,0,.86611.21653,26.44209,26.44209,0,0,0,4.49508.13857,33.36231,33.36231,0,0,0,4.09668-.537,4.56424,4.56424,0,0,0,1.28183.79681,24.57926,24.57926,0,0,1-5.00608.86611,21.26331,21.26331,0,0,1-4.80689-.1559,6.64291,6.64291,0,0,1-1.8448-.54564,1.00467,1.00467,0,0,1-.563-.55431.62359.62359,0,0,1,.29448-.57163"/>
    <path class="b" d="M69.1939,27.85283a4.625,4.625,0,0,1,1.36845-.6669c-.1559.18188-.37243.36377-.38975.6236a.433.433,0,0,0,.25983.36376,2.52036,2.52036,0,0,0,.86611.21653,26.44209,26.44209,0,0,0,4.49508.13857,33.36231,33.36231,0,0,0,4.09668-.537,4.56424,4.56424,0,0,0,1.28183.79681,24.57926,24.57926,0,0,1-5.00608.86611,21.26331,21.26331,0,0,1-4.80689-.1559,6.64291,6.64291,0,0,1-1.8448-.54564,1.00467,1.00467,0,0,1-.563-.55431A.62362.62362,0,0,1,69.1939,27.85283Z"/>
    <path class="b" d="M70.09465,31.2393a3.46435,3.46435,0,0,1,1.22987-.5543c-.13858.12991-.38975.29447-.27715.51966s.59761.30313.8661.37242a19.78244,19.78244,0,0,0,3.94944.17323,26.51168,26.51168,0,0,0,2.9361-.40708,14.437,14.437,0,0,0,1.73221.86611,12.87879,12.87879,0,0,1-2.88414.8661,15.2952,15.2952,0,0,1-5.04073.06929,7.03244,7.03244,0,0,1-2.1566-.6669,1.3078,1.3078,0,0,1-.63225-.60627.5543.5543,0,0,1,.23384-.60627"/>
    <path class="b" d="M70.09465,31.2393a3.46435,3.46435,0,0,1,1.22987-.5543c-.13858.12991-.38975.29447-.27715.51966s.59761.30313.8661.37242a19.78244,19.78244,0,0,0,3.94944.17323,26.51168,26.51168,0,0,0,2.9361-.40708,14.437,14.437,0,0,0,1.73221.86611,12.87879,12.87879,0,0,1-2.88414.8661,15.2952,15.2952,0,0,1-5.04073.06929,7.03244,7.03244,0,0,1-2.1566-.6669,1.3078,1.3078,0,0,1-.63225-.60627A.5543.5543,0,0,1,70.09465,31.2393Z"/>
    <path class="b" d="M65.79011,33.40457a7.67319,7.67319,0,0,1,2.19991-.459,1.61091,1.61091,0,0,1,.8661.16456,6.643,6.643,0,0,0-2.59831.69288.86612.86612,0,0,0-.45038.4244c0,.2425.26849.32045.45038.3984a14.212,14.212,0,0,0,3.46442.67556A60.81788,60.81788,0,0,0,80.28,35.1974a24.24934,24.24934,0,0,0,3.94944-.65824,2.23454,2.23454,0,0,0,1.14326-.64091.537.537,0,0,0-.11259-.67557c.25983.14724.63225.33778.58029.69289s-.485.563-.78816.74485a12.52416,12.52416,0,0,1-3.16994.98736,43.25358,43.25358,0,0,1-9.59645.6669,53.75871,53.75871,0,0,1-7.22331-.72753,2.2952,2.2952,0,0,1-1.22121-.51966c-.1992-.23385,0-.55431.17322-.72753a5.04062,5.04062,0,0,1,1.73221-.92673"/>
    <path class="b" d="M65.79011,33.40457a7.67319,7.67319,0,0,1,2.19991-.459,1.61091,1.61091,0,0,1,.8661.16456,6.643,6.643,0,0,0-2.59831.69288.86612.86612,0,0,0-.45038.4244c0,.2425.26849.32045.45038.3984a14.212,14.212,0,0,0,3.46442.67556A60.81788,60.81788,0,0,0,80.28,35.1974a24.24934,24.24934,0,0,0,3.94944-.65824,2.23454,2.23454,0,0,0,1.14326-.64091.537.537,0,0,0-.11259-.67557c.25983.14724.63225.33778.58029.69289s-.485.563-.78816.74485a12.52416,12.52416,0,0,1-3.16994.98736,43.25358,43.25358,0,0,1-9.59645.6669,53.75871,53.75871,0,0,1-7.22331-.72753,2.2952,2.2952,0,0,1-1.22121-.51966c-.1992-.23385,0-.55431.17322-.72753A5.0407,5.0407,0,0,1,65.79011,33.40457Z"/>
    <path class="b" d="M85.11291,36.08083a5.19677,5.19677,0,0,0,2.22589-1.1779A2.13929,2.13929,0,0,1,86.083,36.34066a12.21205,12.21205,0,0,1-3.55969,1.05665,44.951,44.951,0,0,1-7.84692.4677,30.25392,30.25392,0,0,1-5.36118-.49368,4.04483,4.04483,0,0,1-1.22987-.44171,37.4339,37.4339,0,0,0,4.74625.43305,50.89258,50.89258,0,0,0,7.795-.34645,26.84862,26.84862,0,0,0,4.47776-.92673"/>
    <path class="b" d="M85.11291,36.08083a5.19677,5.19677,0,0,0,2.22589-1.1779A2.13929,2.13929,0,0,1,86.083,36.34066a12.21205,12.21205,0,0,1-3.55969,1.05665,44.951,44.951,0,0,1-7.84692.4677,30.25392,30.25392,0,0,1-5.36118-.49368,4.04483,4.04483,0,0,1-1.22987-.44171,37.4339,37.4339,0,0,0,4.74625.43305,50.89258,50.89258,0,0,0,7.795-.34645A26.84907,26.84907,0,0,0,85.11291,36.08083Z"/>
    <path class="b" d="M64.6815,47.5827v-7.639h1.585v8.54845a5.04941,5.04941,0,0,1-.41573,2.34714,3.81955,3.81955,0,0,1-1.992,1.61962c-.25983-.27715-.485-.57163-.74485-.8661a2.74557,2.74557,0,0,0,1.45505-1.73221,13.70975,13.70975,0,0,0,.11259-2.32982"/>
    <path class="b" d="M64.6815,47.5827v-7.639h1.585v8.54845a5.04941,5.04941,0,0,1-.41573,2.34714,3.81955,3.81955,0,0,1-1.992,1.61962c-.25983-.27715-.485-.57163-.74485-.8661a2.74557,2.74557,0,0,0,1.45505-1.73221A13.71057,13.71057,0,0,0,64.6815,47.5827Z"/>
    <path class="b" d="M67.73885,43.00967a6.721,6.721,0,0,1,3.35182-.55431,2.34713,2.34713,0,0,1,1.585.76218A2.23453,2.23453,0,0,1,73.1,44.66393v5.19663H71.92213a6.03747,6.03747,0,0,0-.11259-.7795,4.0446,4.0446,0,0,1-1.46372.8228,3.16983,3.16983,0,0,1-1.93141-.09527,1.73219,1.73219,0,0,1-.996-1.14326,2.35578,2.35578,0,0,1,.41573-2.14794,3.08332,3.08332,0,0,1,1.82748-.91807,9.8381,9.8381,0,0,1,1.91409-.12125,2.73694,2.73694,0,0,0-.1992-1.45506,1.29051,1.29051,0,0,0-1.01334-.485,5.96744,5.96744,0,0,0-2.43376.40707c-.078-.3118-.14724-.6236-.21652-.92673m1.92275,3.59434a1.09127,1.09127,0,0,0-.75351.7102A1.38574,1.38574,0,0,0,69.064,48.5181a1.16926,1.16926,0,0,0,1.08263.3551,2.91017,2.91017,0,0,0,1.46372-.74485V46.39614a5.881,5.881,0,0,0-1.94874.18188"/>
    <path class="b" d="M67.73885,43.00967a6.721,6.721,0,0,1,3.35182-.55431,2.34713,2.34713,0,0,1,1.585.76218A2.23453,2.23453,0,0,1,73.1,44.66393v5.19663H71.92213a6.03747,6.03747,0,0,0-.11259-.7795,4.0446,4.0446,0,0,1-1.46372.8228,3.16983,3.16983,0,0,1-1.93141-.09527,1.73219,1.73219,0,0,1-.996-1.14326,2.35578,2.35578,0,0,1,.41573-2.14794,3.08332,3.08332,0,0,1,1.82748-.91807,9.8381,9.8381,0,0,1,1.91409-.12125,2.73694,2.73694,0,0,0-.1992-1.45506,1.29051,1.29051,0,0,0-1.01334-.485,5.96744,5.96744,0,0,0-2.43376.40707c-.078-.3118-.14724-.6236-.21652-.92673m1.92275,3.59434a1.09127,1.09127,0,0,0-.75351.7102A1.38574,1.38574,0,0,0,69.064,48.5181a1.16926,1.16926,0,0,0,1.08263.3551,2.91017,2.91017,0,0,0,1.46372-.74485V46.39614a5.88074,5.88074,0,0,0-1.94874.20787Z"/>
    <path class="b" d="M81.37134,43.00967a6.68624,6.68624,0,0,1,3.36915-.563,2.3558,2.3558,0,0,1,1.54166.72753,2.30387,2.30387,0,0,1,.459,1.533v5.136H85.58061a4.83152,4.83152,0,0,0-.1126-.7795,3.46442,3.46442,0,0,1-1.93141.86611,2.53771,2.53771,0,0,1-1.9574-.50235,2.23773,2.23773,0,0,1,.71021-3.51638,6.62576,6.62576,0,0,1,2.98806-.4677,2.95339,2.95339,0,0,0-.17322-1.40309,1.18656,1.18656,0,0,0-.95272-.537,5.88082,5.88082,0,0,0-2.529.40707c-.06929-.3118-.14724-.6236-.21653-.92674m1.89677,3.603a1.10861,1.10861,0,0,0-.72753.70155,1.42905,1.42905,0,0,0,.17323,1.20388,1.1952,1.1952,0,0,0,1.10861.3551,2.83213,2.83213,0,0,0,1.38577-.71886V46.39614a5.8288,5.8288,0,0,0-1.96606.18188"/>
    <path class="b" d="M81.37134,43.00967a6.68624,6.68624,0,0,1,3.36915-.563,2.3558,2.3558,0,0,1,1.54166.72753,2.30387,2.30387,0,0,1,.459,1.533v5.136H85.58061a4.83152,4.83152,0,0,0-.1126-.7795,3.46442,3.46442,0,0,1-1.93141.86611,2.53771,2.53771,0,0,1-1.9574-.50235,2.23773,2.23773,0,0,1,.71021-3.51638,6.62576,6.62576,0,0,1,2.98806-.4677,2.95339,2.95339,0,0,0-.17322-1.40309,1.18656,1.18656,0,0,0-.95272-.537,5.88082,5.88082,0,0,0-2.529.40707c-.06929-.3118-.14724-.6236-.21653-.92674m1.89677,3.603a1.10861,1.10861,0,0,0-.72753.70155,1.42905,1.42905,0,0,0,.17323,1.20388,1.1952,1.1952,0,0,0,1.10861.3551,2.83213,2.83213,0,0,0,1.38577-.71886V46.39614a5.82886,5.82886,0,0,0-1.97472.21653Z"/>
    <path class="b" d="M73.98346,42.542h1.62828l.94406,3.066c.18188.63226.41573,1.24719.5543,1.88811.06929.28582.12992.58029.21653.86611A28.86649,28.86649,0,0,0,78.773,42.55063h1.585a29.63816,29.63816,0,0,1-2.27786,7.30993H76.218c-.74485-2.43376-1.49836-4.85885-2.24321-7.2926"/>
    <path class="b" d="M73.98346,42.542h1.62828l.94406,3.066c.18188.63226.41573,1.24719.5543,1.88811.06929.28582.12992.58029.21653.86611A28.86649,28.86649,0,0,0,78.773,42.55063h1.585a29.63816,29.63816,0,0,1-2.27786,7.30993H76.218C75.47316,47.40082,74.72831,44.97573,73.98346,42.542Z"/>
  </g>
</svg>
