<svg xmlns="http://www.w3.org/2000/svg" viewBox="0 0 150.45265 58">
  <defs>
    <style>
      .a {
        fill: #fff;
        opacity: 0.76;
      }
    </style>
  </defs>
  <title>logo-JS</title>
  <path class="a" d="M83.99065,31.59372c0,1.144.70631,1.60166,2.33781,2.31792l.99482.40787c3.24309,1.39275,5.06361,2.80538,5.06361,5.9689,0,3.43211-2.69595,5.31231-6.31708,5.31231S80.24019,43.90953,79.1061,41.711L82.19,39.93028a4.14838,4.14838,0,0,0,3.7604,2.31792c1.58176,0,2.58652-.78591,2.58652-1.8802,0-1.30321-.99482-1.77077-2.77554-2.52683l-.99481-.40788c-2.7059-1.18383-4.5662-2.64621-4.5662-5.75,0-2.85512,2.17864-5.03377,5.58091-5.03377a5.63066,5.63066,0,0,1,5.42175,3.05408l-2.98445,1.9001a2.59646,2.59646,0,0,0-2.44724-1.63149,1.66134,1.66134,0,0,0-1.813,1.49436q-.00659.06839-.00751.13713m-6.9637,8.27687c0,3.97926-2.31792,5.74008-5.69035,5.74008a5.96889,5.96889,0,0,1-5.72018-3.48185h0l3.10382-1.8802c.59689,1.06445,1.144,1.98963,2.44724,1.98963s2.109-.52726,2.109-2.42735V26.88825H77.017ZM95.50066,8.24541H54.952V48.79408H95.50066Z"/>
</svg>
