<svg xmlns="http://www.w3.org/2000/svg" viewBox="0 0 150.45265 58">
  <defs>
    <style>
      .a {
        opacity: 0.76;
      }

      .b {
        fill: #fff;
      }
    </style>
  </defs>
  <title>logo-JSP</title>
  <g class="a">
    <g>
      <path class="b" d="M62.58885,33.0537a5.06643,5.06643,0,0,1-1.42654,4.04724,6.79327,6.79327,0,0,1-4.47327,1.22,12.04943,12.04943,0,0,1-1.8332-.19364,9.47848,9.47848,0,0,1-1.94939-.50349l1.11025-3.24038a6.87119,6.87119,0,0,0,1.32326.46476,5.8522,5.8522,0,0,0,1.42654.24529,2.78545,2.78545,0,0,0,1.38136-.2582,1.45335,1.45335,0,0,0,.60676-.90369,7.31282,7.31282,0,0,0,.18074-1.859V20.05346h3.65349Z"/>
      <path class="b" d="M80.41609,32.74386a5.00106,5.00106,0,0,1-1.7622,4.11825,8.0874,8.0874,0,0,1-5.19622,1.433,9.96748,9.96748,0,0,1-4.1247-.7875,6.44681,6.44681,0,0,1-2.84663-2.54324l2.80144-2.143a6.35172,6.35172,0,0,0,1.1748,1.31681,4.16148,4.16148,0,0,0,1.31681.68422,5.71633,5.71633,0,0,0,1.75574.24529,4.44171,4.44171,0,0,0,2.31732-.50994,1.69947,1.69947,0,0,0,.83269-1.55564,1.6476,1.6476,0,0,0-.29047-.99406,2.33779,2.33779,0,0,0-.87142-.69068,11.522,11.522,0,0,0-2.01394-.66486q-1.39426-.37374-2.62716-.75522a8.0049,8.0049,0,0,1-2.13013-.98761,4.47748,4.47748,0,0,1-1.41363-1.52336A4.65524,4.65524,0,0,1,66.822,25.0754a4.878,4.878,0,0,1,1.717-3.96978,7.5049,7.5049,0,0,1,4.91866-1.42654q4.634,0,6.55821,3.17582l-2.77562,2.16886a4.62912,4.62912,0,0,0-1.65246-1.62664,4.56706,4.56706,0,0,0-2.18177-.49058,4.0843,4.0843,0,0,0-2.05912.4583,1.54355,1.54355,0,0,0-.794,1.43945,1.44092,1.44092,0,0,0,.82623,1.32326,11.98047,11.98047,0,0,0,2.8789.92306q1.13671.29628,2.24632.639a7.12922,7.12922,0,0,1,1.98166.94887,4.49652,4.49652,0,0,1,1.40072,1.58792A5.28406,5.28406,0,0,1,80.41609,32.74386Z"/>
      <path class="b" d="M97.54619,26.04364a6.64519,6.64519,0,0,1-1.51691,4.78956q-1.51626,1.56274-4.92511,1.5621H88.1349v5.52542H84.49432V20.05346h6.71313a6.9981,6.9981,0,0,1,4.68628,1.41363Q97.54555,22.88072,97.54619,26.04364Zm-3.75677.02582a2.64189,2.64189,0,0,0-.83269-2.18177,4.94277,4.94277,0,0,0-3.00154-.67131H88.1349v6.00309h1.48463a9.32578,9.32578,0,0,0,2.76917-.27756,1.82566,1.82566,0,0,0,1.08443-.936A4.63711,4.63711,0,0,0,93.78942,26.06946Z"/>
    </g>
  </g>
</svg>
