<svg xmlns="http://www.w3.org/2000/svg" viewBox="0 0 150.45265 58">
  <defs>
    <style>
      .a, .b {
        fill: #fff;
      }

      .a {
        opacity: 0.76;
      }

      .b {
        opacity: 0.59;
      }
    </style>
  </defs>
  <title>logo-kotlin</title>
  <g>
    <g>
      <path class="a" d="M27.706,16.107,14.98674,29.48284V41.4404L27.68757,28.71719,40.32018,16.107Z"/>
      <path class="b" d="M14.98674,41.4404,27.68757,28.71719,40.32018,41.4404Z"/>
      <path class="b" d="M14.98674,16.107H27.706L14.98674,29.48284Z"/>
    </g>
    <path class="a" d="M135.41368,28.29659a10.17772,10.17772,0,0,0-.13927-1.26215,6.73722,6.73722,0,0,0-1.47977-3.2729,5.77977,5.77977,0,0,0-3.682-1.9324,7.26815,7.26815,0,0,0-3.2642.21761,6.96367,6.96367,0,0,0-3.18585,2.24576l-.44393.531V22.3427c0-.18279,0-.24372-.235-.24372h-5.03991c-.16539,0-.22631,0-.22631.21761V41.21408c0,.1828,0,.24373.235.24373h4.98768c.21761,0,.27855-.05223.27855-.27854V30.73385a7.83146,7.83146,0,0,1,0-1.00972,3.66462,3.66462,0,0,1,.9575-2.13261,3.32514,3.32514,0,0,1,2.6984-.87045,2.8899,2.8899,0,0,1,2.79416,2.15,6.09313,6.09313,0,0,1,.25242,1.94981v10.576h0c0,.09575.10445.05223.15668.05223h5.38807V28.39234C135.41368,28.38364,135.46591,28.34011,135.41368,28.29659Z"/>
    <path class="a" d="M60.80731,27.08666c-.11316-.15668-.10446-.235,0-.36559.63543-.64413,1.25345-1.30567,1.88017-1.96722q4.03018-4.17816,8.05167-8.37374c0-.05222.12187-.09575.13057-.1915H64.95065a1.47109,1.47109,0,0,0-1.24474.53968c-2.87249,3.13363-5.7711,6.24114-8.70451,9.35735l-1.00972,1.1403V16.42364c0-.20021-.05223-.24373-.25244-.24373H48.69063c-.1915,0-.25243,0-.25243.24373v24.773c0,.22631.06963.26113.26984.26113h5.0312c.21762,0,.26114-.06093.26114-.26984V33.93712a.4004.4004,0,0,1,.10445-.33078c.94009-.95749,1.86277-1.92369,2.82026-2.9073l.15669.2002,7.5381,10.40189a.36559.36559,0,0,0,.35689.17409H71.4007l-.15668-.21761Z"/>
    <path class="a" d="M100.7175,22.099H96.64378c-.18279,0-.235-.04352-.235-.235V17.38113c0-.1915,0-.235-.235-.235h-5.0051c-.22632,0-.25244.06964-.25244.26984v4.48282c0,.148,0,.20021-.1915.20021H88.82713c-.15668,0-.21761,0-.21761.2089v4.29133c0,.148,0,.2002.2002.2002h1.828c.22632,0,.296,0,.296.27855v8.79155a9.94013,9.94013,0,0,0,.235,2.32411,4.23039,4.23039,0,0,0,3.23808,3.35124,9.12268,9.12268,0,0,0,2.7071.21761,8.06907,8.06907,0,0,0,3.63849-1.01843.25242.25242,0,0,0,.15668-.24372v-4.2304l-.24373.11316a5.388,5.388,0,0,1-2.681.54839,1.41884,1.41884,0,0,1-1.48847-1.20122,3.2989,3.2989,0,0,1-.06093-.71377v-7.982c0-.1828,0-.235.235-.235H100.761c.1915,0,.22632-.05223.22632-.22632V22.334C100.96122,22.15121,100.90029,22.099,100.7175,22.099Z"/>
    <path class="a" d="M115.64574,31.7871V22.334c0-.17409,0-.25243-.22632-.25243h-5.066c-.17409,0-.20021.06093-.20021.21761q0,9.47051,0,18.93231c0,.1828,0,.22632.22632.22632h5.0138c.21762,0,.26114-.06093.26114-.26984C115.637,38.05435,115.64574,34.92072,115.64574,31.7871Z"/>
    <path class="a" d="M115.5761,16.17991h-5.35328c-.16539,0-.20021,0-.20021.15668V19.8184c0,.12186.05223.148.20021.148h5.37068c.16539,0,.21762,0,.21762-.16538V16.31918C115.79371,16.206,115.73278,16.17991,115.5761,16.17991Z"/>
    <path class="a" d="M83.54349,22.70829a10.82841,10.82841,0,0,0-7.67738-.55708A9.88829,9.88829,0,0,0,69.625,27.12148a9.67945,9.67945,0,0,0-1.07936,5.86684,9.49661,9.49661,0,0,0,2.063,5.0225,10.05369,10.05369,0,0,0,6.53709,3.743,3.05509,3.05509,0,0,1,.87045.13927h1.63644a1.57548,1.57548,0,0,1,.60062-.087,10.16681,10.16681,0,0,0,7.06806-3.8735,9.61844,9.61844,0,0,0,1.915-7.94722A9.514,9.514,0,0,0,83.54349,22.70829Zm-.679,12.60414a4.6134,4.6134,0,0,1-4.35226,1.82794,5.127,5.127,0,0,1-4.64821-5.17918v-.235a5.16177,5.16177,0,0,1,1.95852-4.27392,5.00512,5.00512,0,0,1,7.45977,1.66256A5.55351,5.55351,0,0,1,82.86454,35.31243Z"/>
    <path class="a" d="M108.02929,16.17991h-5.49255V41.21409c0,.1915,0,.24372.235.24372h5.0138c.20021,0,.24373-.05223.24373-.25243Z"/>
  </g>
</svg>
