<svg xmlns="http://www.w3.org/2000/svg" viewBox="0 0 150.45265 58">
  <defs>
    <style>
      .a {
        opacity: 0.76;
      }

      .b {
        fill: #fff;
      }
    </style>
  </defs>
  <title>logo-markdown</title>
  <g class="a">
    <g>
      <path class="b" d="M102.082,47.2952H51.19848a4.2928,4.2928,0,0,1-4.28793-4.28794V14.99274a4.2928,4.2928,0,0,1,4.28793-4.28794H102.082a4.29281,4.29281,0,0,1,4.28794,4.28794V43.00726A4.29281,4.29281,0,0,1,102.082,47.2952ZM51.19848,13.56343a1.431,1.431,0,0,0-1.42931,1.42931V43.00726a1.431,1.431,0,0,0,1.42931,1.42931H102.082a1.431,1.431,0,0,0,1.42931-1.42931V14.99274a1.431,1.431,0,0,0-1.42931-1.42931Z"/>
      <path class="b" d="M55.48644,38.71934V19.2807h5.71725l5.71725,7.14656,5.71725-7.14656h5.71725V38.71934H72.63819V27.57071l-5.71725,7.14656-5.71725-7.14656V38.71934Zm35.73281,0-8.57587-9.43346h5.71724V19.2807h5.71725V29.28588h5.71725Z"/>
    </g>
  </g>
</svg>
