<svg xmlns="http://www.w3.org/2000/svg" viewBox="0 0 123.60792 65">
  <defs>
    <style>
      .a {
        opacity: 0.65;
      }

      .b, .c, .d {
        fill: #fff;
        fill-rule: evenodd;
      }

      .b {
        opacity: 0.7;
      }

      .c {
        opacity: 0.9;
      }

      .d {
        opacity: 0.83;
      }
    </style>
  </defs>
  <title>Companies_Paypal</title>
  <g class="a">
    <path class="b" d="M21.4249,26.25723h6.65384c3.57209,0,4.91717,1.80828,4.70949,4.4693-.34248,4.38674-2.99474,6.81239-6.51266,6.81239H24.49948c-.48214,0-.80655.31871-.93776,1.18485l-.762,5.0289c-.04946.32666-.22126.51851-.47942.54173H18.14811c-.39257,0-.53225-.30037-.42948-.95084l2.54785-16.132A1.01722,1.01722,0,0,1,21.4249,26.25723Z"/>
    <path class="c" d="M50.30937,25.95917c2.24533,0,4.3163,1.21732,4.03278,4.2529-.33606,3.59859-2.27552,5.60261-5.32575,5.61092h-2.661c-.38361,0-.568.31172-.66869.95378L45.17319,40.052c-.07745.49451-.33085.7387-.70653.7387H41.98859c-.39525,0-.53312-.25256-.44505-.81732l2.04851-13.12846c.10073-.64556.34769-.8857.78543-.8857Zm-4.03661,7.02754,2.01861.00035c1.26183-.04761,2.101-.9215,2.18531-2.49853a1.52379,1.52379,0,0,0-1.65249-1.66573l-1.90028.00861-.65115,4.1553Zm14.80563,6.79745c.22626-.20534.45741-.31292.42381-.05885l-.0804.60836c-.042.317.08435.48657.38024.48657h2.20143c.37032,0,.55131-.15008.64264-.72326l1.35666-8.51511c.0681-.42782-.03534-.63773-.36039-.63773H63.222c-.21843,0-.32412.12269-.38122.456l-.08977.52414c-.04683.2736-.172.32091-.28829.04572-.41112-.97276-1.4585-1.40869-2.92751-1.37852a6.058,6.058,0,0,0-5.93009,5.95209,4.09217,4.09217,0,0,0,4.05628,4.5633,4.37582,4.37582,0,0,0,3.417-1.32267Zm-1.84216-1.30807a2.21137,2.21137,0,0,1-2.26791-2.59516,3.16162,3.16162,0,0,1,3.04-2.59507,2.2113,2.2113,0,0,1,2.26788,2.59507,3.16151,3.16151,0,0,1-3.04,2.59516ZM70.314,30.91688H68.08988c-.461,0-.64824.33726-.50175.76624l2.77158,8.117-2.73108,3.86059c-.22788.32212-.05214.61689.26945.61689h2.50953a.76817.76817,0,0,0,.74584-.36609l8.52443-12.22839c.26263-.37674.13874-.77086-.2917-.77125l-2.37255-.00249c-.40726-.00043-.57079.16069-.80445.49972l-3.55574,5.15858L71.07162,31.4001A.68338.68338,0,0,0,70.314,30.91688Z"/>
    <path class="b" d="M88.54964,25.95917c2.24533,0,4.31633,1.21732,4.03282,4.2529-.3361,3.59859-2.27552,5.60261-5.32581,5.61092h-2.661c-.38361,0-.568.31172-.66864.95378L83.41349,40.052c-.07749.49451-.33083.7387-.70656.7387h-2.478c-.39529,0-.53311-.25256-.4451-.81732l2.04852-13.12846c.10073-.64556.34768-.8857.78548-.8857ZM84.513,32.98671l2.01862.00035c1.26188-.04761,2.10105-.9215,2.18536-2.49853a1.52387,1.52387,0,0,0-1.65254-1.66573l-1.90028.00861-.65116,4.1553Zm14.80564,6.79745c.22631-.20534.45745-.31292.42386-.05885l-.08046.60836c-.04192.317.08436.48657.3803.48657h2.20142c.37028,0,.55132-.15008.6426-.72326l1.35666-8.51511c.06809-.42782-.03531-.63773-.36039-.63773H101.4623c-.2184,0-.32408.12269-.38119.456l-.0898.52414c-.04683.2736-.172.32091-.28829.04572-.41113-.97276-1.45845-1.40869-2.92747-1.37852a6.05794,6.05794,0,0,0-5.93008,5.95209,4.09215,4.09215,0,0,0,4.05623,4.5633,4.37567,4.37567,0,0,0,3.417-1.32267Zm-1.84211-1.30807a2.21139,2.21139,0,0,1-2.26793-2.59516,3.16156,3.16156,0,0,1,3.04-2.59507,2.21127,2.21127,0,0,1,2.26786,2.59507,3.16142,3.16142,0,0,1-3.03991,2.59516Zm10.15476,2.35949h-2.54094a.3.3,0,0,1-.31151-.35153l2.23458-14.14347a.43848.43848,0,0,1,.42261-.35153H109.977a.3.3,0,0,1,.31152.35153l-2.23458,14.14347A.43841.43841,0,0,1,107.63131,40.83558Z"/>
    <path class="c" d="M17.26507,20.7056h6.66046c1.87594,0,4.10073.0609,5.58916,1.37355a4.50879,4.50879,0,0,1,1.3955,3.77378c-.40844,5.08585-3.45058,7.9344-7.53,7.9344H20.09522c-.55911,0-.92972.37048-1.08741,1.37389l-.91666,5.83125c-.05944.37836-.22345.60127-.52284.62815H13.46543c-.45527,0-.61713-.34821-.498-1.10254l2.95442-18.70591A1.1795,1.1795,0,0,1,17.26507,20.7056Z"/>
    <path class="d" d="M19.10328,34.57334l1.1632-7.36185a1.01718,1.01718,0,0,1,1.15842-.95426h6.65388a6.498,6.498,0,0,1,2.68882.48891c-.66859,4.52617-3.596,7.04119-7.42986,7.04119H20.05282C19.62033,33.78733,19.29733,34.00826,19.10328,34.57334Z"/>
  </g>
</svg>
