<svg xmlns="http://www.w3.org/2000/svg" viewBox="0 0 150.45265 58">
  <defs>
    <style>
      .a {
        fill: #fff;
        opacity: 0.76;
      }
    </style>
  </defs>
  <title>logo-php_1</title>
  <path class="a" d="M65.66659,27.14244A3.23168,3.23168,0,0,0,65.3244,24.368q-.72136-.81384-2.91319-.79534H59.77546L58.342,30.97121h2.33055a5.63209,5.63209,0,0,0,3.44959-.86933,4.62408,4.62408,0,0,0,1.53521-2.91319m29.918,0a3.23167,3.23167,0,0,0-.34219-2.77447q-.72135-.81386-2.91319-.8046H89.6935L88.26,31.00821h2.33055a5.63216,5.63216,0,0,0,3.44959-.86934,4.62415,4.62415,0,0,0,1.53521-2.91319m3.95824.2682a7.65755,7.65755,0,0,1-2.40454,4.30968,6.78822,6.78822,0,0,1-2.55251,1.5352,11.77272,11.77272,0,0,1-3.57906.45317H87.72363l-.92483,4.67961H82.97928l3.42185-17.57165h7.39859q3.32936,0,4.85532,1.74792t.92483,4.87382M83.85787,25.672l-1.5907,8.18469H78.40141l1.51671-7.787A2.20205,2.20205,0,0,0,79.72391,24.22a2.66347,2.66347,0,0,0-1.90514-.48091H74.78535L72.82472,33.81967h-3.801L72.44555,16.248h3.838l-.92482,4.6796h3.38485q3.19989,0,4.41141,1.119t.73061,3.61606m-14.233,1.84965A7.6391,7.6391,0,0,1,67.248,31.82205a6.78816,6.78816,0,0,1-2.55252,1.53521,11.75441,11.75441,0,0,1-3.57906.45316H57.78709L56.86227,38.49h-3.801l3.42185-17.57164h7.39859q3.32935,0,4.85532,1.74791t.92483,4.87382m39.99861,1.0173c0-9.70139-14.94515-17.57164-33.37688-17.57164S42.90668,18.86527,42.90668,28.55742,57.85183,46.12907,76.28356,46.12907s33.37688-7.861,33.37688-17.57165"/>
</svg>
