<svg xmlns="http://www.w3.org/2000/svg" viewBox="0 0 150.45265 58">
  <defs>
    <style>
      .a {
        opacity: 0.76;
      }

      .b {
        fill: #fff;
      }
    </style>
  </defs>
  <title>logo-python_1</title>
  <g class="a">
    <g>
      <path class="b" d="M63.46111,28.82013q0-6.17376-3.549-6.34937a6.71893,6.71893,0,0,0-2.77265.45287,4.05728,4.05728,0,0,0-1.44178.75785v9.82443a7.061,7.061,0,0,0,4.02959,1.31239q3.69687-.24029,3.69687-5.99817m2.92053.1756a8.68769,8.68769,0,0,1-1.488,5.20335,5.54531,5.54531,0,0,1-4.62109,2.41221,8.20708,8.20708,0,0,1-4.57488-1.37709v8.92794l-2.5416-.92422V23.44119a5.65635,5.65635,0,0,1,1.65435-1.34936,11.09065,11.09065,0,0,1,5.54531-1.34936h0a5.05549,5.05549,0,0,1,4.56563,2.41221,10.16645,10.16645,0,0,1,1.49724,5.75788"/>
      <path class="b" d="M81.88077,34.846q0,4.20519-.85028,5.82257a5.9797,5.9797,0,0,1-3.25324,2.58781,12.54179,12.54179,0,0,1-4.20519.8318l-.4159-1.58966a20.22228,20.22228,0,0,0,3.23476-.61922,4.26064,4.26064,0,0,0,2.5416-1.84844,9.46394,9.46394,0,0,0,.55453-3.96489v-.6562a13.11463,13.11463,0,0,1-5.45289,1.17376,5.037,5.037,0,0,1-3.29945-1.17376,3.97412,3.97412,0,0,1-1.5989-3.23476V21.64821l2.5416-.85953V31.334a3.18852,3.18852,0,0,0,1.09982,2.60629,4.17749,4.17749,0,0,0,2.84659.92422,7.16276,7.16276,0,0,0,3.69687-1.34012V21.16761h2.5416Z"/>
      <path class="b" d="M91.78838,36.46341h-.841a5.01854,5.01854,0,0,1-3.35491-1.01664,3.51206,3.51206,0,0,1-1.19224-2.77265V22.748H84.66267V21.16761h1.73752V16.95318l2.53236-.92422v5.13865h2.85582V22.748H88.94179v9.85216a2.37523,2.37523,0,0,0,.7671,2.00556,3.90029,3.90029,0,0,0,2.08874.55453Z"/>
      <path class="b" d="M107.15812,36.26009h-2.5416V26.53732a4.62115,4.62115,0,0,0-.69317-2.55084,2.54157,2.54157,0,0,0-2.2366-1.21073,8.318,8.318,0,0,0-4.36231,1.84844v11.6359h-2.5416V13.02526l2.5416-.79483V22.81272a8.88173,8.88173,0,0,1,5.31425-1.756,4.25143,4.25143,0,0,1,3.26249,1.34935,4.71351,4.71351,0,0,1,1.25694,3.38264Z"/>
      <path class="b" d="M120.64245,28.42272a7.68954,7.68954,0,0,0-.92422-3.91868,3.78928,3.78928,0,0,0-3.33643-1.99631q-4.16821.2403-4.16822,5.92423a9.695,9.695,0,0,0,.86877,4.35307,3.512,3.512,0,0,0,3.36415,2.24585q4.18673,0,4.18671-6.562m2.77265,0a8.90938,8.90938,0,0,1-1.73753,5.61924,6.2662,6.2662,0,0,1-5.27728,2.51388,6.14606,6.14606,0,0,1-5.21259-2.51388,9.02967,9.02967,0,0,1-1.70056-5.61924,7.98527,7.98527,0,0,1,1.84844-5.342,6.36785,6.36785,0,0,1,5.11092-2.31054,6.46953,6.46953,0,0,1,5.14789,2.31054,7.98527,7.98527,0,0,1,1.84844,5.342"/>
      <path class="b" d="M137.96229,36.26009h-2.5416V25.992a3.4196,3.4196,0,0,0-1.05361-2.64326,3.69687,3.69687,0,0,0-2.77265-.92422,6.12749,6.12749,0,0,0-3.43809,1.17376V36.26009h-2.5416V23.321a12.53251,12.53251,0,0,1,4.13125-2.08873,12.36586,12.36586,0,0,1,3.05916-.45287,8.07833,8.07833,0,0,1,1.70056.1756,4.8984,4.8984,0,0,1,2.43069,1.27542,3.36413,3.36413,0,0,1,1.04437,2.48615Z"/>
      <path class="b" d="M28.08207,13.11768a22.12547,22.12547,0,0,0-3.65066.305c-3.23476.56377-3.817,1.756-3.817,3.93717V20.2434h7.634v.92421H17.77705a4.75972,4.75972,0,0,0-4.769,3.84475,14.07594,14.07594,0,0,0,0,7.69873c.54529,2.24585,1.84844,3.84474,4.05732,3.84474h2.62478V33.18244a4.83366,4.83366,0,0,1,4.769-4.70427h7.62479a3.83549,3.83549,0,0,0,3.817-3.85389v-7.2552a4.24215,4.24215,0,0,0-3.817-3.93717,24.0842,24.0842,0,0,0-4.00186-.31423m-4.13125,2.31978A1.44178,1.44178,0,1,1,22.537,16.90667l-.00023-.01818a1.44177,1.44177,0,0,1,1.43247-1.451h.00006"/>
      <path class="b" d="M36.86214,21.22307v3.36415a4.87987,4.87987,0,0,1-4.769,4.80593h-7.634a3.88172,3.88172,0,0,0-3.77081,3.84474V40.456c0,2.05177,1.80223,3.26249,3.817,3.854a12.93908,12.93908,0,0,0,7.62479,0c1.92237-.55453,3.817-1.66359,3.817-3.854V37.57247h-7.671v-.92421h11.451c2.21812,0,3.04992-1.53421,3.817-3.84475a12.93907,12.93907,0,0,0,0-7.69873c-.54529-2.1904-1.5989-3.84474-3.817-3.84474ZM32.57377,39.49485a1.44177,1.44177,0,1,1-1.43251,1.451l0-.00921a1.43254,1.43254,0,0,1,1.42327-1.44175l.00927,0"/>
    </g>
  </g>
</svg>
