<svg xmlns="http://www.w3.org/2000/svg" viewBox="0 0 150.45265 58">
  <defs>
    <style>
      .a {
        fill: #fff;
        opacity: 0.76;
      }
    </style>
  </defs>
  <title>logo-sass</title>
  <path class="a" d="M98.096,32.28631a12.24959,12.24959,0,0,0-5.389,1.25433,11.08838,11.08838,0,0,1-1.20788-2.7874,7.70946,7.70946,0,0,1-.10452-2.34607,18.81424,18.81424,0,0,1,.70846-2.53189c-.01161-.10452-.12776-.61555-1.324-.62716s-2.22993.23228-2.34607.54586a13.34087,13.34087,0,0,0-.49941,1.777c-.20905,1.09173-2.39252,4.95925-3.63523,6.99174a7.12968,7.12968,0,0,1-.82461-2.0441,7.70938,7.70938,0,0,1-.10453-2.34606,18.81438,18.81438,0,0,1,.70847-2.53189c-.01162-.10453-.12776-.61555-1.324-.62717s-2.22992.23229-2.34606.54587-.2439,1.05689-.49941,1.777c-.2439.72008-3.14744,7.17756-3.90236,8.86161-.38327.85945-.72008,1.54468-.964,2.00925s-.01161.03484-.03484.0813c-.20906.39488-.3252.61555-.3252.61555v.01162c-.1626.29035-.33681.56909-.41811.56909a3.87361,3.87361,0,0,1,.02323-1.84665c.42972-2.24154,1.475-5.7374,1.46339-5.86516,0-.05807.19744-.67362-.67363-.98721a1.05834,1.05834,0,0,0-1.21948.20906c-.06969,0-.12776.18583-.12776.18583s.94075-3.93721-1.8002-3.93721c-1.7189,0-4.08819,1.86988-5.26122,3.57717-.74331.40649-2.32283,1.26594-3.99527,2.18346-.63878.34843-1.30079.72008-1.928,1.05689l-.12775-.13937c-3.32166-3.54232-9.46555-6.051-9.21-10.81279.09291-1.73051.69685-6.29488,11.8-11.82323C72.301,8.756,79.583,9.99871,80.849,12.76288c1.80019,3.94882-3.89075,11.289-13.34469,12.34587-3.60039.40649-5.4935-.98721-5.96968-1.50984-.49941-.54587-.5691-.5691-.75492-.46457-.302.1626-.11615.65039,0,.94075A5.60626,5.60626,0,0,0,64.19425,26.758c1.73051.5691,5.95807.88268,11.06831-1.09173,5.72579-2.21831,10.19725-8.37382,8.88485-13.5189-1.33563-5.238-10.023-6.95689-18.23426-4.04173A41.33737,41.33737,0,0,0,51.91807,16.131c-4.52952,4.22756-5.2496,7.92087-4.94763,9.45394,1.05689,5.47028,8.59448,9.03583,11.61417,11.67225-.151.0813-.29035.16259-.41811.23228-1.50984.7433-7.25886,3.75138-8.699,6.93366-1.626,3.6004.25552,6.19035,1.50985,6.53878a9.281,9.281,0,0,0,9.9998-4.05335,10.02926,10.02926,0,0,0,.89429-9.23326l-.03484-.06969,1.18464-.69685c.76654-.45295,1.52146-.87106,2.18347-1.2311a14.45969,14.45969,0,0,0-.77815,3.94882c-.1626,2.04409.67362,4.69212,1.777,5.7374a1.96558,1.96558,0,0,0,1.42854.46456c1.27756,0,1.85827-1.05689,2.497-2.32283.78976-1.54468,1.48661-3.33327,1.48661-3.33327s-.87106,4.84311,1.50985,4.84311c.87106,0,1.74212-1.12657,2.137-1.70728v.01161s.02323-.03484.06969-.11614c.09291-.13937.13937-.22067.13937-.22067v-.02323c.34842-.60394,1.12657-1.986,2.288-4.274,1.49823-2.95,2.93838-6.64331,2.93838-6.64331a21.20012,21.20012,0,0,0,.5691,2.39252,22.92078,22.92078,0,0,0,1.24272,2.7874c-.34843.4878-.55748.76654-.55748.76654l.01161.01161c-.27874.37166-.59232.76654-.91752,1.16142a33.75791,33.75791,0,0,0-2.7874,3.49587.95692.95692,0,0,0,.25551,1.27756,2.3241,2.3241,0,0,0,1.46339.23228,6.5193,6.5193,0,0,0,2.18346-.49941,7.56172,7.56172,0,0,0,1.8815-.9872,4.18914,4.18914,0,0,0,1.8002-3.70492,7.44919,7.44919,0,0,0-.68524-2.61319c.10453-.151.20906-.302.31359-.46457a49.01485,49.01485,0,0,0,3.252-5.63287,21.19891,21.19891,0,0,0,.56909,2.39252,16.78571,16.78571,0,0,0,1.05689,2.39252,10.32521,10.32521,0,0,0-3.17067,4.0998c-.68523,1.97441-.151,2.8687.85945,3.07776a3.09193,3.09193,0,0,0,1.59114-.3252,7.20462,7.20462,0,0,0,2.00925-1.03366,4.54323,4.54323,0,0,0,2.21831-3.67008,7.03546,7.03546,0,0,0-.49941-2.17185,11.315,11.315,0,0,1,5.76063-.662c5.16831.60394,6.19036,3.83268,5.99292,5.17993a3.46989,3.46989,0,0,1-1.6376,2.32283c-.36.22067-.47618.302-.44134.46457.04646.2439.20906.23228.52264.18582a4.02012,4.02012,0,0,0,2.81063-3.58877c.13937-3.1939-2.89193-6.67815-8.26929-6.64331ZM58.23618,45.7239c-1.70729,1.86989-4.11142,2.57835-5.13347,1.97441-1.10334-.63878-.67362-3.39134,1.42854-5.37736a27.328,27.328,0,0,1,4.03012-3.00807c.2439-.151.61556-.37165,1.05689-.63878a1.20779,1.20779,0,0,1,.11615-.06968c.08129-.04646.17421-.10453.26712-.1626a7.40834,7.40834,0,0,1-1.76535,7.28209Zm12.48523-8.49c-.59232,1.45177-1.84665,5.17992-2.60157,4.97087-.6504-.17422-1.04528-2.99646-.12776-5.78386a12.91114,12.91114,0,0,1,2.03248-3.72815c.94075-1.04528,1.9628-1.3937,2.21831-.964C72.54484,32.2863,71.09307,36.328,70.72141,37.23394Zm10.30177,4.92441c-.25551.12776-.48779.22067-.59232.151-.0813-.04645.10453-.22067.10453-.22067s1.28917-1.38208,1.80019-2.02086c.29036-.37166.63878-.80138,1.01044-1.28917V38.918C83.346,40.59044,81.74326,41.7054,81.02318,42.15835Zm7.9441-1.81181c-.18583-.13937-.1626-.5691.46456-1.91634a7.17929,7.17929,0,0,1,1.76536-2.27638,2.87618,2.87618,0,0,1,.17421.99882A3.2682,3.2682,0,0,1,88.96728,40.34654Z"/>
</svg>
