<svg xmlns="http://www.w3.org/2000/svg" viewBox="0 0 123.60792 65">
  <defs>
    <style>
      .a {
        opacity: 0.65;
      }

      .b {
        fill: #fff;
      }
    </style>
  </defs>
  <title>Companies_Schneider Electric</title>
  <g class="a">
    <g>
      <polygon class="b" points="61.116 36.435 57.364 36.435 57.364 39.109 60.977 39.109 60.977 40.256 57.364 40.256 57.364 43 61.22 43 61.22 44.147 56.114 44.147 56.114 35.289 61.116 35.289 61.116 36.435 61.116 36.435"/>
      <polygon class="b" points="63.982 35.289 65.128 35.289 65.128 44.147 63.982 44.147 63.982 35.289 63.982 35.289"/>
      <path class="b" d="M69.57367,41.4031h4.09894c0-2.15422-1.00674-3.19627-2.53585-3.19627a2.69667,2.69667,0,0,0-2.70962,2.95247,2.86775,2.86775,0,0,0,2.81369,3.09186,4.01,4.01,0,0,0,2.32771-.69517V42.44522a3.73568,3.73568,0,0,1-2.04981.69447,1.80969,1.80969,0,0,1-1.94506-1.73659Zm1.5978-2.22357a1.343,1.343,0,0,1,1.35528,1.459H69.60866a1.48845,1.48845,0,0,1,1.56281-1.459Z"/>
      <path class="b" d="M80.95029,39.839a2.68092,2.68092,0,0,0-1.59814-.59012,1.77641,1.77641,0,0,0-1.77156,1.98045,1.80613,1.80613,0,0,0,1.9454,1.94539,4.11158,4.11158,0,0,0,1.56274-.382v1.11081a5.14933,5.14933,0,0,1-1.73658.34759,2.81857,2.81857,0,0,1-2.95308-2.91877,2.799,2.799,0,0,1,2.84868-3.12556,3.82079,3.82079,0,0,1,1.70254.38326V39.839Z"/>
      <path class="b" d="M86.12572,38.31191h1.84167v1.04138H86.12572v2.98685a.8058.8058,0,0,0,.83426.86894,2.64359,2.64359,0,0,0,1.31894-.41632v1.07645a3.8073,3.8073,0,0,1-1.42437.38195,1.72262,1.72262,0,0,1-1.875-1.84166V39.35329H83.97279V39.2139l2.15293-2.11855v1.21656Z"/>
      <path class="b" d="M92.1185,38.31191v1.35332h0c.59045-1.04144,1.14517-1.4584,1.70125-1.4584a2.05734,2.05734,0,0,1,1.38932.66015l-.62645,1.00768a1.78473,1.78473,0,0,0-1.07508-.55635,1.59765,1.59765,0,0,0-1.389,1.77156v3.05755H90.97237V38.31191Z"/>
      <polygon class="b" points="98.473 38.312 99.62 38.312 99.62 44.147 98.473 44.147 98.473 38.312 98.473 38.312"/>
      <path class="b" d="M107.07146,39.839a2.68132,2.68132,0,0,0-1.59847-.59012,1.77613,1.77613,0,0,0-1.771,1.98045,1.806,1.806,0,0,0,1.94473,1.94539,4.11339,4.11339,0,0,0,1.56281-.382v1.11081a5.14666,5.14666,0,0,1-1.73658.34759,2.81807,2.81807,0,0,1-2.95247-2.91877,2.7986,2.7986,0,0,1,2.84935-3.12556,3.82005,3.82005,0,0,1,1.70159.38326V39.839Z"/>
    </g>
    <g>
      <g>
        <path class="b" d="M24.77364,22.28414a11.57718,11.57718,0,0,0-4.77492-1.31563c-1.36421,0-2.24144.487-2.24144,1.21853,0,2.289,7.69864,1.6566,7.69864,6.9179,0,2.87513-2.43666,4.58065-5.79817,4.58065a10.00108,10.00108,0,0,1-5.45692-1.46165v-3.265c2.14332,1.46233,3.45929,1.94932,5.16454,1.94932,1.46131,0,2.24109-.487,2.24109-1.41212,0-2.43767-7.74755-1.5595-7.74755-6.96811,0-2.632,2.29029-4.33685,5.79884-4.33685a12.11131,12.11131,0,0,1,5.11589,1.17028v2.9227Z"/>
        <path class="b" d="M35.59,33.003a10.82961,10.82961,0,0,1-3.45963.68262c-3.60531,0-5.94425-2.09535-5.94425-5.31084,0-3.11832,2.43672-5.31151,5.79857-5.31151a9.93286,9.93286,0,0,1,3.46.68262v2.38746a6.32371,6.32371,0,0,0-2.632-.73086,2.99945,2.99945,0,1,0-.0971,5.99345,7.88168,7.88168,0,0,0,2.87445-.7308V33.003Z"/>
        <path class="b" d="M43.92237,31.73694V27.64389c0-1.51057-.63274-2.24143-1.65633-2.24143-.7318,0-1.36455.48706-2.14426,1.5595v6.52875H36.90561V18.38543h3.21617v6.38334h.04851a3.91913,3.91913,0,0,1,3.21583-1.70553A3.561,3.561,0,0,1,47.13746,26.962v4.14061a12.52889,12.52889,0,0,0-3.21509.63437Z"/>
        <path class="b" d="M48.64871,30.90824V23.25887H51.8642v1.46165A4.18705,4.18705,0,0,1,55.227,23.06324,3.56,3.56,0,0,1,58.92914,26.962v6.52875H55.713V27.25407c0-1.46172-.68167-2.04588-1.60741-2.04588-.78039,0-1.36455.43814-2.24143,1.70484v4.48288a18.91181,18.91181,0,0,0-3.21549-.48767Z"/>
        <path class="b" d="M65.60486,23.06324a5.18329,5.18329,0,0,0-5.40929,5.36044c0,3.16656,2.33888,5.26191,5.94487,5.26191a7.35783,7.35783,0,0,0,4.5797-1.36388V30.32347a6.144,6.144,0,0,1-3.80026,1.461c-1.998,0-3.26373-1.07183-3.36219-2.87384h7.30982c.19461-3.75134-2.29035-5.84743-5.26265-5.84743ZM63.607,27.20582a2.217,2.217,0,1,1,4.43362,0Z"/>
        <polygon class="b" points="72.134 23.259 75.349 23.259 75.349 33.491 72.134 33.491 72.134 23.259 72.134 23.259"/>
        <path class="b" d="M84.26687,18.38543v5.31218a6.15815,6.15815,0,0,0-2.6316-.63437c-2.92405,0-4.96993,2.14495-4.96993,5.31151,0,3.0694,2.04588,5.31084,4.77465,5.31084a4.14129,4.14129,0,0,0,2.82688-1.02291v.828H87.4827V18.38543Zm0,12.32725a2.66656,2.66656,0,0,1-1.9008.82864c-1.51058,0-2.4849-1.2661-2.4849-3.11764,0-2.04717.97432-3.21549,2.58335-3.21549a3.31619,3.31619,0,0,1,1.80235.58416v4.92033Z"/>
        <path class="b" d="M94.25491,23.06324a5.18149,5.18149,0,0,0-5.408,5.36044c0,3.16656,2.33854,5.26191,5.94419,5.26191a7.43576,7.43576,0,0,0,4.58-1.36388V30.32347a6.14861,6.14861,0,0,1-3.80026,1.461c-2.04683,0-3.26468-1.07183-3.41138-2.87384h7.357c.14609-3.75134-2.28969-5.84743-5.26158-5.84743Zm-1.99662,4.14258c.145-1.41347.92513-2.24211,2.19218-2.24211a2.23343,2.23343,0,0,1,2.23981,2.24211Z"/>
        <path class="b" d="M104.33972,26.18224h.04885c.92581-2.14433,1.99764-3.119,3.265-3.119a3.4512,3.4512,0,0,1,2.09541.9271l-.87689,2.82559a3.46975,3.46975,0,0,0-1.89979-.73153c-1.17028,0-1.94939,1.12142-2.63261,2.97162v4.43469h-3.21549V23.25887h3.21549v2.92337Z"/>
      </g>
      <path class="b" d="M75.49573,18.92134a2.245,2.245,0,0,1-1.21785,2.48591c-.97568.58484-1.99824.3899-2.29063-.38982a2.2992,2.2992,0,0,1,1.21914-2.4853c.97439-.58417,1.99628-.3899,2.28934.38921Z"/>
    </g>
    <path class="b" d="M99.68964,36.22706a.81045.81045,0,0,1-.452.86829c-.34753.20814-.69445.13946-.79886-.13946a.78376.78376,0,0,1,.417-.86762.55573.55573,0,0,1,.83391.13879Z"/>
    <path class="b" d="M49.82958,37.92531h3.15449A4.96887,4.96887,0,0,0,51.61143,33.075c-2.49948-2.14231-7.2698-1.052-10.6194,2.42977-3.34894,3.47911-4.04179,8.06441-1.54231,10.20673,2.49948,2.14165,7.27046,1.052,10.6194-2.42911a12.466,12.466,0,0,0,1.261-1.54491H48.78485l.42622-1.315H52.1209a9.99261,9.99261,0,0,0,.509-1.18288h-3.2262Zm-9.90409-1.10882h1.93318l-.42622,1.31433H39.09652A11.71351,11.71351,0,0,1,39.92549,36.81649Zm-1.769,3.81282A8.87,8.87,0,0,1,38.551,39.315h2.68913l-.42688,1.31433Zm10.72975-3.80225c-.38921.00467-.52434.09247-.60628.40305l-1.04737,3.95225a4.18829,4.18829,0,0,1-3.85908,2.62738H40.01074l.53293-2.05707,1.874.01784a.79118.79118,0,0,0,.753-.49626l.82765-3.63841a4.0563,4.0563,0,0,1,3.74905-2.68347h3.32548l-.44108,1.85747Z"/>
  </g>
</svg>
