<svg xmlns="http://www.w3.org/2000/svg" viewBox="0 0 150.45265 58">
  <defs>
    <style>
      .a {
        opacity: 0.76;
      }

      .b {
        fill: #fff;
      }
    </style>
  </defs>
  <title>logo-shellscript_1</title>
  <g class="a">
    <g>
      <path class="b" d="M22.30309,30.35411a4.76755,4.76755,0,0,1-1.67978,3.92564,7.70856,7.70856,0,0,1-4.95319,1.366,9.51312,9.51312,0,0,1-3.9318-.75067,6.137,6.137,0,0,1-2.71349-2.42429L11.69525,30.428a6.03125,6.03125,0,0,0,1.11986,1.25522,3.94714,3.94714,0,0,0,1.25522.65222,5.457,5.457,0,0,0,1.67362.23382,4.22955,4.22955,0,0,0,2.20894-.48609,1.62034,1.62034,0,0,0,.79375-1.48289,1.57116,1.57116,0,0,0-.27689-.94757,2.23456,2.23456,0,0,0-.83066-.65837,11.03654,11.03654,0,0,0-1.91975-.63376q-1.32906-.35673-2.50429-.71991a7.60124,7.60124,0,0,1-2.0305-.94141A4.253,4.253,0,0,1,9.837,25.24709a4.44154,4.44154,0,0,1-.49225-2.20279,4.65,4.65,0,0,1,1.63671-3.78412,7.15512,7.15512,0,0,1,4.68862-1.35982q4.41772,0,6.25148,3.0273l-2.6458,2.06742a4.42057,4.42057,0,0,0-1.57518-1.55057,4.35073,4.35073,0,0,0-2.07973-.46763,3.89811,3.89811,0,0,0-1.96282.43687,1.47165,1.47165,0,0,0-.75682,1.37212,1.37375,1.37375,0,0,0,.78759,1.26138,11.42453,11.42453,0,0,0,2.74425.87988q1.08263.28335,2.14126.60915a6.77464,6.77464,0,0,1,1.889.9045,4.30278,4.30278,0,0,1,1.33521,1.51365A5.03151,5.03151,0,0,1,22.30309,30.35411Z"/>
      <path class="b" d="M34.07016,35.28885V28.17594a6.263,6.263,0,0,0-.38149-2.70734,1.42741,1.42741,0,0,0-1.35366-.66453q-1.41535,0-3.40879,1.87052v8.61426h-3.175V16.9651h3.175v7.0883a7.31146,7.31146,0,0,1,2.15357-1.52595,5.41747,5.41747,0,0,1,2.2397-.51686,3.508,3.508,0,0,1,3.04576,1.2183,5.81453,5.81453,0,0,1,.87988,3.4457v8.61426Z"/>
      <path class="b" d="M43.979,29.665a3.67582,3.67582,0,0,0,.83681,2.47352,3.227,3.227,0,0,0,2.36277.75067,5.23839,5.23839,0,0,0,1.64286-.23381,2.63019,2.63019,0,0,0,1.23676-.89835L52.421,33.44294a4.77978,4.77978,0,0,1-2.012,1.67362,8.42921,8.42921,0,0,1-3.378.55378,6.22077,6.22077,0,0,1-4.7563-1.67363,7.16278,7.16278,0,0,1-1.569-5.0578q0-6.92817,6.20226-6.92832a5.45593,5.45593,0,0,1,4.20253,1.55672,6.43376,6.43376,0,0,1,1.446,4.53479V29.665Zm5.427-2.19048q0-2.941-2.572-2.94115a2.942,2.942,0,0,0-1.39059.28919,2.16115,2.16115,0,0,0-.86758.86143,5.43592,5.43592,0,0,0-.5107,1.79053Z"/>
      <path class="b" d="M56.05374,35.28885V16.9651h3.175V35.28885Z"/>
      <path class="b" d="M63.43985,35.28885V16.9651h3.175V35.28885Z"/>
      <path class="b" d="M83.132,30.35411a4.76757,4.76757,0,0,1-1.67978,3.92564,7.70857,7.70857,0,0,1-4.9532,1.366,9.5131,9.5131,0,0,1-3.93179-.75067,6.137,6.137,0,0,1-2.71349-2.42429L72.52419,30.428A6.03152,6.03152,0,0,0,73.644,31.68317a3.94725,3.94725,0,0,0,1.25522.65222,5.45712,5.45712,0,0,0,1.67363.23382,4.22955,4.22955,0,0,0,2.20894-.48609,1.62034,1.62034,0,0,0,.79374-1.48289,1.57115,1.57115,0,0,0-.27688-.94757,2.23456,2.23456,0,0,0-.83066-.65837,11.03684,11.03684,0,0,0-1.91975-.63376q-1.32906-.35673-2.50429-.71991a7.60124,7.60124,0,0,1-2.0305-.94141A4.25315,4.25315,0,0,1,70.666,25.24709a4.44165,4.44165,0,0,1-.49224-2.20279,4.65,4.65,0,0,1,1.63671-3.78412,7.15509,7.15509,0,0,1,4.68861-1.35982q4.41774,0,6.25149,3.0273l-2.6458,2.06742a4.42065,4.42065,0,0,0-1.57518-1.55057,4.35079,4.35079,0,0,0-2.07973-.46763,3.89811,3.89811,0,0,0-1.96282.43687,1.47165,1.47165,0,0,0-.75682,1.37212,1.37374,1.37374,0,0,0,.78759,1.26138,11.42453,11.42453,0,0,0,2.74425.87988q1.08262.28335,2.14126.60915a6.77477,6.77477,0,0,1,1.889.9045,4.30288,4.30288,0,0,1,1.33521,1.51365A5.03163,5.03163,0,0,1,83.132,30.35411Z"/>
      <path class="b" d="M97.24956,33.44294a4.71741,4.71741,0,0,1-1.94436,1.66132,7.19267,7.19267,0,0,1-3.05191.56608,6.17309,6.17309,0,0,1-4.72553-1.7044A7.13041,7.13041,0,0,1,85.928,28.9143a7.60351,7.60351,0,0,1,1.55057-5.08241,5.771,5.771,0,0,1,4.65169-1.8213,7.63292,7.63292,0,0,1,2.95961.54147A4.03909,4.03909,0,0,1,97.065,24.22568L94.7022,25.91162a2.72945,2.72945,0,0,0-1.00909-.85527,3.4592,3.4592,0,0,0-1.489-.27689,2.61047,2.61047,0,0,0-2.31354.99679,5.49792,5.49792,0,0,0-.68914,3.08883,5.22721,5.22721,0,0,0,.7076,3.05806,2.80046,2.80046,0,0,0,2.41814.966A4.17851,4.17851,0,0,0,93.6808,32.68a2.58934,2.58934,0,0,0,1.16908-.923Z"/>
      <path class="b" d="M108.03215,25.4809a2.93576,2.93576,0,0,0-1.30445-.24612,3.51079,3.51079,0,0,0-1.67978.42456,7.40605,7.40605,0,0,0-1.63055,1.23676v8.39275h-3.175V22.37977h3.175v1.84591a8.29393,8.29393,0,0,1,1.74746-1.46442,3.89736,3.89736,0,0,1,2.092-.57838,2.80936,2.80936,0,0,1,1.4029.25842Z"/>
      <path class="b" d="M114.56913,18.86024a1.53117,1.53117,0,0,1-.443,1.25522,2.13427,2.13427,0,0,1-1.35367.35687,1.77268,1.77268,0,0,1-1.37213-.41841,1.76626,1.76626,0,0,1-.363-1.19368,1.65062,1.65062,0,0,1,.39379-1.23677,1.92075,1.92075,0,0,1,1.34137-.37533,2.095,2.095,0,0,1,1.37828.363A1.586,1.586,0,0,1,114.56913,18.86024Zm-3.35955,16.42861V22.37977h3.175V35.28885Z"/>
      <path class="b" d="M130.64333,28.742a9.92623,9.92623,0,0,1-.62761,3.66721,5.26141,5.26141,0,0,1-1.79669,2.42429,4.67346,4.67346,0,0,1-2.79347.83682,5.31919,5.31919,0,0,1-3.65491-1.34137v5.82078h-3.175v-17.77h2.92885V23.6473a7.62408,7.62408,0,0,1,1.86437-1.19984,5.46058,5.46058,0,0,1,2.24586-.43687,4.35779,4.35779,0,0,1,3.72874,1.72285A8.31275,8.31275,0,0,1,130.64333,28.742Zm-3.27341.04922a5.56994,5.56994,0,0,0-.65223-2.935,2.14057,2.14057,0,0,0-1.94436-1.05217,3.91922,3.91922,0,0,0-1.59363.363,5.337,5.337,0,0,0-1.409.89219v5.64849a5.07511,5.07511,0,0,0,1.24907.806,3.557,3.557,0,0,0,1.5321.35072,2.36773,2.36773,0,0,0,2.06127-1.1137A5.18,5.18,0,0,0,127.36992,28.79124Z"/>
      <path class="b" d="M141.33977,35.28885a9.39479,9.39479,0,0,1-2.695.38149,4.36364,4.36364,0,0,1-3.22419-1.0091,4.56578,4.56578,0,0,1-.98449-3.27342v-6.4853h-1.6367V22.37977h1.6367V18.7864h3.175v3.59337h3.00269v2.52275H137.611v6.0792a2.58132,2.58132,0,0,0,.37534,1.63671,1.3352,1.3352,0,0,0,1.06447.43071,4.49688,4.49688,0,0,0,1.73516-.35687Z"/>
    </g>
  </g>
</svg>
