<svg xmlns="http://www.w3.org/2000/svg" viewBox="0 0 150.45265 58">
  <defs>
    <style>
      .a {
        opacity: 0.76;
      }

      .b {
        fill: #fff;
      }
    </style>
  </defs>
  <title>logo-sql</title>
  <g class="a">
    <path class="b" d="M66.49209,30.661A4.89354,4.89354,0,0,1,64.768,34.6902a7.91185,7.91185,0,0,1-5.08392,1.402,9.76149,9.76149,0,0,1-4.03556-.77048,6.30289,6.30289,0,0,1-2.7851-2.48828l2.74089-2.09672a6.204,6.204,0,0,0,1.14941,1.28835,4.06214,4.06214,0,0,0,1.28835.66943,5.60545,5.60545,0,0,0,1.71779.24,4.34269,4.34269,0,0,0,2.26724-.49892,1.66319,1.66319,0,0,0,.81469-1.522,1.612,1.612,0,0,0-.28419-.97257,2.29146,2.29146,0,0,0-.85259-.67575,11.31,11.31,0,0,0-1.97041-.65049q-1.36413-.3663-2.57038-.73891a7.81767,7.81767,0,0,1-2.08409-.96626A4.37229,4.37229,0,0,1,53.697,25.41915a4.56024,4.56024,0,0,1-.50523-2.26092,4.77276,4.77276,0,0,1,1.6799-3.884,7.34356,7.34356,0,0,1,4.81236-1.39571q4.53447,0,6.41647,3.10719l-2.71563,2.122a4.53289,4.53289,0,0,0-1.61675-1.59149,4.46348,4.46348,0,0,0-2.13462-.48,3.99935,3.99935,0,0,0-2.01462.44839,1.5102,1.5102,0,0,0-.77679,1.40834,1.41049,1.41049,0,0,0,.80837,1.29466,11.73421,11.73421,0,0,0,2.81668.90311q1.11151.29051,2.19777.62523a6.946,6.946,0,0,1,1.93883.92837,4.41073,4.41073,0,0,1,1.37045,1.55359A5.1625,5.1625,0,0,1,66.49209,30.661Z"/>
    <path class="b" d="M83.74583,39.67939a10.20262,10.20262,0,0,1-1.49044.29051,14.30975,14.30975,0,0,1-2.02093.15157q-5.03971,0-5.82283-4.16818A6.07133,6.07133,0,0,1,70.1803,33.364a11.02487,11.02487,0,0,1-1.541-6.37858,10.84067,10.84067,0,0,1,1.82516-6.73856q1.82515-2.36829,5.72809-2.36829,3.87768,0,5.6902,2.38092a10.906,10.906,0,0,1,1.81253,6.72593q0,7.71746-5.406,8.91738a1.518,1.518,0,0,0,.54313.99152,2.6462,2.6462,0,0,0,1.50307.30946,8.50224,8.50224,0,0,0,1.31993-.12,10.497,10.497,0,0,0,1.2694-.27157Zm-3.7261-12.694a8.91552,8.91552,0,0,0-.87784-4.52816,3.19225,3.19225,0,0,0-2.94931-1.421,3.23875,3.23875,0,0,0-3.01246,1.421,9.0256,9.0256,0,0,0-.86521,4.52816,8.9155,8.9155,0,0,0,.87785,4.52816,3.24365,3.24365,0,0,0,2.99982,1.421,3.16892,3.16892,0,0,0,2.97457-1.43992A9.15465,9.15465,0,0,0,80.01973,26.98538Z"/>
    <path class="b" d="M86.67619,35.72593V18.24483h3.5619V32.46717h7.35116v3.25876Z"/>
  </g>
</svg>
