<svg xmlns="http://www.w3.org/2000/svg" viewBox="0 0 130.10154 65">
  <defs>
    <style>
      .a {
        opacity: 0.65;
      }

      .b {
        fill: #fff;
      }
    </style>
  </defs>
  <title>Companies_Toptal</title>
  <g class="a">
    <path class="b" d="M39.68756,30.09841,27.62011,18.032l-2.44033,2.4404,4.52443,4.52478-9.76349,9.76287L32.00817,46.82785l2.44033-2.44172L29.92407,39.86m-4.56945-4.66436,7.26191-7.2633,1.49615,1.49581-7.26322,7.26261Z"/>
    <path class="b" d="M48.006,21.53672v3.69733h4.01546v2.13476H48.006V35.687c0,1.91295.5414,2.997,2.1032,2.997a5.24331,5.24331,0,0,0,1.62577-.19191l.1269,2.13545a7.62136,7.62136,0,0,1-2.48528.38244,4.001,4.001,0,0,1-3.02765-1.17867,6.0266,6.0266,0,0,1-1.08375-4.0491v-8.4134H42.87451V25.23405h2.39065V22.36564"/>
    <path class="b" d="M67.10906,32.81853c0,5.70554-3.98381,8.19145-7.68079,8.19145-4.14269,0-7.39354-3.05963-7.39354-7.93563,0-5.13181,3.41008-8.15883,7.64908-8.15883,4.42959,0,7.42525,3.21963,7.42525,7.903m-12.20626.15993c0,3.37949,1.91225,5.928,4.65307,5.928,2.67719,0,4.68478-2.518,4.68478-5.99271,0-2.61323-1.30662-5.89544-4.62081-5.89544-3.28284,0-4.717,3.05963-4.717,5.9601"/>
    <path class="b" d="M68.5048,30.26991c0-1.97553-.06327-3.57-.1269-5.03586h2.48424l.16132,2.64521h.06327a6.0056,6.0056,0,0,1,5.48234-2.96374c3.75921,0,6.56435,3.15426,6.56435,7.80768,0,5.54631-3.41008,8.28748-7.04344,8.28748a5.41216,5.41216,0,0,1-4.74875-2.42263H71.278v8.38064H68.5048M71.278,34.381a4.33156,4.33156,0,0,0,4.335,4.4289c2.963,0,4.68338-2.42131,4.68338-5.958,0-3.06032-1.62507-5.70553-4.58875-5.70553a4.41923,4.41923,0,0,0-4.23969,3.44213,4.59073,4.59073,0,0,0-.1899,1.1154Z"/>
    <path class="b" d="M88.48711,21.53672v3.69733h4.0158v2.13476h-4.0158V35.687c0,1.91295.54175,2.997,2.10424,2.997a5.25051,5.25051,0,0,0,1.62508-.19191l.12655,2.13545a7.62925,7.62925,0,0,1-2.48661.38244,4.00005,4.00005,0,0,1-3.02632-1.17867,6.025,6.025,0,0,1-1.0841-4.0491v-8.4134h-2.39V25.23405h2.39V22.36564"/>
    <path class="b" d="M105.27028,36.9622a25.89636,25.89636,0,0,0,.22258,3.69733h-2.518l-.22258-1.94424h-.09526a5.7468,5.7468,0,0,1-4.7167,2.29539,4.39482,4.39482,0,0,1-4.71676-4.43091c0-3.72793,3.3135-5.76812,9.27353-5.73614V30.5251c0-1.24327-.34976-3.56932-3.506-3.53733A7.42568,7.42568,0,0,0,94.944,28.13445l-.63631-1.88033a9.97182,9.97182,0,0,1,5.09781-1.33923c4.71809,0,5.86477,3.21956,5.86477,6.27919m-2.70848,1.5931c-3.06033-.064-6.53376.47846-6.53376,3.47482a2.45664,2.45664,0,0,0,2.61322,2.6765,3.89417,3.89417,0,0,0,3.79259-2.58124,3.16154,3.16154,0,0,0,.12795-.89219Z"/>
    <rect class="b" x="107.34797" y="18.03131" width="2.80375" height="22.62752"/>
  </g>
</svg>
