<svg xmlns="http://www.w3.org/2000/svg" viewBox="0 0 150.45265 58">
  <defs>
    <style>
      .a {
        opacity: 0.76;
      }

      .b {
        fill: #fff;
      }
    </style>
  </defs>
  <title>logo-visualforce</title>
  <g class="a">
    <path class="b" d="M79.99895,20.48152c-.39614-.00054-.793.01366-1.1882-.00528-.28767-.01379-.70563.05972-.68111-.39242.022-.40525.21085-.75982.73988-.74332.57158.01783,1.14424.00019,1.71643-.00016,1.76725-.00108,1.76937,0,2.36055-1.60445a21.566,21.566,0,0,1,2.6214-5.29677,7.83268,7.83268,0,0,1,5.05358-3.52827,6.02707,6.02707,0,0,1,4.07137.73537,3.47891,3.47891,0,0,1,1.4919,1.62469,1.28917,1.28917,0,0,1-.28993,1.66867,1.36973,1.36973,0,0,1-1.68274-.27742,8.14579,8.14579,0,0,1-.83431-1.17995c-1.28364-2.01554-3.09287-2.18538-4.60431-.31946A10.754,10.754,0,0,0,87.215,13.895c-.60565,1.50318-1.0725,3.06439-1.55311,4.615-.238.76788-.19283.79268.64327.81852.65966.02038,1.32036.00523,1.98044.01583.31556.00507.63617.02333.63647.46933a.5738.5738,0,0,1-.63782.65787c-.83621.00457-1.67338.0335-2.5083.00256a.80834.80834,0,0,0-.922.69715c-.83476,2.81961-1.675,5.63806-2.55945,8.44238-1.35929,4.30989-2.39927,8.727-4.26418,12.8685a12.23472,12.23472,0,0,1-3.5914,4.97976A7.69353,7.69353,0,0,1,66.8454,48.6723a2.6741,2.6741,0,0,1-2.07572-2.45443c-.04041-1.078.5684-1.76551,1.5283-1.72715A1.5809,1.5809,0,0,1,67.7069,46.24c-.04059.42891-.3389.90784.11456,1.20881a3.3872,3.3872,0,0,0,1.4267.576,3.8647,3.8647,0,0,0,3.23818-1.14955,10.61392,10.61392,0,0,0,2.48145-4.01111c1.02576-2.80168,1.95888-5.639,2.86411-8.48267,1.3701-4.30391,2.68483-8.62546,4.01959-12.9406.24726-.7994.15835-.91893-.66412-.958-.04392-.00209-.088-.00087-.132-.00088Q80.52714,20.482,79.99895,20.48152Z"/>
    <path class="b" d="M53.50176,25.326c0,1.75893-.03464,3.51875.01108,5.27649.03592,1.3807.29387,1.56559,1.67781,1.46967.131-.00908.29332-.07042.38631-.01522.17124.10167.39092.25469.42267.41876a.57859.57859,0,0,1-.27349.49167c-1.153.42147-2.31494.82159-3.48747,1.18527-.57561.17853-.88593-.10962-1.00437-.69693a11.71718,11.71718,0,0,0-.41292-1.29635c-.3394.27043-.67744.5426-1.01845.811a5.52253,5.52253,0,0,1-4.57707,1.16795,3.92139,3.92139,0,0,1-1.89308-1.07875,4.83843,4.83843,0,0,1-1.53963-3.39116c-.04612-2.36938-.15075-4.73758-.20413-7.10688-.03438-1.52591-.018-1.51051-1.48324-1.97533a.95.95,0,0,1-.58512-.55689c-.08-.41662.26043-.63275.65284-.64152,1.18666-.02655,2.37392-.03293,3.561-.0332.38957-.00009.54439.25988.51954.61293-.0493.70031-.16576,1.3982-.17772,2.0984-.03456,2.02238-.0711,4.04639-.02211,6.0677a9.16366,9.16366,0,0,0,.42226,2.31889c.63521,2.16531,2.46714,2.5858,4.199,1.91491,1.70055-.65878,2.42772-1.54405,2.37133-3.39056-.06173-2.021-.009-4.04547-.01733-6.06838A8.20567,8.20567,0,0,0,50.94,21.73a1.11912,1.11912,0,0,0-1.12278-1.073c-.49105-.03827-1.1789.03811-1.07554-.78664.09289-.74126.73116-.47481,1.15977-.49233,1.00992-.04128,2.02243-.01441,3.03349-.03493.50973-.01034.66988.18117.65845.7096-.038,1.75706-.01437,3.51545-.01437,5.27334Z"/>
    <path class="b" d="M74.65858,20.60851q0,5.212.00189,10.424c.00262,1.51942.20191,1.71135,1.75708,1.77341.13174.00525.26388-.00028.39577.0024.38692.00787.70724.09368.68153.58462-.02592.49526-.383.52647-.74951.52684q-3.42983.00353-6.85966-.00074c-.3284-.00028-.63637-.057-.64873-.47447-.01269-.42833.20487-.6431.64517-.63649a11.624,11.624,0,0,0,1.18658-.02123.90675.90675,0,0,0,.95225-1.02058c-.00875-.26364-.00575-.52772-.00518-.79159q.01686-7.8505.03184-15.701c.00058-.39521-.04332-.79028-.05478-1.18575a1.82053,1.82053,0,0,0-1.285-1.80185,2.72809,2.72809,0,0,1-.61269-.23513,5.67527,5.67527,0,0,1-.6321-.58031,4.58609,4.58609,0,0,1,.598-.44045c1.20806-.62553,2.42453-1.23487,3.63817-1.84961.80239-.40642.99379-.31209.99771.60854.01538,3.60643.00629,7.213.00629,10.81946Z"/>
    <path class="b" d="M10.30738,19.33239c.88028.00075,1.76061.00424,2.64088-.00079.41362-.00237.66581.13408.66939.60358.00321.422-.15209.60335-.58656.70122-.98609.22214-1.146.39992-.88979,1.17819.90507,2.7492,1.86478,5.48049,2.81807,8.21357a1.99247,1.99247,0,0,0,.37452.48876,3.27935,3.27935,0,0,0,.26283-.45292c1.00086-2.57829,2.01774-5.15072,2.981-7.74306.41361-1.11309.28589-1.34-.82394-1.689-.46806-.14718-.47777-.43444-.46691-.79934.0123-.4133.27574-.49863.6213-.498,1.45242.00272,2.90488.00814,4.35723-.00207a.57872.57872,0,0,1,.67653.60861c.04075.44879-.13457.699-.57594.673a1.87456,1.87456,0,0,0-1.8964,1.34941c-1.0416,2.27583-2.09145,4.54792-3.12391,6.82789-.6522,1.44021-1.27717,2.89273-1.91913,4.33761a4.23519,4.23519,0,0,1-.36282.70194c-.46514.67054-.889.66824-1.28375-.02477a8.37544,8.37544,0,0,1-.53076-1.20453q-1.738-4.62248-3.46472-9.24919c-.18531-.4937-.393-.97908-.59338-1.467-.30131-.73363-.7045-1.3178-1.63349-1.26511-.45258.02567-.77867-.18409-.7422-.70138.03756-.53264.41894-.59393.85113-.58983C8.54678,19.33751,9.42712,19.33165,10.30738,19.33239Z"/>
    <path class="b" d="M120.151,18.8952a6.29773,6.29773,0,0,1,3.29981.96235,4.69982,4.69982,0,0,1,1.1755,1.2057,1.30493,1.30493,0,0,1-.08212,1.6939,1.41024,1.41024,0,0,1-1.70693.19738,3.33884,3.33884,0,0,1-1.16912-1.20357c-.96595-2.02166-3.07238-1.7863-4.46217-.714a4.93448,4.93448,0,0,0-1.81784,3.6732,8.615,8.615,0,0,0,1.81106,6.17157,5.08464,5.08464,0,0,0,6.46544.92258,7.69558,7.69558,0,0,1,.7358-.54871c.193-.094.59069-.14686.65247-.0545a1.35405,1.35405,0,0,1,.16224.78991c-.00767.13523-.206.27449-.34.38549a7.68626,7.68626,0,0,1-7.741,1.64816,6.53946,6.53946,0,0,1-4.35247-5.48972c-.53469-2.95863.80735-7.43713,4.72158-8.97281A20.68,20.68,0,0,1,120.151,18.8952Z"/>
    <path class="b" d="M107.35413,28.00574c0,1.18627-.02178,2.373.0065,3.55864.02522,1.05793.17682,1.18223,1.25267,1.22273.2194.00825.43969.01233.6589.00285.51312-.02222.86048.11891.82052.72925-.0365.55762-.20043.651-.89679.61841-1.66286-.07781-3.32684-.14164-4.99108-.17423a9.26724,9.26724,0,0,0-1.29823.18191.63778.63778,0,0,1-.81037-.63238c-.05043-.51175.22537-.68275.701-.72607.58719-.05349,1.36354.292,1.70137-.34308a3.85139,3.85139,0,0,0,.1468-1.67412c.01448-1.977.00908-3.95417.00791-5.93127a7.09893,7.09893,0,0,0-.032-1.05262c-.13615-.89926-.36445-1.73142-1.47622-1.90888-.21641-.03454-.39851-.28407-.59644-.43444a2.71316,2.71316,0,0,1,.561-.60821c.9916-.56063,2.00269-1.08751,3.015-1.61051.61037-.31533.8676-.1769.956.52531.06021.4782.05582.96426.09509,1.44559a1.20752,1.20752,0,0,0,.12121.31717,1.80518,1.80518,0,0,0,.31594-.19919,16.09622,16.09622,0,0,1,1.80179-1.71268,4.4803,4.4803,0,0,1,1.919-.76449,1.62218,1.62218,0,0,1,1.78774,2.279,1.39643,1.39643,0,0,1-1.5537.9528,3.91058,3.91058,0,0,1-.88415-.22983,2.37628,2.37628,0,0,0-3.30721,2.21517c-.07717,1.3135-.015,2.63519-.015,3.95322Z"/>
    <path class="b" d="M34.05727,34.39046c-.9603-.25274-1.88154-.49726-2.804-.73717a1.1745,1.1745,0,0,1-.905-1.01628c-.16506-.90258-.30042-1.81157-.49922-2.70654-.08491-.38226.01584-.67172.35274-.69708a.92115.92115,0,0,1,.68424.40843c.36721.59619.616,1.26519.98178,1.8624.95571,1.5603,1.784,1.83579,3.69969,1.486a2.089,2.089,0,0,0,1.70061-1.81048,2.27608,2.27608,0,0,0-.81212-2.36279,8.837,8.837,0,0,0-1.85917-.95981c-.72427-.30867-1.50217-.49619-2.21438-.82747a3.85037,3.85037,0,0,1-2.46792-3.84276A3.98588,3.98588,0,0,1,32.63306,19.484a6.27962,6.27962,0,0,1,5.10968.1937,1.35828,1.35828,0,0,1,.85623,1.07116c.113.60306.29713,1.19551.368,1.80219a.72026.72026,0,0,1-.35281.59191.75022.75022,0,0,1-.63833-.24045c-.42566-.50045-.77438-1.06543-1.18492-1.57987a2.81379,2.81379,0,0,0-3.29047-.95488,2.168,2.168,0,0,0-1.6476,1.9818,2.19231,2.19231,0,0,0,1.31914,2.23486c.55.26411,1.15737.407,1.73419.61744.65886.24036,1.32723.46241,1.96542.75018a3.78071,3.78071,0,0,1,2.39164,3.87761,3.9948,3.9948,0,0,1-2.53029,3.83A20.3052,20.3052,0,0,1,34.05727,34.39046Z"/>
    <path class="b" d="M27.36122,25.71738c0,1.84853-.01178,3.69715.004,5.54554.01123,1.31743.19375,1.47658,1.53238,1.54469.40431.02057.9895-.16518,1.01566.50115.02988.76107-.60567.60548-1.05815.60886-1.84777.01377-3.69571.00673-5.54359.00681-.132,0-.26395-.00477-.39594-.00666-.34871-.005-.58992-.11743-.6-.52511a.48963.48963,0,0,1,.54586-.57475c.30794-.00715.61681.001.92373-.02008.83681-.05739,1.10221-.28047,1.11125-1.13307.028-2.64047.02211-5.28139.01327-7.92208a1.65358,1.65358,0,0,0-1.36882-1.82655,1.00841,1.00841,0,0,1-.36953-.13582c-.16539-.11784-.41374-.26181-.42662-.41193a.677.677,0,0,1,.33648-.49c.3415-.19157.73153-.29406,1.08933-.4597.75635-.35016,1.4964-.73646,2.2588-1.07238.81057-.35714.91667-.29475.92376.56145.016,1.93642.005,3.87306.005,5.80961Z"/>
    <path class="b" d="M25.31694,15.10462a1.99854,1.99854,0,0,1-1.97561-1.88007,2.02515,2.02515,0,0,1,2.08291-1.77705,1.93745,1.93745,0,0,1,1.843,1.72664A2.00748,2.00748,0,0,1,25.31694,15.10462Z"/>
    <path class="b" d="M143.62772,20.6609c0,.30647.01481.614-.008.9188-.008.107-.10831.207-.16647.31024a1.10644,1.10644,0,0,1-.1792-.32531c-.04655-.29334-.05714-.59238-.08212-.88915a7.912,7.912,0,0,1-.40923.78569,4.52125,4.52125,0,0,1-.4859.53658c-.12415-.16022-.2539-.31647-.371-.48169-.13712-.1935-.26325-.39482-.39412-.59275a3.638,3.638,0,0,1-.0882.644,1.46885,1.46885,0,0,1-.27273.379c-.08529-.1247-.23666-.24548-.24431-.37477a12.03886,12.03886,0,0,1-.00787-1.57584,2.25743,2.25743,0,0,1,.27024-.65484,2.85721,2.85721,0,0,1,.59288.56653,8.70756,8.70756,0,0,1,.44261,1.09416,1.14114,1.14114,0,0,0,.14631.21076,1.51507,1.51507,0,0,0,.11295-.21094c.15929-.45248.29436-.91488.48146-1.3553a.49882.49882,0,0,1,.38358-.25929c.10124.00661.25065.21983.26919.35626a6.86259,6.86259,0,0,1,.0127.91785Z"/>
    <path class="b" d="M140.57065,19.42212c-.03073.06937-.04131.12752-.05982.13016-1.34327.1913-.66232,1.25552-.841,1.94746-.0109.04221-.00058.09535-.02273.12815-.06082.09009-.13369.172-.20179.25723-.04578-.07139-.12722-.14073-.13146-.21451-.02514-.43734-.01664-.877-.05257-1.31318a.96477.96477,0,0,0-.17965-.59379,2.2054,2.2054,0,0,0-.694-.28641,6.74555,6.74555,0,0,1,.96606-.27547,3.5896,3.5896,0,0,1,.914.03434C140.3765,19.24932,140.47344,19.35949,140.57065,19.42212Z"/>
    <path class="b" d="M94.32865,19.00628c-3.66409-.07063-8.0655,3.64206-7.60947,7.80045-.39531,3.95694,3.20724,7.65812,7.20545,7.625a7.9155,7.9155,0,0,0,7.667-7.724A7.54537,7.54537,0,0,0,94.32865,19.00628ZM98.492,27.35505a15.80934,15.80934,0,0,1-.76324,3.1774,4.07792,4.07792,0,0,1-2.241,2.469,3.81783,3.81783,0,0,1-4.27445-1.13323,6.40736,6.40736,0,0,1-1.51407-3.85165c-.00893-.483-.0014-.96638-.0014-1.44958A6.49922,6.49922,0,0,1,91.276,21.43849,3.31651,3.31651,0,0,1,96.1918,21.101,6.65614,6.65614,0,0,1,98.492,27.35505Z"/>
    <path class="b" d="M68.99586,31.85978c-.1777-.28281-.43638-.18049-.65854.03776a1.34809,1.34809,0,0,1-.438.28579.962.962,0,0,1-1.45909-.76257,7.11881,7.11881,0,0,1-.23208-1.54894c-.0326-1.27374-.01065-2.54889-.01078-3.82347-.00013-1.31855.01251-2.63721-.00324-3.95555A2.74068,2.74068,0,0,0,63.521,19.099a7.68816,7.68816,0,0,0-5.5806,1.51705,3.95142,3.95142,0,0,0-1.81171,2.647c-.1383,1.11691.5948,1.66332,1.62443,1.23316a1.65451,1.65451,0,0,0,1.00721-1.43278c.04611-.34254-.05063-.70343-.01247-1.04825a1.7787,1.7787,0,0,1,.26853-.93823,3.6407,3.6407,0,0,1,3.94583-.22667,1.38839,1.38839,0,0,1,.41553.4993,6.14971,6.14971,0,0,1,.29668,3.62313c-.17131.82652-1.18073.94629-1.8636,1.30818-.38712.20516-.79905.36356-1.18563.56969-.88877.47386-1.80892.904-2.64315,1.46142a3.64578,3.64578,0,0,0-1.59049,3.66416,2.225,2.225,0,0,0,2.52206,2.24311,4.40732,4.40732,0,0,0,2.41357-.49988c.74208-.4595,1.50907-.88111,2.23072-1.37015.30023-.20346.43546-.22068.55958.1305.05821.16469.15183.31662.22475.47644.75517,1.65452,3.16839,1.563,4.0463.57414a4.06508,4.06508,0,0,0,.68374-.955A.877.877,0,0,0,68.99586,31.85978ZM63.7408,29.69436a2.837,2.837,0,0,1-2.94891,2.85585,1.5422,1.5422,0,0,1-1.71715-1.58215,3.06554,3.06554,0,0,1,.914-2.38584,10.992,10.992,0,0,1,3.35092-2.04547c.25945-.13354.402-.04943.40065.25386-.00252.57192-.00073,1.14387-.00073,1.71582h.002C63.74163,28.90244,63.74644,29.29845,63.7408,29.69436Z"/>
    <path class="b" d="M138.0036,30.05279c-.639-.545-.86422.21781-1.18.582a4.67924,4.67924,0,0,1-7.62282-.70253,7.91562,7.91562,0,0,1-.9123-4.3234c.01121-.61594.2264-.881.84923-.87141,1.27536.01948,2.55124.00584,3.82689.00584l0-.01971c1.36351,0,2.72786.02877,4.09018-.01141.74863-.02206.93022-.22664.8401-.85761-.2713-1.89922-1.26466-4.0777-3.71809-4.64166-2.67347-.61458-5.44977-.02154-7.1217,2.4931-2.02386,3.0439-1.98718,6.234-.43843,9.50174,1.68765,3.56083,8.2508,4.95953,11.125.12444C137.97161,30.94536,138.47594,30.4557,138.0036,30.05279Zm-9.32455-6.91547a4.04689,4.04689,0,0,1,2.50387-2.82929,2.55132,2.55132,0,0,1,3.404,2.23967c.068.8665-.03689,1.00065-.8949,1.0231-.74231.01941-1.48554.004-2.22835.004v-.00558c-.78649,0-1.57308.00684-2.35942-.00387C128.8441,23.56183,128.5383,23.54668,128.67905,23.13732Z"/>
  </g>
</svg>
