<svg xmlns="http://www.w3.org/2000/svg" viewBox="0 0 150.45265 58">
  <defs>
    <style>
      .a {
        opacity: 0.76;
      }

      .b {
        fill: #fff;
      }
    </style>
  </defs>
  <title>logo-Apex</title>
  <g class="a">
    <g>
      <path class="b" d="M42.6408,35.49111l6.012-18.16724h4.81747l6.02512,18.16724H55.70179l-1.20765-3.68858H47.49765l-1.1814,3.68858Zm5.907-6.93085H53.444l-2.44155-7.50843Z"/>
      <path class="b" d="M75.66606,28.50775a10.587,10.587,0,0,1-.66945,3.91173,5.61292,5.61292,0,0,1-1.91649,2.58595,4.986,4.986,0,0,1-2.97974.89261,5.67236,5.67236,0,0,1-3.89861-1.4308v6.20889H62.8151V21.72129h3.12414v1.352a8.15237,8.15237,0,0,1,1.98868-1.27985,5.813,5.813,0,0,1,2.39561-.466,4.64757,4.64757,0,0,1,3.97737,1.83773A8.868,8.868,0,0,1,75.66606,28.50775Zm-3.49168.05251a5.94454,5.94454,0,0,0-.69571-3.1307,2.2826,2.2826,0,0,0-2.074-1.12233,4.16858,4.16858,0,0,0-1.6999.38724,5.69509,5.69509,0,0,0-1.503.95168v6.02512a5.40993,5.40993,0,0,0,1.33235.85979,3.79193,3.79193,0,0,0,1.63427.37411,2.52628,2.52628,0,0,0,2.19871-1.188A5.52474,5.52474,0,0,0,72.17438,28.56026Z"/>
      <path class="b" d="M82.66124,29.49225a3.92529,3.92529,0,0,0,.89261,2.63845,3.4429,3.4429,0,0,0,2.52031.80072,5.57236,5.57236,0,0,0,1.75241-.2494,2.81318,2.81318,0,0,0,1.31922-.95825l2.52031,1.79835a5.09614,5.09614,0,0,1-2.1462,1.78522,8.99137,8.99137,0,0,1-3.60326.5907,6.63386,6.63386,0,0,1-5.07344-1.78522q-1.67364-1.78589-1.67364-5.395,0-7.38963,6.61582-7.39029A5.82041,5.82041,0,0,1,90.26812,22.988a6.86372,6.86372,0,0,1,1.54238,4.83716v1.66708Zm5.78884-2.33654q0-3.1366-2.74346-3.13726a3.12929,3.12929,0,0,0-1.48331.30847,2.31544,2.31544,0,0,0-.92543.91887,5.79027,5.79027,0,0,0-.54475,1.90992Z"/>
      <path class="b" d="M103.7951,35.49111l-2.73034-4.38429-2.8616,4.38429H94.449l4.75183-6.79959-4.67307-6.97023h3.95111l2.74346,4.358,2.82223-4.358h3.74109l-4.73872,6.78646,4.765,6.98336Z"/>
    </g>
  </g>
</svg>
