<svg xmlns="http://www.w3.org/2000/svg" viewBox="0 0 150.45265 58">
  <defs>
    <style>
      .a {
        fill: #fff;
        opacity: 0.76;
      }
    </style>
  </defs>
  <title>logo-coffeescript</title>
  <path class="a" d="M69.75152,10.02919c0,.29445-.09423.53-.57712.77735a6.54857,6.54857,0,0,0-3.08584-.43579c-1.1778.09422-2.21426.4829-2.07293,1.30736s1.35447,1.30735,3.4274,1.10713c5.06454-.43579,5.01743-3.86318,12.44935-4.53453,5.79477-.53,9.02194,1.26024,9.42239,3.4274.34157,1.68425-1.06,3.33317-5.26476,3.663-3.71007.34157-5.889-.67134-6.07745-1.68425-.09423-.53.18845-1.30736,1.9787-1.49581.18845.82446,1.1778,1.68426,3.61585,1.4487,1.74314-.14134,3.18006-.77735,2.99161-1.74315s-2.02581-1.59-4.9232-1.35447c-5.889.53-7.33769,3.769-12.35512,4.193-3.5334.34156-6.46612-.96579-6.8548-2.89739-.14133-.71845-.14133-2.3556,3.61585-2.756,1.93159-.14133,3.5334.18845,3.663.9658ZM50.93028,30.2049A9.99957,9.99957,0,0,0,48.716,37.0597a7.97368,7.97368,0,0,0,3.133,5.79477,7.585,7.585,0,0,0,6.3719,1.49581,21.65905,21.65905,0,0,0,2.862-.91869A8.03253,8.03253,0,0,1,55.86526,41.5a7.82057,7.82057,0,0,1-3.28606-5.359,7.18451,7.18451,0,0,1,1.1778-5.68877A7.538,7.538,0,0,1,58.97465,27.602a9.10446,9.10446,0,0,1,6.07745,1.79026A13.16825,13.16825,0,0,0,63.415,27.75508a7.77346,7.77346,0,0,0-6.56034-1.30736,9.8582,9.8582,0,0,0-5.889,3.769Zm25.91159-11.142a77.38189,77.38189,0,0,1-15.78251-1.4958c-4.299-1.06-6.56035-2.21427-6.56035-3.71007a2.14626,2.14626,0,0,1,1.1778-1.79026c-2.69716,1.06-4.14585,1.93159-4.14585,3.28606s2.55582,2.99161,7.479,4.14586A74.73136,74.73136,0,0,0,76.677,21.289,73.8832,73.8832,0,0,0,94.344,19.4987c4.9232-1.1778,7.29058-2.69717,7.29058-4.14586,0-1.06-1.06-2.07293-2.99161-2.85028a1.63713,1.63713,0,0,1,.77734,1.30736c0,1.49581-2.21426,2.69716-6.71346,3.71007A74.508,74.508,0,0,1,76.783,19.06291Zm17.76122,4.14586A80.17264,80.17264,0,0,1,76.9361,24.999a83.62364,83.62364,0,0,1-17.85545-1.79025c-4.14586-1.06-6.3719-2.21427-7.13747-3.4274a43.93224,43.93224,0,0,0,4.829,14.42805c1.79026,2.69716,3.5334,5.06454,5.359,7.62036a18.72678,18.72678,0,0,1,1.63714,4.48742,8.63325,8.63325,0,0,0,4.92321,3.28607,20.1052,20.1052,0,0,0,7.91481,1.1778h.29445a22.37844,22.37844,0,0,0,8.15038-1.1778A9.22211,9.22211,0,0,0,89.833,46.3172h.14134a18.17353,18.17353,0,0,1,1.49581-4.48742c1.79025-2.55582,3.5334-4.9232,5.359-7.62036a46.65287,46.65287,0,0,0,4.92321-14.47516c-.9658,1.35447-3.18006,2.50871-7.18458,3.42739Z"/>
</svg>
