<svg xmlns="http://www.w3.org/2000/svg" viewBox="0 0 150.45265 58">
  <defs>
    <style>
      .a {
        opacity: 0.76;
      }

      .b {
        opacity: 0.77;
      }

      .c {
        fill: #fff;
      }
    </style>
  </defs>
  <title>logo-scala_1</title>
  <g class="a">
    <g>
      <g class="b">
        <path class="c" d="M21.70944,24.76786s18.93392,1.85535,18.93392,5.04657V22.2353s0-3.15411-18.93392-5.04657Z"/>
        <path class="c" d="M21.70944,34.861s18.93392,1.85535,18.93392,5.04657V32.33771s0-3.1541-18.93392-5.04657Z"/>
      </g>
      <path class="c" d="M21.70944,17.18873s18.93392-1.85536,18.93392-5.04657V19.712s0,3.15411-18.93392,5.04657Z"/>
      <path class="c" d="M21.70944,27.29114s18.93392-1.85535,18.93392-5.04657V29.8237s0,3.15411-18.93392,5.04657Z"/>
      <path class="c" d="M21.70944,37.39356S40.64336,35.5382,40.64336,32.347v7.57913s0,3.15411-18.93392,5.04657Z"/>
      <path class="c" d="M102.9555,14.13667h6.02063V41.60522h-6.132V14.4428C102.81635,14.30365,102.81635,14.15522,102.9555,14.13667Z"/>
      <path class="c" d="M59.53088,17.60618a45.09307,45.09307,0,0,1-.92768,4.49c-.29685.21336-.63082-.17626-.92767-.30614-1.642-.77-9.12836-2.45835-8.07081,1.63272.41746,1.63271,2.95,2.59749,4.7961,3.46951,3.35819,1.59561,7.18023,3.80348,6.336,8.98921-1.06683,6.49374-10.87239,7.24516-17.05072,4.49.23192-1.61416.57516-3.09845.71431-4.7961a23.70234,23.70234,0,0,0,5.40837,1.42863c2.32847.167,5.03729.12987,4.69405-2.44907-.28758-2.29137-5.35271-3.40459-7.53275-5.00019-2.8758-2.05017-5.028-7.42143-1.93885-10.826C47.67516,15.77866,55.36561,15.389,59.53088,17.60618Z"/>
      <path class="c" d="M78.01024,23.432c-.12988,1.60488-.5195,2.95-.61228,4.63839-3.54373-1.75331-7.66262-.64937-7.96875,3.46952-.12059,1.642.19481,3.84987,1.53067,4.89814s4.78682,1.02972,6.49375.10205c.37107,1.02972.45456,2.33775.81635,3.36747-3.2747,3.36747-10.68685,2.09655-13.173-1.02045a10.05592,10.05592,0,0,1-1.85536-5.20427c-.40818-5.56607,2.1986-10.46421,8.3491-11.0301A12.57017,12.57017,0,0,1,78.01024,23.432Z"/>
      <path class="c" d="M97.7234,41.91135a29.62928,29.62928,0,0,1-5.20428-.20409,2.50474,2.50474,0,0,1-.51022-1.53067c-.6401.2412-1.4008.92768-2.14294,1.22454-4.49924,1.744-8.72017-.67721-9.19329-4.38792-.7607-6.03918,4.96308-6.98542,10.928-7.05035,1.65126-5.20428-7.42143-2.783-8.88716-1.85536A18.55278,18.55278,0,0,1,81.387,24.39679c3.13555-1.72548,11.36406-3.26543,14.60166-.35252,1.911,1.70693,1.85535,4.926,1.85535,8.0708C97.82544,35.40833,97.90893,38.75725,97.7234,41.91135ZM87.30557,34.11886c-1.98523,2.6346,2.01306,5.38053,4.38792,3.26542V32.93143C89.74537,32.99637,88.11265,33.10769,87.30557,34.11886Z"/>
      <path class="c" d="M130.20141,41.91135c-2.20788-.30613-6.04847,1.01117-5.7145-1.85535a8.43259,8.43259,0,0,1-5.20428,1.85535c-5.85364,0-8.56246-7.32866-3.97974-10.31578,2.18932-1.42862,5.25994-1.48428,8.88715-1.63271,1.22455-5.26921-7.42142-2.783-9.09125-1.85536-.54732-1.12249-.872-2.45834-1.32658-3.71071,3.61795-2.03162,13.24726-3.56229,15.62211.81636C131.57438,29.3042,129.43144,35.97421,130.20141,41.91135Zm-10.724-5.20427c.57516,1.63271,3.40458,1.85535,4.694.61227V32.93143C121.23076,32.616,118.55905,34.11886,119.47745,36.70708Z"/>
    </g>
  </g>
</svg>
